G04 ================== begin FILE IDENTIFICATION RECORD ==================*
G04 Layout Name:  G:/Geek/Projects/remote_car/PCB/ti_foc_motor.brd*
G04 Film Name:    GND*
G04 File Format:  Gerber RS274X*
G04 File Origin:  Cadence Allegro 16.6-S008*
G04 Origin Date:  Mon Jan 08 21:47:22 2018*
G04 *
G04 Layer:  ETCH/GND*
G04 Layer:  PIN/GND*
G04 Layer:  VIA CLASS/GND*
G04 *
G04 Offset:    (0.0000 0.0000)*
G04 Mirror:    No*
G04 Mode:      Positive*
G04 Rotation:  0*
G04 FullContactRelief:  No*
G04 UndefLineWidth:     0.2000*
G04 ================== end FILE IDENTIFICATION RECORD ====================*
%FSLAX25Y25*MOMM*%
%IR0*IPPOS*OFA0.00000B0.00000*MIA0B0*SFA1.00000B1.00000*%
%ADD10C,10.*%
%ADD11C,.6*%
%ADD13C,1.*%
%ADD16C,1.6*%
%ADD12C,1.8*%
%ADD15R,1.6X1.6*%
%ADD14R,1.8X1.8*%
%ADD17C,.2*%
%ADD18C,.5*%
%ADD19C,2.*%
%ADD20C,1.5*%
%ADD21C,10.4004*%
%ADD29O,1.0002X2.0002*%
%ADD30O,1.0002X1.9002*%
%ADD28O,3.7002X1.0002*%
%ADD25R,2.0004X2.0004*%
%ADD23R,2.2004X2.2004*%
%ADD27C,1.0004*%
%ADD24C,2.0004*%
%ADD22C,2.2004*%
%ADD26C,1.4004*%
G75*
%LPD*%
G75*
G36*
G01X4966430Y5869260D02*
G03Y5795740I-33930J-36760D01*
G02X4999990Y5781050I13562J-14696D01*
G01Y100000D01*
G02X4950000Y50010I-49990J0D01*
G01X100000D01*
G02X50010Y100000I0J49990D01*
G01Y7400000D01*
G02X100000Y7449990I49990J0D01*
G01X4950000D01*
G02X4999990Y7400000I0J-49990D01*
G01Y5883950D01*
G02X4966430Y5869260I-19998J6D01*
G37*
%LPC*%
G75*
G36*
G01X3440750Y1599000D02*
G02X3373530Y1612450I-40758J-28998D01*
G03X3379250Y1641010I-10577J16971D01*
G02X3369990Y1670000I40749J28990D01*
G01Y1770000D01*
G02X3470010I50010J0D01*
G01Y1670000D01*
G02X3446470Y1627570I-50009J0D01*
G03X3440750Y1599000I10578J-16975D01*
G37*
G54D21*
X4400000Y6900000D03*
X2700000D03*
X4400000Y600000D03*
X600000D03*
X1000000Y6900000D03*
G54D29*
X3330000Y2840000D03*
G54D30*
X3730000Y1895000D03*
G54D28*
X3060000Y2656250D03*
G54D25*
X4690000Y1630000D03*
G54D23*
X2700000Y200000D03*
G54D27*
X3700000Y3280000D03*
X3600000Y3970000D03*
X3430000Y2050000D03*
X3410000Y4200000D03*
X3280000Y4210000D03*
X3230000Y2340000D03*
X3150000Y1570000D03*
X3050000Y4760000D03*
X2777300Y2300000D03*
X2760000Y1020000D03*
X2725000Y3495000D03*
X2640000Y2680000D03*
X2610000Y1280000D03*
X2420000Y1290000D03*
X2370000Y5770000D03*
X2180000Y2180000D03*
X2160000Y1370000D03*
X2060000Y4330000D03*
Y3960000D03*
X1720000Y4840000D03*
X1610000Y5900000D03*
X1350000Y2280000D03*
G54D24*
X4690000Y2900000D03*
Y2646000D03*
Y2392000D03*
Y2138000D03*
Y1884000D03*
G54D22*
X3462000Y200000D03*
X3208000D03*
X2954000D03*
X2100000D03*
X1600000D03*
G54D26*
X4230000Y1820000D03*
X4190000Y3280000D03*
X4180000Y3720000D03*
X3980000Y4200000D03*
X3680000Y2650000D03*
X2570000Y530000D03*
X2440000Y690000D03*
X2055000Y3160000D03*
X1910000Y1210000D03*
%LPD*%
G75*
G54D10*
X600000Y600000D03*
X1000000Y6900000D03*
X2700000D03*
X4400000Y600000D03*
Y6900000D03*
G54D20*
G01Y600000D02*
X4910000D01*
G54D11*
X110000Y1160000D03*
Y1960000D03*
Y2680000D03*
Y3280000D03*
Y6110000D03*
X120000Y6930000D03*
X240000Y5530000D03*
X280000Y5930000D03*
X410000Y5390000D03*
X400000Y6110000D03*
X380000Y6270000D03*
X370000Y6930000D03*
X480000Y7380000D03*
X520000Y6410000D03*
X610000Y5520000D03*
X570000Y6210000D03*
X1140000Y2190000D03*
X1220000Y1000000D03*
X1180000Y1540000D03*
X1170000Y3460000D03*
X1180000Y4120000D03*
X1220000Y4630000D03*
X1270000Y2640000D03*
X1350000Y520000D03*
Y2280000D03*
X1410000Y3070000D03*
X1440000Y1290000D03*
Y1940000D03*
X1500000Y4390000D03*
X1520000Y5810000D03*
X1610000Y5900000D03*
Y6500000D03*
X1690000Y6930000D03*
X1670000Y7320000D03*
X1720000Y4840000D03*
X1710000Y6130000D03*
X1820000Y5740000D03*
X1840000Y200000D03*
X1900000Y1030000D03*
Y4110000D03*
X1990000Y3010000D03*
X1980000Y5930000D03*
X2040000Y2580000D03*
X2060000Y3960000D03*
Y4330000D03*
X2090000Y6350000D03*
X2070000Y6920000D03*
X2160000Y1370000D03*
X2110000Y6110000D03*
X2180000Y2180000D03*
Y4790000D03*
X2190000Y6490000D03*
X2290000Y790000D03*
X2240000Y3370000D03*
X2250000Y6230000D03*
X2340000Y460000D03*
Y1560000D03*
X2310000Y2440000D03*
Y2680000D03*
X2350000Y5870000D03*
X2390000Y200000D03*
X2420000Y1290000D03*
X2370000Y5770000D03*
X2520000Y2070000D03*
X2560000Y3920000D03*
X2610000Y1280000D03*
X2580000Y1790000D03*
X2570000Y3690000D03*
X2640000Y2680000D03*
X2760000Y1020000D03*
X2725000Y3495000D03*
X2777300Y2300000D03*
X2850000Y1710000D03*
X2925000Y2656250D03*
X2960000Y3540000D03*
X2990000Y1100000D03*
X3020000Y2170000D03*
X3015000Y2656250D03*
X3000000Y3750000D03*
X3050000Y4020000D03*
Y4760000D03*
X3160000Y540000D03*
X3150000Y1570000D03*
X3105000Y2656250D03*
X3195000D03*
X3170000Y3290000D03*
X3260000Y1480000D03*
X3230000Y2340000D03*
Y2480000D03*
Y3080000D03*
X3280000Y4210000D03*
Y5840000D03*
X3350000Y1090000D03*
X3330000Y2790000D03*
Y2890000D03*
X3320000Y6480000D03*
X3330000Y7320000D03*
X3370000Y770000D03*
X3400000Y1570000D03*
X3420000Y1670000D03*
Y1770000D03*
X3410000Y4200000D03*
X3390000Y6100000D03*
X3400000Y6940000D03*
X3430000Y2050000D03*
X3520000Y2790000D03*
X3500000Y3220000D03*
X3530000Y4450000D03*
X3520000Y5740000D03*
X3600000Y3970000D03*
X3690000Y5900000D03*
X3730000Y1850000D03*
Y1940000D03*
X3700000Y3280000D03*
X3770000Y250000D03*
X3800000Y1040000D03*
X3790000Y6100000D03*
X3800000Y6350000D03*
X3770000Y6930000D03*
X3880000Y1430000D03*
X3850000Y1930000D03*
X3880000Y7380000D03*
X3940000Y2450000D03*
X3900000Y2740000D03*
Y4440000D03*
X3940000Y6210000D03*
X3910000Y6490000D03*
X4020000Y2180000D03*
X4070000Y5830000D03*
X4130000Y1630000D03*
X4180000Y3030000D03*
X4220000Y4760000D03*
X4240000Y2470000D03*
X4520000Y2280000D03*
Y2510000D03*
X4530000Y3590000D03*
X4500000Y4090000D03*
Y4790000D03*
X4830000Y1310000D03*
X4880000Y7350000D03*
X4900000Y4670000D03*
X4932500Y5832500D03*
X4930000Y6130000D03*
X4940000Y6490000D03*
G54D12*
X1600000Y200000D03*
X2100000D03*
X2954000D03*
X3208000D03*
X3462000D03*
G54D13*
G01X2100000D02*
X1990000D01*
G01X2100000D02*
Y310000D01*
G01Y200000D02*
X2220020D01*
X1910000Y1210000D03*
X2055000Y3160000D03*
X2440000Y690000D03*
X2570000Y530000D03*
X3680000Y2650000D03*
X3980000Y4200000D03*
X4180000Y3720000D03*
X4230000Y1820000D03*
X4190000Y3280000D03*
G54D14*
X2700000Y200000D03*
G54D15*
X4690000Y1630000D03*
G54D16*
Y1884000D03*
Y2138000D03*
Y2392000D03*
Y2646000D03*
Y2900000D03*
G54D17*
G01X1990000Y200000D02*
X1979980D01*
G01X2100000Y310000D02*
Y320020D01*
G01Y90000D02*
Y79980D01*
G01X2833980Y200000D02*
X2835000D01*
G01X2954000Y90000D02*
Y79980D01*
G01X3060000Y200000D02*
X3074020D01*
G01X4400000Y1110000D02*
Y1130020D01*
G01X4910000Y600000D02*
X4930020D01*
G01X4400000Y80000D02*
Y69980D01*
G01X4590000Y2900000D02*
X4579980D01*
G01X4690000Y2800000D02*
Y2789980D01*
G01X4790000Y2900000D02*
X4800020D01*
G54D18*
G01X2100000Y200000D02*
Y90000D01*
G01X2954000Y200000D02*
X2835000D01*
G01X2954000D02*
Y90000D01*
G01Y200000D02*
Y320020D01*
G01Y200000D02*
X3060000D01*
G01X4400000Y600000D02*
Y80000D01*
G01X4690000Y2900000D02*
X4590000D01*
G01X4690000D02*
Y2800000D01*
G01Y2900000D02*
X4790000D01*
G01X4690000D02*
Y3010020D01*
G54D19*
G01X3869980Y600000D02*
X3850000D01*
G01X4400000D02*
X3869980D01*
G01X4400000D02*
Y1110000D01*
M02*
