G04 ================== begin FILE IDENTIFICATION RECORD ==================*
G04 Layout Name:  G:/Geek/Projects/remote_car/PCB/ti_foc_motor.brd*
G04 Film Name:    SILKSCREEN_BOTTOM*
G04 File Format:  Gerber RS274X*
G04 File Origin:  Cadence Allegro 16.6-S008*
G04 Origin Date:  Mon Jan 08 21:47:22 2018*
G04 *
G04 Layer:  MANUFACTURING/AUTOSILK_BOTTOM*
G04 Layer:  BOARD GEOMETRY/OUTLINE*
G04 Layer:  BOARD GEOMETRY/SILKSCREEN_BOTTOM*
G04 *
G04 Offset:    (0.0000 0.0000)*
G04 Mirror:    No*
G04 Mode:      Positive*
G04 Rotation:  0*
G04 FullContactRelief:  No*
G04 UndefLineWidth:     0.2000*
G04 ================== end FILE IDENTIFICATION RECORD ====================*
%FSLAX25Y25*MOMM*%
%IR0*IPPOS*OFA0.00000B0.00000*MIA0B0*SFA1.00000B1.00000*%
%ADD10C,.2*%
G75*
%LPD*%
G75*
G54D10*
G01X180000Y4980000D02*
X600000D01*
Y5850000D01*
X170000D01*
Y4980000D01*
X180000D01*
G01X200000Y4950000D02*
X580000D01*
G01X200000Y6090000D02*
X300000D01*
Y6170000D01*
X340000D01*
Y6360000D01*
X300000D01*
Y6440000D01*
X200000D01*
Y6360000D01*
X160000D01*
Y6170000D01*
X200000D01*
Y6090000D01*
G01X190000Y6230000D02*
X310000D01*
G01Y6300000D02*
X190000D01*
X250000Y6240000D01*
X310000Y6300000D01*
G01X350000Y6870000D02*
X150000D01*
Y6540000D01*
X350000D01*
Y6870000D01*
G01X330000Y6900000D02*
X170000D01*
G01X350000Y7320000D02*
X150000D01*
Y6990000D01*
X350000D01*
Y7320000D01*
G01X330000Y7350000D02*
X170000D01*
G01X580000Y4820000D02*
Y4660000D01*
G01X1400000Y6240000D02*
X1480000D01*
X1560000Y6160000D01*
Y6130000D01*
X1600000Y6090000D01*
Y5350000D01*
X1410000D01*
Y4970000D01*
X1250000D01*
Y5350000D01*
X970000D01*
Y4950000D01*
X770000D01*
Y5350000D01*
X600000D01*
Y6090000D01*
X640000Y6130000D01*
Y6160000D01*
X720000Y6240000D01*
X1400000D01*
G01X610000Y4840000D02*
Y4640000D01*
X940000D01*
Y4840000D01*
X610000D01*
G01X1320000Y3570000D02*
X1480000D01*
G01X1300000Y3600000D02*
X1500000D01*
Y3930000D01*
X1300000D01*
Y3600000D01*
G01X1540000Y3480000D02*
X1700000D01*
G01X1520000Y3510000D02*
X1720000D01*
Y3840000D01*
X1520000D01*
Y3510000D01*
G01X1740000Y3410000D02*
X1940000D01*
Y3740000D01*
X1740000D01*
Y3410000D01*
G01X1760000Y3380000D02*
X1920000D01*
G01X1880000Y4980000D02*
X2300000D01*
Y5850000D01*
X1870000D01*
Y4980000D01*
X1880000D01*
G01X1900000Y6090000D02*
X2000000D01*
Y6170000D01*
X2040000D01*
Y6360000D01*
X2000000D01*
Y6440000D01*
X1900000D01*
Y6360000D01*
X1860000D01*
Y6170000D01*
X1900000D01*
Y6090000D01*
G01X2050000Y6870000D02*
X1850000D01*
Y6540000D01*
X2050000D01*
Y6870000D01*
G01X2030000Y6900000D02*
X1870000D01*
G01X2050000Y7320000D02*
X1850000D01*
Y6990000D01*
X2050000D01*
Y7320000D01*
G01X2030000Y7350000D02*
X1870000D01*
G01X1900000Y4950000D02*
X2280000D01*
G01X2010000Y6300000D02*
X1890000D01*
X1950000Y6240000D01*
X2010000Y6300000D01*
G01X1890000Y6230000D02*
X2010000D01*
G01X2160000Y3640000D02*
X1960000D01*
Y3310000D01*
X2160000D01*
Y3640000D01*
G01X2140000Y3670000D02*
X1980000D01*
G01X2380000Y2900000D02*
Y3100000D01*
X2050000D01*
Y2900000D01*
X2380000D01*
G01X2260000Y3775000D02*
X2165000D01*
G01X2280000Y4860000D02*
Y4700000D01*
G01X2310000Y4880000D02*
Y4680000D01*
X2640000D01*
Y4880000D01*
X2310000D01*
G01X3100000Y6240000D02*
X3180000D01*
X3260000Y6160000D01*
Y6130000D01*
X3300000Y6090000D01*
Y5350000D01*
X3110000D01*
Y4970000D01*
X2950000D01*
Y5350000D01*
X2670000D01*
Y4950000D01*
X2470000D01*
Y5350000D01*
X2300000D01*
Y6090000D01*
X2340000Y6130000D01*
Y6160000D01*
X2420000Y6240000D01*
X3100000D01*
G01X2410000Y2920000D02*
Y3080000D01*
G01X2830000Y750000D02*
Y950000D01*
X2500000D01*
Y750000D01*
X2830000D01*
G01X2960000Y430000D02*
Y630000D01*
X2630000D01*
Y430000D01*
X2960000D01*
G01X2775000Y4335000D02*
Y4450000D01*
G01X2860000Y770000D02*
Y930000D01*
G01X2830000D02*
Y770000D01*
G01X2860000Y950000D02*
Y750000D01*
X3190000D01*
Y950000D01*
X2860000D01*
G01X3010000Y2560000D02*
X2810000D01*
Y2230000D01*
X3010000D01*
Y2560000D01*
G01X2990000Y2590000D02*
X2830000D01*
G01X2825000Y3265000D02*
Y3185000D01*
G01X2990000Y450000D02*
Y610000D01*
G01X3345000Y3825000D02*
X3425000D01*
G01X3520000Y4300000D02*
Y4140000D01*
G01X3550000Y4320000D02*
Y4120000D01*
X3880000D01*
Y4320000D01*
X3550000D01*
G01X3580000Y4980000D02*
X4000000D01*
Y5850000D01*
X3570000D01*
Y4980000D01*
X3580000D01*
G01X3600000Y4950000D02*
X3980000D01*
G01X3600000Y6090000D02*
X3700000D01*
Y6170000D01*
X3740000D01*
Y6360000D01*
X3700000D01*
Y6440000D01*
X3600000D01*
Y6360000D01*
X3560000D01*
Y6170000D01*
X3600000D01*
Y6090000D01*
G01X3590000Y6230000D02*
X3710000D01*
G01Y6300000D02*
X3590000D01*
X3650000Y6240000D01*
X3710000Y6300000D01*
G01X3750000Y6870000D02*
X3550000D01*
Y6540000D01*
X3750000D01*
Y6870000D01*
G01X3730000Y6900000D02*
X3570000D01*
G01X3750000Y7320000D02*
X3550000D01*
Y6990000D01*
X3750000D01*
Y7320000D01*
G01X3730000Y7350000D02*
X3570000D01*
G01X4060000Y3180000D02*
Y3380000D01*
X3730000D01*
Y3180000D01*
X4060000D01*
G01X3730000Y3600000D02*
Y3400000D01*
X4060000D01*
Y3600000D01*
X3730000D01*
G01X3700000Y3580000D02*
Y3420000D01*
G01X4060000Y3620000D02*
Y3820000D01*
X3730000D01*
Y3620000D01*
X4060000D01*
G01X3730000Y4070000D02*
Y3870000D01*
X4060000D01*
Y4070000D01*
X3730000D01*
G01X3700000Y4050000D02*
Y3890000D01*
G01X4050000Y4660000D02*
Y4860000D01*
X3720000D01*
Y4660000D01*
X4050000D01*
G01X4800000Y6240000D02*
X4880000D01*
X4960000Y6160000D01*
Y6130000D01*
X5000000Y6090000D01*
Y5350000D01*
X4810000D01*
Y4970000D01*
X4650000D01*
Y5350000D01*
X4370000D01*
Y4950000D01*
X4170000D01*
Y5350000D01*
X4000000D01*
Y6090000D01*
X4040000Y6130000D01*
Y6160000D01*
X4120000Y6240000D01*
X4800000D01*
G01X4090000Y3200000D02*
Y3360000D01*
G01Y3640000D02*
Y3800000D01*
G01X4080000Y4680000D02*
Y4840000D01*
G01X4480000Y2200000D02*
X4280000D01*
Y1870000D01*
X4480000D01*
Y2200000D01*
G01X4460000Y2230000D02*
X4300000D01*
G01X100000Y0D02*
X4950000D01*
G03X5050000Y100000I0J100000D01*
G01Y7400000D01*
G03X4950000Y7500000I-100000J0D01*
G01X100000D01*
G03X0Y7400000I0J-100000D01*
G01Y100000D01*
G03X100000Y0I100000J0D01*
G01X120000Y6773230D02*
X56500D01*
Y6756290D01*
X59680Y6750870D01*
X63910Y6747490D01*
X72380Y6746130D01*
X80840Y6747490D01*
X86130Y6751550D01*
X89310Y6756290D01*
Y6773230D01*
G01Y6756290D02*
X120000Y6746130D01*
G01X67080Y6716670D02*
X60730Y6712610D01*
X57560Y6707860D01*
X56500Y6702450D01*
X58620Y6695670D01*
X63910Y6690930D01*
X70260Y6689580D01*
X76610Y6690250D01*
X81900Y6692960D01*
X92480Y6706510D01*
X99890Y6712610D01*
X110480Y6716670D01*
X120000Y6718020D01*
Y6689580D01*
G01X67080Y6660790D02*
X60730Y6656730D01*
X57560Y6651980D01*
X56500Y6646570D01*
X58620Y6639790D01*
X63910Y6635050D01*
X70260Y6633700D01*
X76610Y6634370D01*
X81900Y6637080D01*
X92480Y6650630D01*
X99890Y6656730D01*
X110480Y6660790D01*
X120000Y6662140D01*
Y6633700D01*
G01Y7270260D02*
X41260D01*
Y7245920D01*
X45200Y7238130D01*
X50450Y7233260D01*
X60950Y7231320D01*
X71440Y7233260D01*
X78000Y7239110D01*
X81940Y7245920D01*
Y7270260D01*
G01Y7245920D02*
X120000Y7231320D01*
G01X54380Y7190550D02*
X46510Y7184710D01*
X42570Y7177890D01*
X41260Y7170100D01*
X43880Y7160370D01*
X50450Y7153550D01*
X58320Y7151600D01*
X66200Y7152580D01*
X72760Y7156470D01*
X85880Y7175940D01*
X95070Y7184710D01*
X108190Y7190550D01*
X120000Y7192500D01*
Y7151600D01*
G01X41260Y7093310D02*
X43880Y7101100D01*
X50450Y7106940D01*
X58320Y7110840D01*
X68820Y7113760D01*
X80630Y7114730D01*
X92440Y7113760D01*
X102940Y7110840D01*
X110820Y7106940D01*
X117380Y7101100D01*
X120000Y7093310D01*
X117380Y7085520D01*
X110820Y7079680D01*
X102940Y7075780D01*
X92440Y7072860D01*
X80630Y7071890D01*
X68820Y7072860D01*
X58320Y7075780D01*
X50450Y7079680D01*
X43880Y7085520D01*
X41260Y7093310D01*
G01X410260Y4800000D02*
Y4878740D01*
X385920D01*
X378130Y4874800D01*
X373260Y4869550D01*
X371320Y4859050D01*
X373260Y4848560D01*
X379110Y4842000D01*
X385920Y4838060D01*
X410260D01*
G01X385920D02*
X371320Y4800000D01*
G01X330550Y4865620D02*
X324710Y4873490D01*
X317890Y4877430D01*
X310100Y4878740D01*
X300370Y4876120D01*
X293550Y4869550D01*
X291600Y4861680D01*
X292580Y4853800D01*
X296470Y4847240D01*
X315940Y4834120D01*
X324710Y4824930D01*
X330550Y4811810D01*
X332500Y4800000D01*
X291600D01*
G01X254730Y4815750D02*
X248890Y4806560D01*
X241100Y4801310D01*
X232340Y4800000D01*
X224550Y4801310D01*
X216760Y4807870D01*
X211890Y4815750D01*
X210920Y4823620D01*
X212860Y4832810D01*
X219680Y4839370D01*
X226490Y4842000D01*
X235260D01*
G01X226490D02*
X220650Y4845930D01*
X215780Y4852490D01*
X213840Y4860370D01*
X215780Y4868240D01*
X220650Y4874800D01*
X229420Y4878740D01*
X238180Y4877430D01*
X246940Y4872180D01*
G01X502490Y3125390D02*
Y3096190D01*
X450000Y3125390D01*
Y3096190D01*
G01X502490Y3048600D02*
X465750D01*
X456560Y3044710D01*
X451310Y3038870D01*
X450000Y3032050D01*
X451310Y3025230D01*
X456560Y3019390D01*
X465750Y3015500D01*
G01X450000D02*
X502490D01*
G01X450000Y2953310D02*
X528740D01*
G01X450000Y2874570D02*
X451310Y2880410D01*
X456560Y2886250D01*
X465750Y2890150D01*
X476250Y2892100D01*
X486740Y2890150D01*
X495930Y2886250D01*
X501180Y2880410D01*
X502490Y2874570D01*
X501180Y2868730D01*
X495930Y2862890D01*
X486740Y2858990D01*
X476250Y2858020D01*
X465750Y2858990D01*
X456560Y2862890D01*
X451310Y2868730D01*
X450000Y2874570D01*
G01Y2795830D02*
X528740D01*
G01X450000Y2717090D02*
X451310Y2722930D01*
X456560Y2728770D01*
X465750Y2732670D01*
X476250Y2734620D01*
X486740Y2732670D01*
X495930Y2728770D01*
X501180Y2722930D01*
X502490Y2717090D01*
X501180Y2711250D01*
X495930Y2705410D01*
X486740Y2701510D01*
X476250Y2700540D01*
X465750Y2701510D01*
X456560Y2705410D01*
X451310Y2711250D01*
X450000Y2717090D01*
G01X515620Y2578110D02*
X523490Y2572270D01*
X527430Y2565450D01*
X528740Y2557660D01*
X526120Y2547930D01*
X519550Y2541110D01*
X511680Y2539160D01*
X503800Y2540140D01*
X497240Y2544030D01*
X484120Y2563500D01*
X474930Y2572270D01*
X461810Y2578110D01*
X450000Y2580060D01*
Y2539160D01*
G01X528740Y2480870D02*
X526120Y2488660D01*
X519550Y2494500D01*
X511680Y2498400D01*
X501180Y2501320D01*
X489370Y2502290D01*
X477560Y2501320D01*
X467060Y2498400D01*
X459180Y2494500D01*
X452620Y2488660D01*
X450000Y2480870D01*
X452620Y2473080D01*
X459180Y2467240D01*
X467060Y2463340D01*
X477560Y2460420D01*
X489370Y2459450D01*
X501180Y2460420D01*
X511680Y2463340D01*
X519550Y2467240D01*
X526120Y2473080D01*
X528740Y2480870D01*
G01X450000Y2402130D02*
X528740D01*
X512990Y2413810D01*
G01X450000D02*
Y2390450D01*
G01Y2323390D02*
X451310Y2316570D01*
X455250Y2308790D01*
X461810Y2303920D01*
X471000Y2301970D01*
X480180Y2303920D01*
X488060Y2309760D01*
X492000Y2318520D01*
Y2328260D01*
X494620Y2334100D01*
X501180Y2338970D01*
X510370Y2340920D01*
X519550Y2337990D01*
X526120Y2331180D01*
X528740Y2323390D01*
X526120Y2315600D01*
X519550Y2308790D01*
X510370Y2305860D01*
X501180Y2307810D01*
X494620Y2312680D01*
X492000Y2318520D01*
Y2328260D01*
X488060Y2337020D01*
X480180Y2342860D01*
X471000Y2344810D01*
X461810Y2342860D01*
X455250Y2337990D01*
X451310Y2330210D01*
X450000Y2323390D01*
G01X528740Y2244650D02*
X526120Y2252440D01*
X519550Y2258280D01*
X511680Y2262180D01*
X501180Y2265100D01*
X489370Y2266070D01*
X477560Y2265100D01*
X467060Y2262180D01*
X459180Y2258280D01*
X452620Y2252440D01*
X450000Y2244650D01*
X452620Y2236860D01*
X459180Y2231020D01*
X467060Y2227120D01*
X477560Y2224200D01*
X489370Y2223230D01*
X501180Y2224200D01*
X511680Y2227120D01*
X519550Y2231020D01*
X526120Y2236860D01*
X528740Y2244650D01*
G01X450000Y2165910D02*
X528740D01*
X512990Y2177590D01*
G01X450000D02*
Y2154230D01*
G01X528740Y2087170D02*
X526120Y2094960D01*
X519550Y2100800D01*
X511680Y2104700D01*
X501180Y2107620D01*
X489370Y2108590D01*
X477560Y2107620D01*
X467060Y2104700D01*
X459180Y2100800D01*
X452620Y2094960D01*
X450000Y2087170D01*
X452620Y2079380D01*
X459180Y2073540D01*
X467060Y2069640D01*
X477560Y2066720D01*
X489370Y2065750D01*
X501180Y2066720D01*
X511680Y2069640D01*
X519550Y2073540D01*
X526120Y2079380D01*
X528740Y2087170D01*
G01X450000Y2008430D02*
X451310Y2001610D01*
X455250Y1993830D01*
X461810Y1988960D01*
X471000Y1987010D01*
X480180Y1988960D01*
X488060Y1994800D01*
X492000Y2003560D01*
Y2013300D01*
X494620Y2019140D01*
X501180Y2024010D01*
X510370Y2025960D01*
X519550Y2023030D01*
X526120Y2016220D01*
X528740Y2008430D01*
X526120Y2000640D01*
X519550Y1993830D01*
X510370Y1990900D01*
X501180Y1992850D01*
X494620Y1997720D01*
X492000Y2003560D01*
Y2013300D01*
X488060Y2022060D01*
X480180Y2027900D01*
X471000Y2029850D01*
X461810Y2027900D01*
X455250Y2023030D01*
X451310Y2015250D01*
X450000Y2008430D01*
G01X582210Y6260000D02*
Y6338740D01*
X562740D01*
X554950Y6334800D01*
X549110Y6329550D01*
X544240Y6321680D01*
X540340Y6312490D01*
X539370Y6299370D01*
X540340Y6286250D01*
X544240Y6277060D01*
X549110Y6269180D01*
X554950Y6263940D01*
X562740Y6260000D01*
X582210D01*
G01X470370D02*
Y6338740D01*
X506390Y6282310D01*
X457710D01*
G01X768740Y3520790D02*
X690000D01*
G01X768740Y3543180D02*
Y3498400D01*
G01Y3453730D02*
Y3430370D01*
G01Y3442050D02*
X690000D01*
G01Y3453730D02*
Y3430370D01*
G01X768740Y3296250D02*
Y3272890D01*
G01Y3284570D02*
X690000D01*
G01Y3296250D02*
Y3272890D01*
G01Y3222380D02*
X742490D01*
G01X729370D02*
X735930Y3218490D01*
X741180Y3212650D01*
X742490Y3204860D01*
X741180Y3198040D01*
X735930Y3192200D01*
X726740Y3189280D01*
X690000D01*
G01X699180Y3141690D02*
X693940Y3136830D01*
X690000Y3130010D01*
Y3124170D01*
X692620Y3118330D01*
X696560Y3114430D01*
X701810Y3112490D01*
X709690Y3113460D01*
X713620Y3117350D01*
X721490Y3134880D01*
X730680Y3138770D01*
X737240Y3136830D01*
X741180Y3132930D01*
X742490Y3127090D01*
X741180Y3121250D01*
X737240Y3115410D01*
G01X768740Y3048350D02*
X690000D01*
G01X742490Y3061980D02*
Y3034720D01*
G01X690000Y2952080D02*
X742490D01*
G01X733310D02*
X738560Y2955980D01*
X741180Y2961820D01*
X742490Y2968640D01*
X739870Y2975450D01*
X734620Y2981290D01*
X726740Y2985190D01*
X716250Y2987140D01*
X705750Y2985190D01*
X697870Y2981290D01*
X692620Y2975450D01*
X690000Y2968640D01*
X691310Y2961820D01*
X695250Y2955980D01*
X700500Y2952080D01*
G01Y2911320D02*
X693940Y2903530D01*
X690000Y2894760D01*
Y2886980D01*
X693940Y2879190D01*
X700500Y2873340D01*
X709690Y2870420D01*
X718870Y2872370D01*
X726740Y2877240D01*
X732000Y2886000D01*
X734620Y2897690D01*
X739870Y2904500D01*
X749050Y2907420D01*
X758240Y2905470D01*
X764800Y2900610D01*
X768740Y2893790D01*
Y2886980D01*
X766120Y2880160D01*
X759550Y2874320D01*
G01X690000Y2831600D02*
X768740D01*
Y2808240D01*
X764800Y2800450D01*
X755620Y2794600D01*
X745120Y2792660D01*
X734620Y2794600D01*
X726740Y2799470D01*
X722810Y2808240D01*
Y2831600D01*
G01X768740Y2745070D02*
Y2721710D01*
G01Y2733390D02*
X690000D01*
G01Y2745070D02*
Y2721710D01*
G01Y2677040D02*
X768740D01*
X690000Y2632260D01*
X768740D01*
G01X690000Y2515670D02*
X768740D01*
Y2478670D01*
G01X730680Y2492300D02*
Y2515670D01*
G01X690000Y2418430D02*
X691310Y2426220D01*
X696560Y2433030D01*
X704430Y2438880D01*
X713620Y2442770D01*
X724120Y2444720D01*
X734620D01*
X745120Y2442770D01*
X754310Y2438880D01*
X762180Y2433030D01*
X767430Y2426220D01*
X768740Y2418430D01*
X767430Y2410640D01*
X762180Y2403830D01*
X754310Y2397980D01*
X745120Y2394090D01*
X734620Y2392140D01*
X724120D01*
X713620Y2394090D01*
X704430Y2397980D01*
X696560Y2403830D01*
X691310Y2410640D01*
X690000Y2418430D01*
G01X762180Y2318270D02*
X766120Y2324110D01*
X768740Y2330930D01*
Y2338720D01*
X764800Y2347480D01*
X758240Y2354290D01*
X750370Y2359160D01*
X737240Y2363060D01*
X725430Y2364030D01*
X713620Y2362080D01*
X705750Y2359160D01*
X697870Y2353320D01*
X692620Y2346510D01*
X690000Y2339690D01*
Y2332870D01*
X692620Y2326060D01*
X696560Y2320220D01*
X701810Y2315350D01*
G01X690000Y2203630D02*
X768740D01*
Y2184160D01*
X764800Y2176370D01*
X759550Y2170530D01*
X751680Y2165660D01*
X742490Y2161760D01*
X729370Y2160790D01*
X716250Y2161760D01*
X707060Y2165660D01*
X699180Y2170530D01*
X693940Y2176370D01*
X690000Y2184160D01*
Y2203630D01*
G01Y2122940D02*
X768740D01*
Y2098600D01*
X764800Y2090810D01*
X759550Y2085940D01*
X749050Y2084000D01*
X738560Y2085940D01*
X732000Y2091790D01*
X728060Y2098600D01*
Y2122940D01*
G01Y2098600D02*
X690000Y2084000D01*
G01X768740Y2049070D02*
X690000Y2024730D01*
X768740Y2000390D01*
G01X690000Y1945990D02*
X691310Y1939170D01*
X695250Y1931390D01*
X701810Y1926520D01*
X711000Y1924570D01*
X720180Y1926520D01*
X728060Y1932360D01*
X732000Y1941120D01*
Y1950860D01*
X734620Y1956700D01*
X741180Y1961570D01*
X750370Y1963520D01*
X759550Y1960590D01*
X766120Y1953780D01*
X768740Y1945990D01*
X766120Y1938200D01*
X759550Y1931390D01*
X750370Y1928460D01*
X741180Y1930410D01*
X734620Y1935280D01*
X732000Y1941120D01*
Y1950860D01*
X728060Y1959620D01*
X720180Y1965460D01*
X711000Y1967410D01*
X701810Y1965460D01*
X695250Y1960590D01*
X691310Y1952810D01*
X690000Y1945990D01*
G01X705750Y1888670D02*
X696560Y1882830D01*
X691310Y1875040D01*
X690000Y1866280D01*
X691310Y1858490D01*
X697870Y1850700D01*
X705750Y1845830D01*
X713620Y1844860D01*
X722810Y1846800D01*
X729370Y1853620D01*
X732000Y1860430D01*
Y1869200D01*
G01Y1860430D02*
X735930Y1854590D01*
X742490Y1849720D01*
X750370Y1847780D01*
X758240Y1849720D01*
X764800Y1854590D01*
X768740Y1863360D01*
X767430Y1872120D01*
X762180Y1880880D01*
G01X768740Y1788510D02*
X766120Y1796300D01*
X759550Y1802140D01*
X751680Y1806040D01*
X741180Y1808960D01*
X729370Y1809930D01*
X717560Y1808960D01*
X707060Y1806040D01*
X699180Y1802140D01*
X692620Y1796300D01*
X690000Y1788510D01*
X692620Y1780720D01*
X699180Y1774880D01*
X707060Y1770980D01*
X717560Y1768060D01*
X729370Y1767090D01*
X741180Y1768060D01*
X751680Y1770980D01*
X759550Y1774880D01*
X766120Y1780720D01*
X768740Y1788510D01*
G01X701810Y1731190D02*
X695250Y1725350D01*
X691310Y1718530D01*
X690000Y1709770D01*
X692620Y1701010D01*
X697870Y1694190D01*
X707060Y1689320D01*
X717560Y1688350D01*
X728060Y1690300D01*
X734620Y1695170D01*
X739870Y1701980D01*
X741180Y1708800D01*
X739870Y1715610D01*
X734620Y1724370D01*
X768740Y1721450D01*
Y1695170D01*
G01X839370Y4582180D02*
X845210Y4586120D01*
X852030Y4588740D01*
X859820D01*
X868580Y4584800D01*
X875390Y4578240D01*
X880260Y4570370D01*
X884160Y4557240D01*
X885130Y4545430D01*
X883180Y4533620D01*
X880260Y4525750D01*
X874420Y4517870D01*
X867610Y4512620D01*
X860790Y4510000D01*
X853970D01*
X847160Y4512620D01*
X841320Y4516560D01*
X836450Y4521810D01*
G01X800550Y4575620D02*
X794710Y4583490D01*
X787890Y4587430D01*
X780100Y4588740D01*
X770370Y4586120D01*
X763550Y4579550D01*
X761600Y4571680D01*
X762580Y4563800D01*
X766470Y4557240D01*
X785940Y4544120D01*
X794710Y4534930D01*
X800550Y4521810D01*
X802500Y4510000D01*
X761600D01*
G01X691630D02*
Y4588740D01*
X727650Y4532310D01*
X678970D01*
G01X1546110Y4810000D02*
Y4888740D01*
X1520790Y4823120D01*
X1495470Y4888740D01*
Y4810000D01*
G01X1442050D02*
X1449840Y4811310D01*
X1456650Y4816560D01*
X1462500Y4824430D01*
X1466390Y4833620D01*
X1468340Y4844120D01*
Y4854620D01*
X1466390Y4865120D01*
X1462500Y4874310D01*
X1456650Y4882180D01*
X1449840Y4887430D01*
X1442050Y4888740D01*
X1434260Y4887430D01*
X1427450Y4882180D01*
X1421600Y4874310D01*
X1417710Y4865120D01*
X1415760Y4854620D01*
Y4844120D01*
X1417710Y4833620D01*
X1421600Y4824430D01*
X1427450Y4816560D01*
X1434260Y4811310D01*
X1442050Y4810000D01*
G01X1383760Y4820500D02*
X1375970Y4813940D01*
X1367200Y4810000D01*
X1359420D01*
X1351630Y4813940D01*
X1345780Y4820500D01*
X1342860Y4829690D01*
X1344810Y4838870D01*
X1349680Y4846740D01*
X1358440Y4852000D01*
X1370130Y4854620D01*
X1376940Y4859870D01*
X1379860Y4869050D01*
X1377910Y4878240D01*
X1373050Y4884800D01*
X1366230Y4888740D01*
X1359420D01*
X1352600Y4886120D01*
X1346760Y4879550D01*
G01X1303070Y4810000D02*
Y4888740D01*
X1266070D01*
G01X1279700Y4850680D02*
X1303070D01*
G01X1186360Y4810000D02*
X1225300D01*
Y4888740D01*
X1186360D01*
G01X1201940Y4850680D02*
X1225300D01*
G01X1127090Y4888740D02*
Y4810000D01*
G01X1149480Y4888740D02*
X1104700D01*
G01X1066850Y4842810D02*
X1060030Y4852000D01*
X1054190Y4857240D01*
X1046400Y4859870D01*
X1039590Y4857240D01*
X1034720Y4852000D01*
X1030820Y4844120D01*
X1029850Y4834930D01*
X1030820Y4827060D01*
X1034720Y4819180D01*
X1040560Y4812620D01*
X1047380Y4810000D01*
X1055170Y4812620D01*
X1061980Y4820500D01*
X1065880Y4832310D01*
X1066850Y4845430D01*
X1064900Y4862490D01*
X1061980Y4871680D01*
X1057110Y4880870D01*
X1050300Y4887430D01*
X1043480Y4888740D01*
X1036670Y4886120D01*
X1031800Y4879550D01*
G01X1490260Y3980000D02*
Y4058740D01*
X1465920D01*
X1458130Y4054800D01*
X1453260Y4049550D01*
X1451320Y4039050D01*
X1453260Y4028560D01*
X1459110Y4022000D01*
X1465920Y4018060D01*
X1490260D01*
G01X1465920D02*
X1451320Y3980000D01*
G01X1392050D02*
Y4058740D01*
X1403730Y4042990D01*
G01Y3980000D02*
X1380370D01*
G01X1329860Y3989180D02*
X1323050Y3982620D01*
X1315260Y3980000D01*
X1307470Y3982620D01*
X1300650Y3990500D01*
X1295780Y4002310D01*
X1293840Y4014120D01*
Y4028560D01*
X1295780Y4040370D01*
X1300650Y4050870D01*
X1306490Y4056120D01*
X1313310Y4058740D01*
X1321100Y4056120D01*
X1326940Y4050870D01*
X1330840Y4042990D01*
X1332780Y4032490D01*
X1330840Y4023310D01*
X1325970Y4014120D01*
X1320130Y4008870D01*
X1313310Y4007560D01*
X1305520Y4010180D01*
X1299680Y4016740D01*
X1293840Y4028560D01*
G01X1680260Y3350000D02*
Y3428740D01*
X1655920D01*
X1648130Y3424800D01*
X1643260Y3419550D01*
X1641320Y3409050D01*
X1643260Y3398560D01*
X1649110Y3392000D01*
X1655920Y3388060D01*
X1680260D01*
G01X1655920D02*
X1641320Y3350000D01*
G01X1582050D02*
Y3428740D01*
X1593730Y3412990D01*
G01Y3350000D02*
X1570370D01*
G01X1503310D02*
X1496490Y3351310D01*
X1488710Y3355250D01*
X1483840Y3361810D01*
X1481890Y3371000D01*
X1483840Y3380180D01*
X1489680Y3388060D01*
X1498440Y3392000D01*
X1508180D01*
X1514020Y3394620D01*
X1518890Y3401180D01*
X1520840Y3410370D01*
X1517910Y3419550D01*
X1511100Y3426120D01*
X1503310Y3428740D01*
X1495520Y3426120D01*
X1488710Y3419550D01*
X1485780Y3410370D01*
X1487730Y3401180D01*
X1492600Y3394620D01*
X1498440Y3392000D01*
X1508180D01*
X1516940Y3388060D01*
X1522780Y3380180D01*
X1524730Y3371000D01*
X1522780Y3361810D01*
X1517910Y3355250D01*
X1510130Y3351310D01*
X1503310Y3350000D01*
G01X1800260Y5050000D02*
Y5128740D01*
X1775920D01*
X1768130Y5124800D01*
X1763260Y5119550D01*
X1761320Y5109050D01*
X1763260Y5098560D01*
X1769110Y5092000D01*
X1775920Y5088060D01*
X1800260D01*
G01X1775920D02*
X1761320Y5050000D01*
G01X1702050D02*
Y5128740D01*
X1713730Y5112990D01*
G01Y5050000D02*
X1690370D01*
G01X1641810Y5082810D02*
X1634990Y5092000D01*
X1629150Y5097240D01*
X1621360Y5099870D01*
X1614550Y5097240D01*
X1609680Y5092000D01*
X1605780Y5084120D01*
X1604810Y5074930D01*
X1605780Y5067060D01*
X1609680Y5059180D01*
X1615520Y5052620D01*
X1622340Y5050000D01*
X1630130Y5052620D01*
X1636940Y5060500D01*
X1640840Y5072310D01*
X1641810Y5085430D01*
X1639860Y5102490D01*
X1636940Y5111680D01*
X1632070Y5120870D01*
X1625260Y5127430D01*
X1618440Y5128740D01*
X1611630Y5126120D01*
X1606760Y5119550D01*
G01X1790260Y7120000D02*
Y7198740D01*
X1765920D01*
X1758130Y7194800D01*
X1753260Y7189550D01*
X1751320Y7179050D01*
X1753260Y7168560D01*
X1759110Y7162000D01*
X1765920Y7158060D01*
X1790260D01*
G01X1765920D02*
X1751320Y7120000D01*
G01X1692050D02*
Y7198740D01*
X1703730Y7182990D01*
G01Y7120000D02*
X1680370D01*
G01X1631810Y7185620D02*
X1625970Y7193490D01*
X1619150Y7197430D01*
X1611360Y7198740D01*
X1601630Y7196120D01*
X1594810Y7189550D01*
X1592860Y7181680D01*
X1593840Y7173800D01*
X1597730Y7167240D01*
X1617200Y7154120D01*
X1625970Y7144930D01*
X1631810Y7131810D01*
X1633760Y7120000D01*
X1592860D01*
G01X1667790Y6320000D02*
Y6241260D01*
X1687260D01*
X1695050Y6245200D01*
X1700890Y6250450D01*
X1705760Y6258320D01*
X1709660Y6267510D01*
X1710630Y6280630D01*
X1709660Y6293750D01*
X1705760Y6302940D01*
X1700890Y6310820D01*
X1695050Y6316060D01*
X1687260Y6320000D01*
X1667790D01*
G01X1746530Y6304250D02*
X1752370Y6313440D01*
X1760160Y6318690D01*
X1768920Y6320000D01*
X1776710Y6318690D01*
X1784500Y6312130D01*
X1789370Y6304250D01*
X1790340Y6296380D01*
X1788400Y6287190D01*
X1781580Y6280630D01*
X1774770Y6278000D01*
X1766000D01*
G01X1774770D02*
X1780610Y6274070D01*
X1785480Y6267510D01*
X1787420Y6259630D01*
X1785480Y6251760D01*
X1780610Y6245200D01*
X1771840Y6241260D01*
X1763080Y6242570D01*
X1754320Y6247820D01*
G01X1805430Y6742200D02*
Y6805700D01*
X1788490D01*
X1783070Y6802520D01*
X1779690Y6798290D01*
X1778330Y6789820D01*
X1779690Y6781360D01*
X1783750Y6776070D01*
X1788490Y6772890D01*
X1805430D01*
G01X1788490D02*
X1778330Y6742200D01*
G01X1736000D02*
Y6805700D01*
X1744130Y6793000D01*
G01Y6742200D02*
X1727870D01*
G01X1671990D02*
Y6805700D01*
X1697050Y6760190D01*
X1663190D01*
G01X1970260Y3800000D02*
Y3878740D01*
X1945920D01*
X1938130Y3874800D01*
X1933260Y3869550D01*
X1931320Y3859050D01*
X1933260Y3848560D01*
X1939110Y3842000D01*
X1945920Y3838060D01*
X1970260D01*
G01X1945920D02*
X1931320Y3800000D01*
G01X1872050D02*
Y3878740D01*
X1883730Y3862990D01*
G01Y3800000D02*
X1860370D01*
G01X1795260D02*
X1793310Y3817060D01*
X1790390Y3831490D01*
X1786490Y3844620D01*
X1781630Y3859050D01*
X1773840Y3878740D01*
X1812780D01*
G01X2169370Y4712180D02*
X2175210Y4716120D01*
X2182030Y4718740D01*
X2189820D01*
X2198580Y4714800D01*
X2205390Y4708240D01*
X2210260Y4700370D01*
X2214160Y4687240D01*
X2215130Y4675430D01*
X2213180Y4663620D01*
X2210260Y4655750D01*
X2204420Y4647870D01*
X2197610Y4642620D01*
X2190790Y4640000D01*
X2183970D01*
X2177160Y4642620D01*
X2171320Y4646560D01*
X2166450Y4651810D01*
G01X2130550Y4705620D02*
X2124710Y4713490D01*
X2117890Y4717430D01*
X2110100Y4718740D01*
X2100370Y4716120D01*
X2093550Y4709550D01*
X2091600Y4701680D01*
X2092580Y4693800D01*
X2096470Y4687240D01*
X2115940Y4674120D01*
X2124710Y4664930D01*
X2130550Y4651810D01*
X2132500Y4640000D01*
X2091600D01*
G01X2054730Y4655750D02*
X2048890Y4646560D01*
X2041100Y4641310D01*
X2032340Y4640000D01*
X2024550Y4641310D01*
X2016760Y4647870D01*
X2011890Y4655750D01*
X2010920Y4663620D01*
X2012860Y4672810D01*
X2019680Y4679370D01*
X2026490Y4682000D01*
X2035260D01*
G01X2026490D02*
X2020650Y4685930D01*
X2015780Y4692490D01*
X2013840Y4700370D01*
X2015780Y4708240D01*
X2020650Y4714800D01*
X2029420Y4718740D01*
X2038180Y4717430D01*
X2046940Y4712180D01*
G01X2220790Y3820000D02*
Y3898740D01*
X2232470Y3882990D01*
G01Y3820000D02*
X2209110D01*
G01X2142050D02*
X2135230Y3821310D01*
X2127450Y3825250D01*
X2122580Y3831810D01*
X2120630Y3841000D01*
X2122580Y3850180D01*
X2128420Y3858060D01*
X2137180Y3862000D01*
X2146920D01*
X2152760Y3864620D01*
X2157630Y3871180D01*
X2159580Y3880370D01*
X2156650Y3889550D01*
X2149840Y3896120D01*
X2142050Y3898740D01*
X2134260Y3896120D01*
X2127450Y3889550D01*
X2124520Y3880370D01*
X2126470Y3871180D01*
X2131340Y3864620D01*
X2137180Y3862000D01*
X2146920D01*
X2155680Y3858060D01*
X2161520Y3850180D01*
X2163470Y3841000D01*
X2161520Y3831810D01*
X2156650Y3825250D01*
X2148870Y3821310D01*
X2142050Y3820000D01*
G01X2339370Y3282180D02*
X2345210Y3286120D01*
X2352030Y3288740D01*
X2359820D01*
X2368580Y3284800D01*
X2375390Y3278240D01*
X2380260Y3270370D01*
X2384160Y3257240D01*
X2385130Y3245430D01*
X2383180Y3233620D01*
X2380260Y3225750D01*
X2374420Y3217870D01*
X2367610Y3212620D01*
X2360790Y3210000D01*
X2353970D01*
X2347160Y3212620D01*
X2341320Y3216560D01*
X2336450Y3221810D01*
G01X2300550Y3275620D02*
X2294710Y3283490D01*
X2287890Y3287430D01*
X2280100Y3288740D01*
X2270370Y3286120D01*
X2263550Y3279550D01*
X2261600Y3271680D01*
X2262580Y3263800D01*
X2266470Y3257240D01*
X2285940Y3244120D01*
X2294710Y3234930D01*
X2300550Y3221810D01*
X2302500Y3210000D01*
X2261600D01*
G01X2221810Y3275620D02*
X2215970Y3283490D01*
X2209150Y3287430D01*
X2201360Y3288740D01*
X2191630Y3286120D01*
X2184810Y3279550D01*
X2182860Y3271680D01*
X2183840Y3263800D01*
X2187730Y3257240D01*
X2207200Y3244120D01*
X2215970Y3234930D01*
X2221810Y3221810D01*
X2223760Y3210000D01*
X2182860D01*
G01X2402210Y4268740D02*
Y4212310D01*
X2398320Y4200500D01*
X2390530Y4192620D01*
X2380790Y4190000D01*
X2371050Y4192620D01*
X2363260Y4200500D01*
X2359370Y4212310D01*
Y4268740D01*
G01X2302050Y4190000D02*
Y4268740D01*
X2313730Y4252990D01*
G01Y4190000D02*
X2290370D01*
G01X2570260Y1010000D02*
Y1088740D01*
X2545920D01*
X2538130Y1084800D01*
X2533260Y1079550D01*
X2531320Y1069050D01*
X2533260Y1058560D01*
X2539110Y1052000D01*
X2545920Y1048060D01*
X2570260D01*
G01X2545920D02*
X2531320Y1010000D01*
G01X2472050D02*
Y1088740D01*
X2483730Y1072990D01*
G01Y1010000D02*
X2460370D01*
G01X2580260Y2970000D02*
Y3048740D01*
X2555920D01*
X2548130Y3044800D01*
X2543260Y3039550D01*
X2541320Y3029050D01*
X2543260Y3018560D01*
X2549110Y3012000D01*
X2555920Y3008060D01*
X2580260D01*
G01X2555920D02*
X2541320Y2970000D01*
G01X2500550Y3035620D02*
X2494710Y3043490D01*
X2487890Y3047430D01*
X2480100Y3048740D01*
X2470370Y3046120D01*
X2463550Y3039550D01*
X2461600Y3031680D01*
X2462580Y3023800D01*
X2466470Y3017240D01*
X2485940Y3004120D01*
X2494710Y2994930D01*
X2500550Y2981810D01*
X2502500Y2970000D01*
X2461600D01*
G01X2597790Y4444250D02*
X2603630Y4453440D01*
X2611420Y4458690D01*
X2620180Y4460000D01*
X2627970Y4458690D01*
X2635760Y4452130D01*
X2640630Y4444250D01*
X2641600Y4436380D01*
X2639660Y4427190D01*
X2632840Y4420630D01*
X2626030Y4418000D01*
X2617260D01*
G01X2626030D02*
X2631870Y4414070D01*
X2636740Y4407510D01*
X2638680Y4399630D01*
X2636740Y4391760D01*
X2631870Y4385200D01*
X2623100Y4381260D01*
X2614340Y4382570D01*
X2605580Y4387820D01*
G01X2697950Y4381260D02*
X2690160Y4383880D01*
X2684320Y4390450D01*
X2680420Y4398320D01*
X2677500Y4408820D01*
X2676530Y4420630D01*
X2677500Y4432440D01*
X2680420Y4442940D01*
X2684320Y4450820D01*
X2690160Y4457380D01*
X2697950Y4460000D01*
X2705740Y4457380D01*
X2711580Y4450820D01*
X2715480Y4442940D01*
X2718400Y4432440D01*
X2719370Y4420630D01*
X2718400Y4408820D01*
X2715480Y4398320D01*
X2711580Y4390450D01*
X2705740Y4383880D01*
X2697950Y4381260D01*
G01X2699370Y2532180D02*
X2705210Y2536120D01*
X2712030Y2538740D01*
X2719820D01*
X2728580Y2534800D01*
X2735390Y2528240D01*
X2740260Y2520370D01*
X2744160Y2507240D01*
X2745130Y2495430D01*
X2743180Y2483620D01*
X2740260Y2475750D01*
X2734420Y2467870D01*
X2727610Y2462620D01*
X2720790Y2460000D01*
X2713970D01*
X2707160Y2462620D01*
X2701320Y2466560D01*
X2696450Y2471810D01*
G01X2663470D02*
X2657630Y2465250D01*
X2650810Y2461310D01*
X2642050Y2460000D01*
X2633290Y2462620D01*
X2626470Y2467870D01*
X2621600Y2477060D01*
X2620630Y2487560D01*
X2622580Y2498060D01*
X2627450Y2504620D01*
X2634260Y2509870D01*
X2641080Y2511180D01*
X2647890Y2509870D01*
X2656650Y2504620D01*
X2653730Y2538740D01*
X2627450D01*
G01X3236110Y4830000D02*
Y4908740D01*
X3210790Y4843120D01*
X3185470Y4908740D01*
Y4830000D01*
G01X3132050D02*
X3139840Y4831310D01*
X3146650Y4836560D01*
X3152500Y4844430D01*
X3156390Y4853620D01*
X3158340Y4864120D01*
Y4874620D01*
X3156390Y4885120D01*
X3152500Y4894310D01*
X3146650Y4902180D01*
X3139840Y4907430D01*
X3132050Y4908740D01*
X3124260Y4907430D01*
X3117450Y4902180D01*
X3111600Y4894310D01*
X3107710Y4885120D01*
X3105760Y4874620D01*
Y4864120D01*
X3107710Y4853620D01*
X3111600Y4844430D01*
X3117450Y4836560D01*
X3124260Y4831310D01*
X3132050Y4830000D01*
G01X3073760Y4840500D02*
X3065970Y4833940D01*
X3057200Y4830000D01*
X3049420D01*
X3041630Y4833940D01*
X3035780Y4840500D01*
X3032860Y4849690D01*
X3034810Y4858870D01*
X3039680Y4866740D01*
X3048440Y4872000D01*
X3060130Y4874620D01*
X3066940Y4879870D01*
X3069860Y4889050D01*
X3067910Y4898240D01*
X3063050Y4904800D01*
X3056230Y4908740D01*
X3049420D01*
X3042600Y4906120D01*
X3036760Y4899550D01*
G01X2993070Y4830000D02*
Y4908740D01*
X2956070D01*
G01X2969700Y4870680D02*
X2993070D01*
G01X2876360Y4830000D02*
X2915300D01*
Y4908740D01*
X2876360D01*
G01X2891940Y4870680D02*
X2915300D01*
G01X2817090Y4908740D02*
Y4830000D01*
G01X2839480Y4908740D02*
X2794700D01*
G01X2726670Y4830000D02*
Y4908740D01*
X2762690Y4852310D01*
X2714010D01*
G01X2849290Y3092810D02*
X2842470Y3102000D01*
X2836630Y3107240D01*
X2828840Y3109870D01*
X2822030Y3107240D01*
X2817160Y3102000D01*
X2813260Y3094120D01*
X2812290Y3084930D01*
X2813260Y3077060D01*
X2817160Y3069180D01*
X2823000Y3062620D01*
X2829820Y3060000D01*
X2837610Y3062620D01*
X2844420Y3070500D01*
X2848320Y3082310D01*
X2849290Y3095430D01*
X2847340Y3112490D01*
X2844420Y3121680D01*
X2839550Y3130870D01*
X2832740Y3137430D01*
X2825920Y3138740D01*
X2819110Y3136120D01*
X2814240Y3129550D01*
G01X3199370Y462180D02*
X3205210Y466120D01*
X3212030Y468740D01*
X3219820D01*
X3228580Y464800D01*
X3235390Y458240D01*
X3240260Y450370D01*
X3244160Y437240D01*
X3245130Y425430D01*
X3243180Y413620D01*
X3240260Y405750D01*
X3234420Y397870D01*
X3227610Y392620D01*
X3220790Y390000D01*
X3213970D01*
X3207160Y392620D01*
X3201320Y396560D01*
X3196450Y401810D01*
G01X3160550Y455620D02*
X3154710Y463490D01*
X3147890Y467430D01*
X3140100Y468740D01*
X3130370Y466120D01*
X3123550Y459550D01*
X3121600Y451680D01*
X3122580Y443800D01*
X3126470Y437240D01*
X3145940Y424120D01*
X3154710Y414930D01*
X3160550Y401810D01*
X3162500Y390000D01*
X3121600D01*
G01X3065260D02*
X3063310Y407060D01*
X3060390Y421490D01*
X3056490Y434620D01*
X3051630Y449050D01*
X3043840Y468740D01*
X3082780D01*
G01X3230260Y1000000D02*
Y1078740D01*
X3205920D01*
X3198130Y1074800D01*
X3193260Y1069550D01*
X3191320Y1059050D01*
X3193260Y1048560D01*
X3199110Y1042000D01*
X3205920Y1038060D01*
X3230260D01*
G01X3205920D02*
X3191320Y1000000D01*
G01X3153470Y1015750D02*
X3147630Y1006560D01*
X3139840Y1001310D01*
X3131080Y1000000D01*
X3123290Y1001310D01*
X3115500Y1007870D01*
X3110630Y1015750D01*
X3109660Y1023620D01*
X3111600Y1032810D01*
X3118420Y1039370D01*
X3125230Y1042000D01*
X3134000D01*
G01X3125230D02*
X3119390Y1045930D01*
X3114520Y1052490D01*
X3112580Y1060370D01*
X3114520Y1068240D01*
X3119390Y1074800D01*
X3128160Y1078740D01*
X3136920Y1077430D01*
X3145680Y1072180D01*
G01X3490260Y5050000D02*
Y5128740D01*
X3465920D01*
X3458130Y5124800D01*
X3453260Y5119550D01*
X3451320Y5109050D01*
X3453260Y5098560D01*
X3459110Y5092000D01*
X3465920Y5088060D01*
X3490260D01*
G01X3465920D02*
X3451320Y5050000D01*
G01X3392050D02*
Y5128740D01*
X3403730Y5112990D01*
G01Y5050000D02*
X3380370D01*
G01X3334730Y5061810D02*
X3328890Y5055250D01*
X3322070Y5051310D01*
X3313310Y5050000D01*
X3304550Y5052620D01*
X3297730Y5057870D01*
X3292860Y5067060D01*
X3291890Y5077560D01*
X3293840Y5088060D01*
X3298710Y5094620D01*
X3305520Y5099870D01*
X3312340Y5101180D01*
X3319150Y5099870D01*
X3327910Y5094620D01*
X3324990Y5128740D01*
X3298710D01*
G01X3480260Y7110000D02*
Y7188740D01*
X3455920D01*
X3448130Y7184800D01*
X3443260Y7179550D01*
X3441320Y7169050D01*
X3443260Y7158560D01*
X3449110Y7152000D01*
X3455920Y7148060D01*
X3480260D01*
G01X3455920D02*
X3441320Y7110000D01*
G01X3382050D02*
Y7188740D01*
X3393730Y7172990D01*
G01Y7110000D02*
X3370370D01*
G01X3303310D02*
Y7188740D01*
X3314990Y7172990D01*
G01Y7110000D02*
X3291630D01*
G01X3439110Y3700000D02*
Y3778740D01*
X3475130Y3722310D01*
X3426450D01*
G01X3390550Y3765620D02*
X3384710Y3773490D01*
X3377890Y3777430D01*
X3370100Y3778740D01*
X3360370Y3776120D01*
X3353550Y3769550D01*
X3351600Y3761680D01*
X3352580Y3753800D01*
X3356470Y3747240D01*
X3375940Y3734120D01*
X3384710Y3724930D01*
X3390550Y3711810D01*
X3392500Y3700000D01*
X3351600D01*
G01X3482210Y6240000D02*
Y6318740D01*
X3462740D01*
X3454950Y6314800D01*
X3449110Y6309550D01*
X3444240Y6301680D01*
X3440340Y6292490D01*
X3439370Y6279370D01*
X3440340Y6266250D01*
X3444240Y6257060D01*
X3449110Y6249180D01*
X3454950Y6243940D01*
X3462740Y6240000D01*
X3482210D01*
G01X3400550Y6305620D02*
X3394710Y6313490D01*
X3387890Y6317430D01*
X3380100Y6318740D01*
X3370370Y6316120D01*
X3363550Y6309550D01*
X3361600Y6301680D01*
X3362580Y6293800D01*
X3366470Y6287240D01*
X3385940Y6274120D01*
X3394710Y6264930D01*
X3400550Y6251810D01*
X3402500Y6240000D01*
X3361600D01*
G01X3505430Y6742200D02*
Y6805700D01*
X3488490D01*
X3483070Y6802520D01*
X3479690Y6798290D01*
X3478330Y6789820D01*
X3479690Y6781360D01*
X3483750Y6776070D01*
X3488490Y6772890D01*
X3505430D01*
G01X3488490D02*
X3478330Y6742200D01*
G01X3436000D02*
Y6805700D01*
X3444130Y6793000D01*
G01Y6742200D02*
X3427870D01*
G01X3395020Y6754900D02*
X3390960Y6747490D01*
X3385540Y6743260D01*
X3379440Y6742200D01*
X3374020Y6743260D01*
X3368600Y6748550D01*
X3365220Y6754900D01*
X3364540Y6761250D01*
X3365900Y6768660D01*
X3370640Y6773950D01*
X3375380Y6776070D01*
X3381470D01*
G01X3375380D02*
X3371310Y6779240D01*
X3367930Y6784530D01*
X3366570Y6790880D01*
X3367930Y6797230D01*
X3371310Y6802520D01*
X3377410Y6805700D01*
X3383510Y6804640D01*
X3389600Y6800410D01*
G01X3599370Y4792180D02*
X3605210Y4796120D01*
X3612030Y4798740D01*
X3619820D01*
X3628580Y4794800D01*
X3635390Y4788240D01*
X3640260Y4780370D01*
X3644160Y4767240D01*
X3645130Y4755430D01*
X3643180Y4743620D01*
X3640260Y4735750D01*
X3634420Y4727870D01*
X3627610Y4722620D01*
X3620790Y4720000D01*
X3613970D01*
X3607160Y4722620D01*
X3601320Y4726560D01*
X3596450Y4731810D01*
G01X3560550Y4785620D02*
X3554710Y4793490D01*
X3547890Y4797430D01*
X3540100Y4798740D01*
X3530370Y4796120D01*
X3523550Y4789550D01*
X3521600Y4781680D01*
X3522580Y4773800D01*
X3526470Y4767240D01*
X3545940Y4754120D01*
X3554710Y4744930D01*
X3560550Y4731810D01*
X3562500Y4720000D01*
X3521600D01*
G01X3463310D02*
Y4798740D01*
X3474990Y4782990D01*
G01Y4720000D02*
X3451630D01*
G01X3959370Y3122180D02*
X3965210Y3126120D01*
X3972030Y3128740D01*
X3979820D01*
X3988580Y3124800D01*
X3995390Y3118240D01*
X4000260Y3110370D01*
X4004160Y3097240D01*
X4005130Y3085430D01*
X4003180Y3073620D01*
X4000260Y3065750D01*
X3994420Y3057870D01*
X3987610Y3052620D01*
X3980790Y3050000D01*
X3973970D01*
X3967160Y3052620D01*
X3961320Y3056560D01*
X3956450Y3061810D01*
G01X3902050Y3050000D02*
Y3128740D01*
X3913730Y3112990D01*
G01Y3050000D02*
X3890370D01*
G01X3823310D02*
X3816490Y3051310D01*
X3808710Y3055250D01*
X3803840Y3061810D01*
X3801890Y3071000D01*
X3803840Y3080180D01*
X3809680Y3088060D01*
X3818440Y3092000D01*
X3828180D01*
X3834020Y3094620D01*
X3838890Y3101180D01*
X3840840Y3110370D01*
X3837910Y3119550D01*
X3831100Y3126120D01*
X3823310Y3128740D01*
X3815520Y3126120D01*
X3808710Y3119550D01*
X3805780Y3110370D01*
X3807730Y3101180D01*
X3812600Y3094620D01*
X3818440Y3092000D01*
X3828180D01*
X3836940Y3088060D01*
X3842780Y3080180D01*
X3844730Y3071000D01*
X3842780Y3061810D01*
X3837910Y3055250D01*
X3830130Y3051310D01*
X3823310Y3050000D01*
G01X4109370Y4382180D02*
X4115210Y4386120D01*
X4122030Y4388740D01*
X4129820D01*
X4138580Y4384800D01*
X4145390Y4378240D01*
X4150260Y4370370D01*
X4154160Y4357240D01*
X4155130Y4345430D01*
X4153180Y4333620D01*
X4150260Y4325750D01*
X4144420Y4317870D01*
X4137610Y4312620D01*
X4130790Y4310000D01*
X4123970D01*
X4117160Y4312620D01*
X4111320Y4316560D01*
X4106450Y4321810D01*
G01X4052050Y4310000D02*
Y4388740D01*
X4063730Y4372990D01*
G01Y4310000D02*
X4040370D01*
G01X3961630D02*
Y4388740D01*
X3997650Y4332310D01*
X3948970D01*
G01X4289370Y4022180D02*
X4295210Y4026120D01*
X4302030Y4028740D01*
X4309820D01*
X4318580Y4024800D01*
X4325390Y4018240D01*
X4330260Y4010370D01*
X4334160Y3997240D01*
X4335130Y3985430D01*
X4333180Y3973620D01*
X4330260Y3965750D01*
X4324420Y3957870D01*
X4317610Y3952620D01*
X4310790Y3950000D01*
X4303970D01*
X4297160Y3952620D01*
X4291320Y3956560D01*
X4286450Y3961810D01*
G01X4232050Y3950000D02*
Y4028740D01*
X4243730Y4012990D01*
G01Y3950000D02*
X4220370D01*
G01X4174730Y3965750D02*
X4168890Y3956560D01*
X4161100Y3951310D01*
X4152340Y3950000D01*
X4144550Y3951310D01*
X4136760Y3957870D01*
X4131890Y3965750D01*
X4130920Y3973620D01*
X4132860Y3982810D01*
X4139680Y3989370D01*
X4146490Y3992000D01*
X4155260D01*
G01X4146490D02*
X4140650Y3995930D01*
X4135780Y4002490D01*
X4133840Y4010370D01*
X4135780Y4018240D01*
X4140650Y4024800D01*
X4149420Y4028740D01*
X4158180Y4027430D01*
X4166940Y4022180D01*
G01X4309370Y3542180D02*
X4315210Y3546120D01*
X4322030Y3548740D01*
X4329820D01*
X4338580Y3544800D01*
X4345390Y3538240D01*
X4350260Y3530370D01*
X4354160Y3517240D01*
X4355130Y3505430D01*
X4353180Y3493620D01*
X4350260Y3485750D01*
X4344420Y3477870D01*
X4337610Y3472620D01*
X4330790Y3470000D01*
X4323970D01*
X4317160Y3472620D01*
X4311320Y3476560D01*
X4306450Y3481810D01*
G01X4252050Y3470000D02*
Y3548740D01*
X4263730Y3532990D01*
G01Y3470000D02*
X4240370D01*
G01X4173310Y3548740D02*
X4181100Y3546120D01*
X4186940Y3539550D01*
X4190840Y3531680D01*
X4193760Y3521180D01*
X4194730Y3509370D01*
X4193760Y3497560D01*
X4190840Y3487060D01*
X4186940Y3479180D01*
X4181100Y3472620D01*
X4173310Y3470000D01*
X4165520Y3472620D01*
X4159680Y3479180D01*
X4155780Y3487060D01*
X4152860Y3497560D01*
X4151890Y3509370D01*
X4152860Y3521180D01*
X4155780Y3531680D01*
X4159680Y3539550D01*
X4165520Y3546120D01*
X4173310Y3548740D01*
G01X4380260Y3690000D02*
Y3768740D01*
X4355920D01*
X4348130Y3764800D01*
X4343260Y3759550D01*
X4341320Y3749050D01*
X4343260Y3738560D01*
X4349110Y3732000D01*
X4355920Y3728060D01*
X4380260D01*
G01X4355920D02*
X4341320Y3690000D01*
G01X4284000D02*
X4282050Y3707060D01*
X4279130Y3721490D01*
X4275230Y3734620D01*
X4270370Y3749050D01*
X4262580Y3768740D01*
X4301520D01*
G01X4776110Y4830000D02*
Y4908740D01*
X4750790Y4843120D01*
X4725470Y4908740D01*
Y4830000D01*
G01X4672050D02*
X4679840Y4831310D01*
X4686650Y4836560D01*
X4692500Y4844430D01*
X4696390Y4853620D01*
X4698340Y4864120D01*
Y4874620D01*
X4696390Y4885120D01*
X4692500Y4894310D01*
X4686650Y4902180D01*
X4679840Y4907430D01*
X4672050Y4908740D01*
X4664260Y4907430D01*
X4657450Y4902180D01*
X4651600Y4894310D01*
X4647710Y4885120D01*
X4645760Y4874620D01*
Y4864120D01*
X4647710Y4853620D01*
X4651600Y4844430D01*
X4657450Y4836560D01*
X4664260Y4831310D01*
X4672050Y4830000D01*
G01X4613760Y4840500D02*
X4605970Y4833940D01*
X4597200Y4830000D01*
X4589420D01*
X4581630Y4833940D01*
X4575780Y4840500D01*
X4572860Y4849690D01*
X4574810Y4858870D01*
X4579680Y4866740D01*
X4588440Y4872000D01*
X4600130Y4874620D01*
X4606940Y4879870D01*
X4609860Y4889050D01*
X4607910Y4898240D01*
X4603050Y4904800D01*
X4596230Y4908740D01*
X4589420D01*
X4582600Y4906120D01*
X4576760Y4899550D01*
G01X4533070Y4830000D02*
Y4908740D01*
X4496070D01*
G01X4509700Y4870680D02*
X4533070D01*
G01X4416360Y4830000D02*
X4455300D01*
Y4908740D01*
X4416360D01*
G01X4431940Y4870680D02*
X4455300D01*
G01X4357090Y4908740D02*
Y4830000D01*
G01X4379480Y4908740D02*
X4334700D01*
G01X4296850Y4895620D02*
X4291010Y4903490D01*
X4284190Y4907430D01*
X4276400Y4908740D01*
X4266670Y4906120D01*
X4259850Y4899550D01*
X4257900Y4891680D01*
X4258880Y4883800D01*
X4262770Y4877240D01*
X4282240Y4864120D01*
X4291010Y4854930D01*
X4296850Y4841810D01*
X4298800Y4830000D01*
X4257900D01*
G01X4430260Y2280000D02*
Y2358740D01*
X4405920D01*
X4398130Y2354800D01*
X4393260Y2349550D01*
X4391320Y2339050D01*
X4393260Y2328560D01*
X4399110Y2322000D01*
X4405920Y2318060D01*
X4430260D01*
G01X4405920D02*
X4391320Y2280000D01*
G01X4350550Y2312810D02*
X4343730Y2322000D01*
X4337890Y2327240D01*
X4330100Y2329870D01*
X4323290Y2327240D01*
X4318420Y2322000D01*
X4314520Y2314120D01*
X4313550Y2304930D01*
X4314520Y2297060D01*
X4318420Y2289180D01*
X4324260Y2282620D01*
X4331080Y2280000D01*
X4338870Y2282620D01*
X4345680Y2290500D01*
X4349580Y2302310D01*
X4350550Y2315430D01*
X4348600Y2332490D01*
X4345680Y2341680D01*
X4340810Y2350870D01*
X4334000Y2357430D01*
X4327180Y2358740D01*
X4320370Y2356120D01*
X4315500Y2349550D01*
M02*
