G04 ================== begin FILE IDENTIFICATION RECORD ==================*
G04 Layout Name:  G:/Geek/Projects/remote_car/PCB/ti_foc_motor.brd*
G04 Film Name:    SOLDERMASK_TOP*
G04 File Format:  Gerber RS274X*
G04 File Origin:  Cadence Allegro 16.6-S008*
G04 Origin Date:  Mon Jan 08 21:47:22 2018*
G04 *
G04 Layer:  VIA CLASS/SOLDERMASK_TOP*
G04 Layer:  PIN/SOLDERMASK_TOP*
G04 Layer:  PACKAGE GEOMETRY/SOLDERMASK_TOP*
G04 Layer:  DRC ERROR CLASS/SOLDERMASK_TOP*
G04 Layer:  BOARD GEOMETRY/SOLDERMASK_TOP*
G04 *
G04 Offset:    (0.0000 0.0000)*
G04 Mirror:    No*
G04 Mode:      Positive*
G04 Rotation:  0*
G04 FullContactRelief:  No*
G04 UndefLineWidth:     0.2000*
G04 ================== end FILE IDENTIFICATION RECORD ====================*
%FSLAX25Y25*MOMM*%
%IR0*IPPOS*OFA0.00000B0.00000*MIA0B0*SFA1.00000B1.00000*%
%ADD21R,.3X1.4*%
%ADD19R,1.4X.3*%
%ADD10C,11.*%
%ADD23R,1.1X2.*%
%ADD18R,1.6X1.*%
%ADD16R,1.X1.7*%
%ADD11R,1.7X1.*%
%ADD14R,1.2X1.9*%
%ADD13R,1.7X2.4*%
%ADD20C,1.1*%
%ADD12R,7.2X7.2*%
%ADD15R,.9X.7*%
%ADD25C,1.7*%
%ADD17C,1.9*%
%ADD24R,1.7X1.7*%
%ADD22R,1.9X1.9*%
G75*
%LPD*%
G75*
G36*
G01X250000Y950000D02*
X950000D01*
Y4750000D01*
X1190000Y4990000D01*
X4800000D01*
Y5600000D01*
X970000D01*
X250000Y4880000D01*
Y950000D01*
G37*
G54D10*
X600000Y600000D03*
X1000000Y6900000D03*
X2700000D03*
X4400000Y600000D03*
Y6900000D03*
G54D20*
X2480000Y2830000D03*
X2790000D03*
G54D11*
X500000Y5750000D03*
Y5940000D03*
X1520000Y2140000D03*
Y2330000D03*
X1780000Y2140000D03*
Y2330000D03*
X2060000Y560000D03*
Y750000D03*
X2040000Y2140000D03*
Y2330000D03*
X2120000Y1530000D03*
Y1720000D03*
X2160000Y990000D03*
Y1180000D03*
X2190000Y3260000D03*
Y3480000D03*
X2200000Y5750000D03*
Y5940000D03*
X2380000Y990000D03*
Y1180000D03*
X2600000Y990000D03*
Y1180000D03*
X3280000Y4330000D03*
Y4520000D03*
X3470000Y2290000D03*
Y2480000D03*
X3900000Y5750000D03*
Y5940000D03*
X4380000Y1940000D03*
Y2130000D03*
X4370000Y2640000D03*
Y2830000D03*
G54D12*
X1100000Y5300000D03*
X2800000D03*
X4500000D03*
G54D21*
X2525000Y1570000D03*
Y2430000D03*
X2575000Y1570000D03*
Y2430000D03*
X2675000Y1570000D03*
X2625000D03*
Y2430000D03*
X2675000D03*
X2725000Y1570000D03*
Y2430000D03*
X2775000Y1570000D03*
Y2430000D03*
X2875000Y1570000D03*
X2825000D03*
Y2430000D03*
X2875000D03*
X2925000Y1570000D03*
Y2430000D03*
X2975000Y1570000D03*
Y2430000D03*
X3075000Y1570000D03*
X3025000D03*
Y2430000D03*
X3075000D03*
G54D22*
X2700000Y200000D03*
G54D13*
X870000Y6060000D03*
X2570000D03*
X4270000D03*
G54D14*
X1330000Y6070000D03*
X3030000D03*
X4730000D03*
G54D23*
X3740000Y3970000D03*
X4010000D03*
G54D24*
X4690000Y1630000D03*
G54D15*
X1450000Y1010000D03*
X1680000D03*
G54D25*
X4690000Y1884000D03*
Y2138000D03*
Y2392000D03*
Y2646000D03*
Y2900000D03*
G54D16*
X1490000Y1720000D03*
X1600000Y510000D03*
Y750000D03*
X1680000Y1720000D03*
X1790000Y510000D03*
Y750000D03*
X2410000Y3260000D03*
Y3490000D03*
X2600000Y3260000D03*
Y3490000D03*
X2700000Y530000D03*
Y780000D03*
X2890000Y530000D03*
Y780000D03*
X3550000Y4200000D03*
X3600000Y2100000D03*
X3740000Y4200000D03*
X3790000Y2100000D03*
X3800000Y3280000D03*
X3990000D03*
G54D17*
X1600000Y200000D03*
X2100000D03*
X2954000D03*
X3208000D03*
X3462000D03*
G54D18*
X1910000Y1540000D03*
Y1720000D03*
X3680000Y2290000D03*
Y2470000D03*
G54D19*
X2370000Y1725000D03*
Y1775000D03*
Y1825000D03*
Y1875000D03*
Y1925000D03*
Y1975000D03*
Y2025000D03*
Y2075000D03*
Y2125000D03*
Y2175000D03*
Y2225000D03*
Y2275000D03*
X3230000Y1725000D03*
Y1775000D03*
Y1875000D03*
Y1825000D03*
Y1925000D03*
Y1975000D03*
Y2075000D03*
Y2025000D03*
Y2125000D03*
Y2175000D03*
Y2275000D03*
Y2225000D03*
M02*
