G04 ================== begin FILE IDENTIFICATION RECORD ==================*
G04 Layout Name:  G:/Geek/Projects/remote_car/PCB/ti_foc_motor.brd*
G04 Film Name:    TOP*
G04 File Format:  Gerber RS274X*
G04 File Origin:  Cadence Allegro 16.6-S008*
G04 Origin Date:  Mon Jan 08 21:49:28 2018*
G04 *
G04 Layer:  ETCH/TOP*
G04 Layer:  PIN/TOP*
G04 Layer:  VIA CLASS/TOP*
G04 *
G04 Offset:    (0.0000 0.0000)*
G04 Mirror:    No*
G04 Mode:      Positive*
G04 Rotation:  0*
G04 FullContactRelief:  No*
G04 UndefLineWidth:     0.2000*
G04 ================== end FILE IDENTIFICATION RECORD ====================*
%FSLAX25Y25*MOMM*%
%IR0*IPPOS*OFA0.00000B0.00000*MIA0B0*SFA1.00000B1.00000*%
%ADD23R,.25X1.2*%
%ADD10C,10.*%
%ADD22R,1.2X.25*%
%ADD20R,1.4X.8*%
%ADD21R,1.5X.8*%
%ADD17R,.9X1.5*%
%ADD12R,1.5X.9*%
%ADD25R,.9X1.8*%
%ADD11C,.6*%
%ADD15R,1.X1.7*%
%ADD14R,1.5X2.2*%
%ADD19C,1.*%
%ADD13R,7.X7.*%
%ADD16R,.7X.5*%
%ADD27C,1.6*%
%ADD18C,1.8*%
%ADD26R,1.6X1.6*%
%ADD24R,1.8X1.8*%
%ADD28C,.2*%
%ADD29C,.3*%
%ADD30C,.5*%
%ADD31C,.25*%
%ADD32C,2.*%
%ADD33C,4.*%
%ADD34C,7.*%
%ADD35C,8.*%
%ADD36C,10.4004*%
%ADD43R,1.1004X.9004*%
%ADD41R,1.3004X2.2004*%
%ADD38C,2.0004*%
%ADD37C,2.2004*%
%ADD42R,1.3004X1.9004*%
%ADD40C,1.4004*%
%ADD39R,1.9004X1.3004*%
G75*
%LPD*%
G75*
G36*
G01X4966430Y5795740D02*
G02X4999990Y5781050I13562J-14696D01*
G01Y100000D01*
G02X4950000Y50010I-49990J0D01*
G01X100000D01*
G02X50010Y100000I0J49990D01*
G01Y7400000D01*
G02X100000Y7449990I49990J0D01*
G01X4950000D01*
G02X4999990Y7400000I0J-49990D01*
G01Y5883950D01*
G02X4966430Y5869260I-19998J6D01*
G03X4932590Y5882520I-33923J-36762D01*
G01X4928460Y5882530D01*
X4800020Y6010970D01*
Y6175020D01*
X4659980D01*
Y5964980D01*
X4754030D01*
X4882470Y5836540D01*
X4882480Y5832410D01*
G03X4966430Y5795740I50022J87D01*
G37*
%LPC*%
G75*
G36*
G01X4049980Y6060000D02*
Y6515410D01*
G02X4498130Y6389320I350020J384589D01*
G01X4490020Y6387760D01*
Y6060000D01*
G02X4049980I-220020J0D01*
G37*
G36*
G01X2790020Y6387760D02*
Y6060000D01*
G02X2349980I-220020J0D01*
G01Y6515410D01*
G02X2798130Y6389320I350020J384589D01*
G01X2790020Y6387760D01*
G37*
G36*
G01X2999970Y4755960D02*
X2999980Y4760090D01*
G02X3050090Y4709980I50020J-90D01*
G01X3045960Y4709970D01*
X1942520Y3606530D01*
Y2395020D01*
X2135020D01*
Y2264980D01*
X1979290D01*
G03X1965150Y2230840I4J-20000D01*
G01X1990970Y2205020D01*
X2136690D01*
G02X2164960Y2227710I43317J-25014D01*
G03X2173090Y2260920I-6014J19072D01*
G01X2167480Y2266530D01*
Y2753470D01*
X2416530Y3002520D01*
X3945970D01*
X4257910Y2690580D01*
G03X4274980Y2697650I7070J7072D01*
G01Y2705020D01*
X4465020D01*
Y2672520D01*
X4593300D01*
X4595650Y2679200D01*
G02X4597700Y2607480I94350J-33192D01*
G01X4465020D01*
Y2574980D01*
X4274980D01*
Y2607480D01*
X4249030D01*
X3919030Y2937480D01*
X3394390D01*
G03X3376000Y2909630I3J-19999D01*
G02X3380010Y2890000I-46002J-19622D01*
G01Y2790000D01*
G02X3292010Y2757480I-50009J0D01*
G01X2973470D01*
X2956390Y2740400D01*
G03X2970530Y2706260I14144J-14140D01*
G01X3195000D01*
G02X3195100Y2606240I0J-50010D01*
G01X3190970Y2606230D01*
X3107520Y2522780D01*
Y2430000D01*
G02X3107510Y2429290I-32519J103D01*
G01Y2349990D01*
X2840570D01*
G03X2822500Y2321420I1J-20000D01*
G02X2737860Y2330770I-45203J-21419D01*
G01X2739980Y2333480D01*
Y2349990D01*
X2492490D01*
Y2429290D01*
G02X2492480Y2430000I32509J813D01*
G01Y2578470D01*
X2589970Y2675960D01*
X2589980Y2680090D01*
G02X2624960Y2727710I50021J-86D01*
G03X2633090Y2760920I-6014J19072D01*
G01X2596530Y2797480D01*
X2542010D01*
G02Y2862520I-62010J32520D01*
G01X2623470D01*
X2710410Y2775580D01*
G03X2727480Y2782650I7070J7072D01*
G01Y2798390D01*
X2726540Y2800400D01*
G02X2857640Y2848100I63461J29593D01*
G03X2891100Y2839130I19319J5173D01*
G01X2955310Y2903340D01*
G03X2941170Y2937480I-14144J14140D01*
G01X2443470D01*
X2232520Y2726530D01*
Y2293470D01*
X2268470Y2257520D01*
X2289990D01*
Y2307510D01*
X2450010D01*
Y1692490D01*
X2289990D01*
Y1739980D01*
X2215020D01*
Y1654980D01*
X2024980D01*
Y1674980D01*
X2000020D01*
Y1659980D01*
X1819980D01*
Y1792480D01*
X1783470D01*
X1745020Y1754030D01*
Y1624980D01*
X1712520D01*
Y1055020D01*
X1735020D01*
Y1010970D01*
X1822520Y923470D01*
Y845020D01*
X1855020D01*
Y820020D01*
X2060000D01*
G02X2084360Y815640I-16J-70017D01*
G01X2086050Y815020D01*
X2155020D01*
Y684980D01*
X2086050D01*
X2084360Y684360D01*
G02X2060000Y679980I-24376J65637D01*
G01X1855020D01*
Y654980D01*
X1724980D01*
Y723950D01*
X1724360Y725640D01*
G02Y774360I65640J24360D01*
G01X1724980Y776050D01*
Y845020D01*
X1757480D01*
Y896530D01*
X1689030Y964980D01*
X1624980D01*
Y1055020D01*
X1647480D01*
Y1624980D01*
X1614980D01*
Y1815020D01*
X1714030D01*
X1756530Y1857520D01*
X2289990D01*
Y1892480D01*
X1751530D01*
X1569030Y2074980D01*
X1424980D01*
Y2159030D01*
X1354040Y2229970D01*
X1349910Y2229980D01*
G02X1400020Y2280090I90J50020D01*
G01X1400030Y2275960D01*
X1407910Y2268080D01*
G03X1424980Y2275150I7070J7072D01*
G01Y2395020D01*
X1617480D01*
Y4783470D01*
X1669970Y4835960D01*
X1669980Y4840090D01*
G02X1720090Y4789980I50020J-90D01*
G01X1715960Y4789970D01*
X1682520Y4756530D01*
Y2395020D01*
X1877480D01*
Y3633470D01*
X2999970Y4755960D01*
G37*
G36*
G01X3440750Y1599000D02*
G02X3361990Y1537480I-40756J-28999D01*
G01X3296530D01*
X3197480Y1636530D01*
Y1692490D01*
X3149990D01*
Y2307510D01*
X3161100D01*
G03X3180780Y2331080I2J19999D01*
G02X3279220I49220J8920D01*
G03X3298900Y2307510I19678J-3571D01*
G01X3310010D01*
Y2260020D01*
X3360490D01*
X3374980Y2274510D01*
Y2355020D01*
X3565020D01*
Y2335020D01*
X3589980D01*
Y2350020D01*
X3770020D01*
Y2229980D01*
X3589980D01*
Y2244980D01*
X3565020D01*
Y2224980D01*
X3424510D01*
X3389510Y2189980D01*
X3310010D01*
Y2110020D01*
X3330490D01*
X3375490Y2155020D01*
X3514510D01*
X3517910Y2151620D01*
G03X3534980Y2158690I7071J7069D01*
G01Y2195020D01*
X3665020D01*
Y2004980D01*
X3534980D01*
Y2064980D01*
X3505490D01*
X3486730Y2083750D01*
X3475230Y2072250D01*
X3477280Y2066340D01*
G02X3430090Y1999980I-47278J-16339D01*
G01X3425960Y1999970D01*
X3418470Y1992480D01*
X3310010D01*
Y1957520D01*
X3639030D01*
X3654030Y1972520D01*
X3692010D01*
G02X3717480Y1988420I37996J-32516D01*
G01X3724980Y1990360D01*
Y2195020D01*
X3855020D01*
Y2004980D01*
X3783650D01*
G03X3768320Y1972130I-3J-20000D01*
G02X3780010Y1940000I-38310J-32130D01*
G01Y1850000D01*
G02X3692010Y1817480I-50009J0D01*
G01X3654030D01*
X3629030Y1842480D01*
X3417650D01*
G03X3410580Y1825410I2J-10000D01*
G01X3415970Y1820020D01*
X3420100Y1820010D01*
G02X3470010Y1770000I-100J-50010D01*
G01Y1670000D01*
G02X3446470Y1627570I-50009J0D01*
G03X3440750Y1599000I10578J-16975D01*
G37*
G36*
G01X2695020Y924980D02*
X2504980D01*
Y1055020D01*
X2695020D01*
Y1034070D01*
X2711560D01*
X2714180Y1040060D01*
G02X2759910Y1070020I45821J-20060D01*
G01X2764040Y1070030D01*
X2792480Y1098470D01*
Y1248210D01*
G03X2758340Y1262350I-20000J-4D01*
G01X2695020Y1199030D01*
Y1114980D01*
X2504980D01*
Y1204850D01*
G03X2487910Y1211920I-10000J-2D01*
G01X2475020Y1199030D01*
Y1114980D01*
X2284980D01*
Y1212350D01*
G03X2267910Y1219420I-10000J-2D01*
G01X2255020Y1206530D01*
Y1114980D01*
X2064980D01*
Y1245020D01*
X2127480D01*
Y1331990D01*
G02X2192520I32520J38010D01*
G01Y1284290D01*
G03X2226660Y1270150I20000J4D01*
G01X2492480Y1535970D01*
Y1570000D01*
G02X2492490Y1570710I32519J-103D01*
G01Y1650010D01*
X3107510D01*
Y1636310D01*
G03X3133930Y1617370I19999J0D01*
G02Y1522630I16070J-47370D01*
G03X3107510Y1503690I-6421J-18940D01*
G01Y1489990D01*
X3057520D01*
Y1448470D01*
X3093470Y1412520D01*
X3426530D01*
X4438530Y2424520D01*
X4595180D01*
X4597750Y2430660D01*
G02Y2353340I92250J-38660D01*
G01X4595180Y2359480D01*
X4465470D01*
X4335150Y2229160D01*
G03X4349290Y2195020I14144J-14140D01*
G01X4475020D01*
Y2170520D01*
X4595180D01*
X4597750Y2176660D01*
G02Y2099340I92250J-38660D01*
G01X4595180Y2105480D01*
X4475020D01*
Y2064980D01*
X4330970D01*
X4305150Y2039160D01*
G03X4319290Y2005020I14144J-14140D01*
G01X4475020D01*
Y1874980D01*
X4348650D01*
X4299880Y1826210D01*
X4299990Y1821910D01*
G02X4231910Y1889990I-69990J-1910D01*
G01X4236210Y1889880D01*
X4284980Y1938650D01*
Y1970710D01*
G03X4250840Y1984850I-20000J-4D01*
G01X3607650Y1341660D01*
G03X3621790Y1307520I14144J-14140D01*
G01X4067530D01*
X4599960Y1839950D01*
X4597440Y1846100D01*
G02X4652100Y1791440I92560J37900D01*
G01X4645950Y1793960D01*
X4616150Y1764160D01*
G03X4630290Y1730020I14144J-14140D01*
G01X4790020D01*
Y1529980D01*
X4635970D01*
X4303470Y1197480D01*
X2996530D01*
X2891660Y1302350D01*
G03X2857520Y1288210I-14140J-14144D01*
G01Y1071530D01*
X2810030Y1024040D01*
X2810020Y1019910D01*
G02X2727870Y981670I-50018J93D01*
G03X2695020Y966340I-12849J-15328D01*
G01Y924980D01*
G37*
G36*
G01X646530Y5371460D02*
X648910Y5372190D01*
X729980Y5453270D01*
Y5624030D01*
X636530Y5717480D01*
X595020D01*
Y5684980D01*
X404980D01*
Y5815020D01*
X595020D01*
Y5782520D01*
X663470D01*
X775970Y5670020D01*
X2104980D01*
Y5815020D01*
X2295020D01*
Y5670020D01*
X3804980D01*
Y5815020D01*
X3995020D01*
Y5670020D01*
X4870020D01*
Y4929980D01*
X1253270D01*
X1172190Y4848910D01*
X1171460Y4846530D01*
G02X1067000Y4673000I-401464J123464D01*
G01X1020020Y4626020D01*
Y906600D01*
G02X1055790Y349650I-420020J-306599D01*
G03X1073320Y320020I17529J-9630D01*
G01X1529980D01*
Y750000D01*
G02X1534360Y774360I70017J-16D01*
G01X1534980Y776050D01*
Y845020D01*
X1665020D01*
Y776050D01*
X1665640Y774360D01*
G02X1670020Y750000I-65637J-24376D01*
G01Y297480D01*
G02X1600000Y79980I-70020J-97479D01*
G01X950290D01*
X872960Y157310D01*
X866270Y153320D01*
G02X179980Y906600I-266270J446678D01*
G01Y4973980D01*
X473000Y5267000D01*
G02X646530Y5371460I296994J-297004D01*
G37*
G36*
G01X2810020Y310020D02*
Y89980D01*
X2589980D01*
Y310020D01*
X2629980D01*
Y449350D01*
G03X2601100Y467260I-19998J-7D01*
G02Y592740I-31100J62740D01*
G03X2629980Y610650I8882J17917D01*
G01Y780000D01*
G02X2634360Y804360I70017J-16D01*
G01X2634980Y806050D01*
Y875020D01*
X2765020D01*
Y806050D01*
X2765640Y804360D01*
G02X2770020Y780000I-65637J-24376D01*
G01Y310020D01*
X2810020D01*
G37*
G36*
G01X1955020Y1479980D02*
Y1263630D01*
G02X1864980I-45020J-53630D01*
G01Y1479980D01*
X1819980D01*
Y1600020D01*
X2000020D01*
Y1479980D01*
X1955020D01*
G37*
G36*
G01X3770020Y2530020D02*
Y2409980D01*
X3589980D01*
Y2530020D01*
X3634980D01*
Y2596370D01*
G02X3725020I45020J53630D01*
G01Y2530020D01*
X3770020D01*
G37*
G36*
G01X2061210Y3229880D02*
X2094980Y3263650D01*
Y3320020D01*
X2285020D01*
Y3305020D01*
X2344980D01*
Y3355020D01*
X2475020D01*
Y3164980D01*
X2344980D01*
Y3214980D01*
X2285020D01*
Y3199980D01*
X2158650D01*
X2124880Y3166210D01*
X2124990Y3161910D01*
G02X2056910Y3229990I-69990J-1910D01*
G01X2061210Y3229880D01*
G37*
G36*
G01X2665020Y3355020D02*
Y3164980D01*
X2534980D01*
Y3355020D01*
X2567480D01*
Y3394980D01*
X2534980D01*
Y3585020D01*
X2665020D01*
Y3527520D01*
X2686770D01*
X2689700Y3530440D01*
G02Y3459560I35300J-35440D01*
G01X2686770Y3462480D01*
X2665020D01*
Y3394980D01*
X2632520D01*
Y3355020D01*
X2665020D01*
G37*
G36*
G01X3865020Y3375020D02*
Y3184980D01*
X3734980D01*
Y3234980D01*
X3721900D01*
X3719990Y3234150D01*
G02Y3325850I-19990J45850D01*
G01X3721900Y3325020D01*
X3734980D01*
Y3375020D01*
X3865020D01*
G37*
G36*
G01X4055020Y3234980D02*
Y3184980D01*
X3924980D01*
Y3375020D01*
X4055020D01*
Y3325020D01*
X4136370D01*
G02Y3234980I53630J-45020D01*
G01X4055020D01*
G37*
G36*
G01X2475020Y3585020D02*
Y3394980D01*
X2344980D01*
Y3447480D01*
X2285020D01*
Y3419980D01*
X2094980D01*
Y3540020D01*
X2285020D01*
Y3512520D01*
X2344980D01*
Y3585020D01*
X2475020D01*
G37*
G36*
G01X3805020Y4080020D02*
Y3859980D01*
X3674980D01*
Y3924980D01*
X3621900D01*
X3619990Y3924150D01*
G02Y4015850I-19990J45850D01*
G01X3621900Y4015020D01*
X3674980D01*
Y4080020D01*
X3694980D01*
Y4104980D01*
X3674980D01*
Y4295020D01*
X3805020D01*
Y4245020D01*
X3926370D01*
G02Y4154980I53630J-45020D01*
G01X3805020D01*
Y4104980D01*
X3785020D01*
Y4080020D01*
X3805020D01*
G37*
G36*
G01X2092520Y4291990D02*
Y3998010D01*
G02X2027480I-32520J-38010D01*
G01Y4291990D01*
G02X2092520I32520J38010D01*
G37*
G36*
G01X3615020Y4295020D02*
Y4104980D01*
X3484980D01*
Y4167480D01*
X3448010D01*
G02Y4232520I-38010J32520D01*
G01X3484980D01*
Y4295020D01*
X3615020D01*
G37*
G36*
G01X3325020Y4264980D02*
Y4231900D01*
X3325850Y4229990D01*
G02X3234150I-45850J-19990D01*
G01X3234980Y4231900D01*
Y4264980D01*
X3184980D01*
Y4395020D01*
X3375020D01*
Y4264980D01*
X3325020D01*
G37*
G36*
G01X2751530Y5802520D02*
X2959980Y6010970D01*
Y6175020D01*
X3100020D01*
Y5964980D01*
X3005970D01*
X2778470Y5737480D01*
X2408010D01*
G02Y5802520I-38010J32520D01*
G01X2751530D01*
G37*
G36*
G01X1453470Y6102520D02*
X1605960Y5950030D01*
X1610090Y5950020D01*
G02X1559980Y5899910I-90J-50020D01*
G01X1559970Y5904040D01*
X1426530Y6037480D01*
X1400020D01*
Y5964980D01*
X1259980D01*
Y6175020D01*
X1400020D01*
Y6102520D01*
X1453470D01*
G37*
G36*
G01X649980Y6060000D02*
Y6515410D01*
G02X1098130Y6389320I350020J384589D01*
G01X1090020Y6387760D01*
Y6060000D01*
G02X649980I-220020J0D01*
G37*
G54D36*
X4400000Y600000D03*
G54D43*
X1450000Y1010000D03*
G54D41*
X4010000Y3970000D03*
G54D38*
X4690000Y2900000D03*
G54D37*
X3462000Y200000D03*
X3208000D03*
X2954000D03*
X2100000D03*
G54D42*
X2890000Y780000D03*
Y530000D03*
X1790000Y510000D03*
X1490000Y1720000D03*
G54D40*
X4180000Y3720000D03*
X2440000Y690000D03*
G54D39*
X4370000Y2830000D03*
X3900000Y5940000D03*
X3470000Y2480000D03*
X3280000Y4520000D03*
X2380000Y990000D03*
X2200000Y5940000D03*
X2160000Y990000D03*
X2120000Y1530000D03*
X2060000Y560000D03*
X500000Y5940000D03*
%LPD*%
G75*
G36*
G01X1470970Y2205020D02*
X1445150Y2230840D01*
G02X1459290Y2264980I14144J14140D01*
G01X1617480D01*
Y2226530D01*
X1621920Y2222090D01*
G02X1614850Y2205020I-7072J-7070D01*
G01X1470970D01*
G37*
G36*
G01X1730970D02*
X1705150Y2230840D01*
G02X1719290Y2264980I14144J14140D01*
G01X1877480D01*
Y2226530D01*
X1881920Y2222090D01*
G02X1874850Y2205020I-7072J-7070D01*
G01X1730970D01*
G37*
G54D10*
X600000Y600000D03*
X1000000Y6900000D03*
X2700000D03*
X4400000Y600000D03*
Y6900000D03*
G54D11*
X110000Y1160000D03*
Y1960000D03*
Y2680000D03*
Y3280000D03*
Y6110000D03*
X120000Y6930000D03*
X240000Y5530000D03*
X280000Y5930000D03*
X410000Y5390000D03*
X400000Y6110000D03*
X380000Y6270000D03*
X370000Y6930000D03*
X480000Y7380000D03*
X520000Y6410000D03*
X610000Y5520000D03*
X570000Y6210000D03*
X1140000Y2190000D03*
X1220000Y1000000D03*
X1180000Y1540000D03*
X1170000Y3460000D03*
X1180000Y4120000D03*
X1220000Y4630000D03*
X1270000Y2640000D03*
X1350000Y520000D03*
Y2280000D03*
X1410000Y3070000D03*
X1440000Y1290000D03*
Y1940000D03*
X1500000Y4390000D03*
X1520000Y5810000D03*
X1610000Y5900000D03*
Y6500000D03*
X1690000Y6930000D03*
X1670000Y7320000D03*
X1720000Y4840000D03*
X1710000Y6130000D03*
X1820000Y5740000D03*
X1840000Y200000D03*
X1900000Y1030000D03*
Y4110000D03*
X1990000Y3010000D03*
X1980000Y5930000D03*
X2040000Y2580000D03*
X2060000Y3960000D03*
Y4330000D03*
X2090000Y6350000D03*
X2070000Y6920000D03*
X2160000Y1370000D03*
X2110000Y6110000D03*
X2180000Y2180000D03*
Y4790000D03*
X2190000Y6490000D03*
X2290000Y790000D03*
X2240000Y3370000D03*
X2250000Y6230000D03*
X2340000Y460000D03*
Y1560000D03*
X2310000Y2440000D03*
Y2680000D03*
X2350000Y5870000D03*
X2390000Y200000D03*
X2420000Y1290000D03*
X2370000Y5770000D03*
X2520000Y2070000D03*
X2560000Y3920000D03*
X2610000Y1280000D03*
X2580000Y1790000D03*
X2570000Y3690000D03*
X2640000Y2680000D03*
X2760000Y1020000D03*
X2725000Y3495000D03*
X2777300Y2300000D03*
X2850000Y1710000D03*
X2925000Y2656250D03*
X2960000Y3540000D03*
X2990000Y1100000D03*
X3020000Y2170000D03*
X3015000Y2656250D03*
X3000000Y3750000D03*
X3050000Y4020000D03*
Y4760000D03*
X3160000Y540000D03*
X3150000Y1570000D03*
X3105000Y2656250D03*
X3195000D03*
X3170000Y3290000D03*
X3260000Y1480000D03*
X3230000Y2340000D03*
Y2480000D03*
Y3080000D03*
X3280000Y4210000D03*
Y5840000D03*
X3350000Y1090000D03*
X3330000Y2790000D03*
Y2890000D03*
X3320000Y6480000D03*
X3330000Y7320000D03*
X3370000Y770000D03*
X3400000Y1570000D03*
X3420000Y1670000D03*
Y1770000D03*
X3410000Y4200000D03*
X3390000Y6100000D03*
X3400000Y6940000D03*
X3430000Y2050000D03*
X3520000Y2790000D03*
X3500000Y3220000D03*
X3530000Y4450000D03*
X3520000Y5740000D03*
X3600000Y3970000D03*
X3690000Y5900000D03*
X3730000Y1850000D03*
Y1940000D03*
X3700000Y3280000D03*
X3770000Y250000D03*
X3800000Y1040000D03*
X3790000Y6100000D03*
X3800000Y6350000D03*
X3770000Y6930000D03*
X3880000Y1430000D03*
X3850000Y1930000D03*
X3880000Y7380000D03*
X3940000Y2450000D03*
X3900000Y2740000D03*
Y4440000D03*
X3940000Y6210000D03*
X3910000Y6490000D03*
X4020000Y2180000D03*
X4070000Y5830000D03*
X4130000Y1630000D03*
X4180000Y3030000D03*
X4220000Y4760000D03*
X4240000Y2470000D03*
X4520000Y2280000D03*
Y2510000D03*
X4530000Y3590000D03*
X4500000Y4090000D03*
Y4790000D03*
X4830000Y1310000D03*
X4880000Y7350000D03*
X4900000Y4670000D03*
X4932500Y5832500D03*
X4930000Y6130000D03*
X4940000Y6490000D03*
G54D20*
X1910000Y1540000D03*
Y1720000D03*
X3680000Y2290000D03*
Y2470000D03*
G54D30*
G01X500000Y5940000D02*
X394980D01*
G01X500000D02*
Y5864980D01*
G01Y5940000D02*
Y6015020D01*
G01Y5940000D02*
X605020D01*
G01X1910000Y1540000D02*
Y1210000D01*
G01Y1720000D02*
X2120000D01*
G01X2190000Y3260000D02*
X2155000D01*
X2055000Y3160000D01*
G01X2100000Y200000D02*
Y79980D01*
G01X2200000Y5940000D02*
X2094980D01*
G01X2410000Y3260000D02*
X2190000D01*
G01X2200000Y5940000D02*
Y5864980D01*
G01Y5940000D02*
Y6015020D01*
G01Y5940000D02*
X2305020D01*
G01X2700000Y530000D02*
X2570000D01*
G01X3280000Y4210000D02*
Y4330000D01*
G01X3470000Y2290000D02*
X3680000D01*
G01X3740000Y3970000D02*
X3600000D01*
G01X3680000Y2470000D02*
Y2650000D01*
G01X3790000Y2100000D02*
X3714980D01*
G01X3700000Y3280000D02*
X3800000D01*
G01X3740000Y4200000D02*
Y3970000D01*
G01Y4200000D02*
X3980000D01*
G01X3790000Y2010000D02*
Y2100000D01*
G01D02*
X3865020D01*
G01X3790000D02*
Y2205020D01*
G01X3900000Y5940000D02*
X3794980D01*
G01X3900000D02*
Y5864980D01*
G01Y5940000D02*
Y6015020D01*
G01Y5940000D02*
X4005020D01*
G01X3990000Y3280000D02*
X4190000D01*
G01X4230000Y1820000D02*
X4350000Y1940000D01*
X4380000D01*
G01X4400000Y90000D02*
Y600000D01*
G01X4690000Y2900000D02*
X4579980D01*
G01X4690000D02*
Y2789980D01*
G01Y2900000D02*
X4800020D01*
G01X4690000D02*
Y3010020D01*
G54D12*
X500000Y5750000D03*
Y5940000D03*
X1520000Y2140000D03*
Y2330000D03*
X1780000Y2140000D03*
Y2330000D03*
X2060000Y560000D03*
Y750000D03*
X2040000Y2140000D03*
Y2330000D03*
X2120000Y1530000D03*
Y1720000D03*
X2160000Y990000D03*
Y1180000D03*
X2200000Y5750000D03*
Y5940000D03*
X2380000Y990000D03*
Y1180000D03*
X2600000Y990000D03*
Y1180000D03*
X3280000Y4330000D03*
Y4520000D03*
X3470000Y2290000D03*
Y2480000D03*
X3900000Y5750000D03*
Y5940000D03*
X4380000Y1940000D03*
Y2130000D03*
X4370000Y2640000D03*
Y2830000D03*
G54D21*
X2190000Y3260000D03*
Y3480000D03*
G54D31*
G01X500000Y5750000D02*
X650000D01*
X1100000Y5300000D01*
G01X1350000Y2280000D02*
X1490000Y2140000D01*
X1520000D01*
G01X1330000Y6070000D02*
X1440000D01*
X1610000Y5900000D01*
G01X2370000Y1925000D02*
X1765000D01*
X1550000Y2140000D01*
X1520000D01*
G01X1680000Y1720000D02*
Y1735000D01*
X1770000Y1825000D01*
X2370000D01*
G01X1720000Y4840000D02*
X1650000Y4770000D01*
Y2240000D01*
X1750000Y2140000D01*
X1780000D01*
G01X1790000Y750000D02*
Y910000D01*
X1690000Y1010000D01*
X1680000D01*
G01D02*
Y1720000D01*
G01X2370000Y1975000D02*
X1975000D01*
X1810000Y2140000D01*
X1780000D01*
G01X3050000Y4760000D02*
X1910000Y3620000D01*
Y2240000D01*
X2010000Y2140000D01*
X2040000D01*
G01X2370000Y2025000D02*
X2185000D01*
X2070000Y2140000D01*
X2040000D01*
G01X2060000Y4330000D02*
Y3960000D01*
G01X2160000Y1370000D02*
Y1180000D01*
G01D02*
X2182500D01*
X2525000Y1522500D01*
Y1570000D01*
G01X2180000Y2180000D02*
X2185000Y2175000D01*
X2370000D01*
G01X4370000Y2640000D02*
X4262500D01*
X3932500Y2970000D01*
X2430000D01*
X2200000Y2740000D01*
Y2280000D01*
X2255000Y2225000D01*
X2370000D01*
G01X2410000Y3490000D02*
X2400000Y3480000D01*
X2190000D01*
G01X2200000Y5750000D02*
Y5300000D01*
G01X2625000Y1570000D02*
Y1395000D01*
X2410000Y1180000D01*
X2380000D01*
G01X2420000Y1290000D02*
X2380000Y1250000D01*
Y1180000D01*
G01X2370000Y5770000D02*
X2765000D01*
X3030000Y6035000D01*
Y6070000D01*
G01X2640000Y2680000D02*
X2525000Y2565000D01*
Y2430000D01*
G01X2480000Y2830000D02*
X2610000D01*
X2710000Y2730000D01*
Y2650000D01*
X2625000Y2565000D01*
Y2430000D01*
G01X2610000Y1280000D02*
Y1190000D01*
X2600000Y1180000D01*
G01X2775000Y1570000D02*
Y1325000D01*
X2630000Y1180000D01*
X2600000D01*
G01Y3490000D02*
Y3260000D01*
G01Y3490000D02*
X2605000Y3495000D01*
X2725000D01*
G01X2675000Y2430000D02*
Y2545000D01*
X2760000Y2630000D01*
Y2790000D01*
X2790000Y2820000D01*
Y2830000D01*
G01X2825000Y1570000D02*
Y1085000D01*
X2760000Y1020000D01*
G01X3330000Y2890000D02*
X2987960D01*
X2810000Y2712040D01*
Y2580000D01*
X2825000Y2565000D01*
Y2430000D01*
G01X4690000Y1630000D02*
X4290000Y1230000D01*
X3010000D01*
X2875000Y1365000D01*
Y1570000D01*
G01X3330000Y2790000D02*
X2960000D01*
X2860000Y2690000D01*
Y2601600D01*
X2875000Y2586600D01*
Y2430000D01*
G01X4690000Y1884000D02*
X4081000Y1275000D01*
X3035000D01*
X2925000Y1385000D01*
Y1570000D01*
G01Y2656250D02*
Y2430000D01*
G01X4380000Y2130000D02*
X4350000D01*
X3540000Y1320000D01*
X3060000D01*
X2975000Y1405000D01*
Y1570000D01*
G01X3015000Y2656250D02*
X2975000Y2616250D01*
Y2430000D01*
G01X3025000Y1570000D02*
Y1435000D01*
X3080000Y1380000D01*
X3440000D01*
X4452000Y2392000D01*
X4690000D01*
G01X3150000Y1570000D02*
X3075000D01*
G01X3195000Y2656250D02*
X3075000Y2536250D01*
Y2430000D01*
G01X3105000Y2656250D02*
X3025000Y2576250D01*
Y2430000D01*
G01X3400000Y1570000D02*
X3310000D01*
X3230000Y1650000D01*
Y1725000D01*
G01X3420000Y1670000D02*
X3315000Y1775000D01*
X3230000D01*
G01X3730000Y1850000D02*
X3667500D01*
X3642500Y1875000D01*
X3230000D01*
G01X3420000Y1770000D02*
X3365000Y1825000D01*
X3230000D01*
G01X3730000Y1940000D02*
X3667500D01*
X3652500Y1925000D01*
X3230000D01*
G01X3430000Y2050000D02*
X3405000Y2025000D01*
X3230000D01*
G01X3405000Y2175000D02*
X3230000D01*
G01Y2275000D02*
Y2340000D01*
G01X3420000Y2190000D02*
X3405000Y2175000D01*
G01X3410000Y4200000D02*
X3550000D01*
G01X3900000Y5750000D02*
Y5517500D01*
X4117500Y5300000D01*
G01X4380000Y2130000D02*
X4388000Y2138000D01*
X4690000D01*
G01Y2646000D02*
X4684000Y2640000D01*
X4370000D01*
G01X4932500Y5832500D02*
X4730000Y6035000D01*
Y6070000D01*
G54D13*
X1100000Y5300000D03*
X2800000D03*
X4500000D03*
G54D22*
X2370000Y1725000D03*
Y1775000D03*
Y1825000D03*
Y1875000D03*
Y1925000D03*
Y1975000D03*
Y2025000D03*
Y2075000D03*
Y2125000D03*
Y2175000D03*
Y2225000D03*
Y2275000D03*
X3230000Y1725000D03*
Y1775000D03*
Y1875000D03*
Y1825000D03*
Y1925000D03*
Y1975000D03*
Y2075000D03*
Y2025000D03*
Y2125000D03*
Y2175000D03*
Y2275000D03*
Y2225000D03*
G54D32*
G01X600000Y600000D02*
X1000000Y200000D01*
X1600000D01*
G01X3830000Y600000D02*
X4400000D01*
G01D02*
Y1130020D01*
G01X4886720Y600000D02*
X4400000D01*
G54D14*
X870000Y6060000D03*
X2570000D03*
X4270000D03*
G54D23*
X2525000Y1570000D03*
Y2430000D03*
X2575000Y1570000D03*
Y2430000D03*
X2675000Y1570000D03*
X2625000D03*
Y2430000D03*
X2675000D03*
X2725000Y1570000D03*
Y2430000D03*
X2775000Y1570000D03*
Y2430000D03*
X2875000Y1570000D03*
X2825000D03*
Y2430000D03*
X2875000D03*
X2925000Y1570000D03*
Y2430000D03*
X2975000Y1570000D03*
Y2430000D03*
X3075000Y1570000D03*
X3025000D03*
Y2430000D03*
X3075000D03*
G54D33*
G01X1000000Y6900000D02*
X870000Y6770000D01*
Y6060000D01*
G01X2700000Y6900000D02*
X2570000Y6770000D01*
Y6060000D01*
G01X4400000Y6900000D02*
X4270000Y6770000D01*
Y6060000D01*
G54D24*
X2700000Y200000D03*
G54D15*
X1330000Y6070000D03*
X3030000D03*
X4730000D03*
G54D34*
G01X1100000Y5300000D02*
X770000Y4970000D01*
G01X1100000Y5300000D02*
X2200000D01*
G01D02*
X2800000D01*
G01D02*
X4117500D01*
G01D02*
X4500000D01*
G54D16*
X1450000Y1010000D03*
X1680000D03*
G54D25*
X3740000Y3970000D03*
X4010000D03*
G54D35*
G01X770000Y4970000D02*
X600000Y4800000D01*
Y600000D01*
G54D26*
X4690000Y1630000D03*
G54D17*
X1490000Y1720000D03*
X1600000Y510000D03*
Y750000D03*
X1680000Y1720000D03*
X1790000Y510000D03*
Y750000D03*
X2410000Y3260000D03*
Y3490000D03*
X2600000Y3260000D03*
Y3490000D03*
X2700000Y530000D03*
Y780000D03*
X2890000Y530000D03*
Y780000D03*
X3550000Y4200000D03*
X3600000Y2100000D03*
X3740000Y4200000D03*
X3790000Y2100000D03*
X3800000Y3280000D03*
X3990000D03*
G54D18*
X1600000Y200000D03*
X2100000D03*
X2954000D03*
X3208000D03*
X3462000D03*
G54D27*
X4690000Y1884000D03*
Y2138000D03*
Y2392000D03*
Y2646000D03*
Y2900000D03*
G54D28*
G01X1384980Y1010000D02*
X1450000D01*
G01Y954980D02*
Y1010000D01*
G01D02*
Y1065020D01*
G01Y1010000D02*
X1515020D01*
G01X1414980Y1720000D02*
X1490000D01*
G01X1414980Y2330000D02*
X1520000D01*
G01X1490000Y1614980D02*
Y1720000D01*
G01D02*
Y1825020D01*
G01Y1720000D02*
X1565020D01*
G01X1520000Y2254980D02*
Y2330000D01*
G01D02*
Y2405020D01*
G01X1714980Y510000D02*
X1790000D01*
G01Y404980D02*
Y510000D01*
G01D02*
Y615020D01*
G01Y510000D02*
X1865020D01*
G01X1780000Y2254980D02*
Y2330000D01*
G01D02*
Y2405020D01*
G01X1954980Y560000D02*
X2060000D01*
G01X2100000Y320020D02*
Y300000D01*
G01X2060000Y484980D02*
Y560000D01*
G01D02*
Y635020D01*
G01Y560000D02*
X2165020D01*
G01X2054980Y990000D02*
X2160000D01*
G01X2014980Y1530000D02*
X2120000D01*
G01X2040000Y2254980D02*
Y2330000D01*
G01D02*
Y2405020D01*
G01Y2330000D02*
X2145020D01*
G01X2120000Y1454980D02*
Y1530000D01*
G01D02*
Y1605020D01*
G01Y1530000D02*
X2225020D01*
G01X2160000Y914980D02*
Y990000D01*
G01D02*
Y1065020D01*
G01Y990000D02*
X2265020D01*
G01X2274980D02*
X2380000D01*
G01Y914980D02*
Y990000D01*
G01D02*
Y1065020D01*
G01Y990000D02*
X2485020D01*
G01X2494980D02*
X2600000D01*
G01Y914980D02*
Y990000D01*
G01D02*
Y1065020D01*
G01X2833980Y200000D02*
X2954000D01*
G01X2814980Y530000D02*
X2890000D01*
G01X2814980Y780000D02*
X2890000D01*
G01Y424980D02*
Y530000D01*
G01D02*
Y635020D01*
G01Y530000D02*
X2965020D01*
G01X2890000Y674980D02*
Y780000D01*
G01D02*
Y885020D01*
G01Y780000D02*
X2965020D01*
G01X2954000Y79980D02*
Y200000D01*
G01D02*
Y320020D01*
G01Y200000D02*
X3074020D01*
G01X3174980Y4520000D02*
X3280000D01*
G01Y4444980D02*
Y4520000D01*
G01D02*
Y4595020D01*
G01Y4520000D02*
X3385020D01*
G01X3364980Y2480000D02*
X3470000D01*
G01Y2404980D02*
Y2480000D01*
G01D02*
Y2555020D01*
G01Y2480000D02*
X3575020D01*
G01X3790000Y1994980D02*
Y2010000D01*
G01X3934980Y3970000D02*
X4010000D01*
G01Y3849980D02*
Y3970000D01*
G01D02*
Y4090020D01*
G01Y3970000D02*
X4085020D01*
G01X4264980Y2830000D02*
X4370000D01*
G01X4930020Y600000D02*
X4886720D01*
G01X4400000Y69980D02*
Y90000D01*
G01X4370000Y2754980D02*
Y2830000D01*
G01D02*
Y2905020D01*
G01Y2830000D02*
X4475020D01*
G54D19*
G01X1600000Y200000D02*
Y510000D01*
G01D02*
Y750000D01*
G01X1790000D02*
X2060000D01*
G01X2100000Y200000D02*
X1979980D01*
G01X2100000D02*
X2220020D01*
G01X2100000Y300000D02*
Y200000D01*
G01X2700000D02*
Y530000D01*
G01Y780000D02*
Y530000D01*
X1910000Y1210000D03*
X2055000Y3160000D03*
X2440000Y690000D03*
X2480000Y2830000D03*
X2570000Y530000D03*
X2790000Y2830000D03*
X3680000Y2650000D03*
X3980000Y4200000D03*
X4180000Y3720000D03*
X4230000Y1820000D03*
X4190000Y3280000D03*
G54D29*
G01X2370000Y1775000D02*
X2175000D01*
X2120000Y1720000D01*
G01X2370000Y1725000D02*
X2279980D01*
G01X2370000D02*
X2460020D01*
G01X2725000Y2430000D02*
Y2339980D01*
G01X2775000Y2430000D02*
Y2305000D01*
X2777300Y2302700D01*
Y2300000D01*
G01X3230000Y1975000D02*
X3139980D01*
G01X3130000Y2120000D02*
X3135000Y2125000D01*
G01D02*
X3230000D01*
G01X3120000Y2170000D02*
X3125000Y2175000D01*
G01D02*
X3230000D01*
G01Y1975000D02*
X3320020D01*
G01X3230000Y2075000D02*
X3345000D01*
X3390000Y2120000D01*
X3500000D01*
X3520000Y2100000D01*
X3600000D01*
G01X3315000Y2125000D02*
X3230000D01*
G01X3470000Y2290000D02*
X3440000D01*
X3375000Y2225000D01*
X3230000D01*
G01X3320000Y2130000D02*
X3315000Y2125000D01*
M02*
