G04 ================== begin FILE IDENTIFICATION RECORD ==================*
G04 Layout Name:  G:/Geek/Projects/remote_car/PCB/ti_foc_motor.brd*
G04 Film Name:    SOLDERMASK_BOTTOM*
G04 File Format:  Gerber RS274X*
G04 File Origin:  Cadence Allegro 16.6-S008*
G04 Origin Date:  Mon Jan 08 21:58:01 2018*
G04 *
G04 Layer:  VIA CLASS/SOLDERMASK_BOTTOM*
G04 Layer:  PIN/SOLDERMASK_BOTTOM*
G04 Layer:  PACKAGE GEOMETRY/SOLDERMASK_BOTTOM*
G04 Layer:  DRC ERROR CLASS/SOLDERMASK_BOTTOM*
G04 Layer:  BOARD GEOMETRY/SOLDERMASK_BOTTOM*
G04 *
G04 Offset:    (0.0000 0.0000)*
G04 Mirror:    No*
G04 Mode:      Positive*
G04 Rotation:  0*
G04 FullContactRelief:  No*
G04 UndefLineWidth:     0.2000*
G04 ================== end FILE IDENTIFICATION RECORD ====================*
%FSLAX25Y25*MOMM*%
%IR0*IPPOS*OFA0.00000B0.00000*MIA0B0*SFA1.00000B1.00000*%
%ADD20R,.3X1.4*%
%ADD19R,1.4X.3*%
%ADD10C,11.*%
%ADD14R,1.X1.7*%
%ADD11R,1.7X1.*%
%ADD17R,1.2X1.9*%
%ADD15R,1.7X2.4*%
%ADD16R,7.2X7.2*%
%ADD12R,3.8X1.8*%
%ADD23C,1.7*%
%ADD13R,.7X.9*%
%ADD18C,1.9*%
%ADD22R,1.7X1.7*%
%ADD21R,1.9X1.9*%
%LPD*%
G75*
G54D10*
X600000Y600000D03*
X1000000Y6900000D03*
X2700000D03*
X4400000Y600000D03*
Y6900000D03*
G54D11*
X250000Y6610000D03*
Y6800000D03*
Y7060000D03*
Y7250000D03*
X1400000Y3670000D03*
Y3860000D03*
X1620000Y3580000D03*
Y3770000D03*
X1840000Y3480000D03*
Y3670000D03*
X1950000Y6610000D03*
Y6800000D03*
Y7060000D03*
Y7250000D03*
X2060000Y3380000D03*
Y3570000D03*
X2910000Y2300000D03*
Y2490000D03*
X3650000Y6610000D03*
Y6800000D03*
Y7060000D03*
Y7250000D03*
X4380000Y1940000D03*
Y2130000D03*
G54D20*
X2525000Y3370000D03*
Y4230000D03*
X2575000Y3370000D03*
Y4230000D03*
X2625000Y3370000D03*
X2675000D03*
Y4230000D03*
X2625000D03*
X2725000Y3370000D03*
Y4230000D03*
X2775000Y3370000D03*
Y4230000D03*
X2825000Y3370000D03*
X2875000D03*
Y4230000D03*
X2825000D03*
X2925000Y3370000D03*
Y4230000D03*
X2975000Y3370000D03*
Y4230000D03*
X3025000Y3370000D03*
X3075000D03*
Y4230000D03*
X3025000D03*
G54D21*
X2700000Y200000D03*
G54D12*
X390000Y5090000D03*
Y5730000D03*
X2090000Y5090000D03*
Y5730000D03*
X3790000Y5090000D03*
Y5730000D03*
G54D22*
X4690000Y1630000D03*
G54D13*
X250000Y6150000D03*
Y6380000D03*
X1950000Y6150000D03*
Y6380000D03*
X3650000Y6150000D03*
Y6380000D03*
G54D23*
X4690000Y1884000D03*
Y2138000D03*
Y2392000D03*
Y2646000D03*
Y2900000D03*
G54D14*
X680000Y4740000D03*
X870000D03*
X2120000Y3000000D03*
X2310000D03*
X2380000Y4780000D03*
X2570000Y850000D03*
Y4780000D03*
X2700000Y530000D03*
X2760000Y850000D03*
X2890000Y530000D03*
X2930000Y850000D03*
X3120000D03*
X3620000Y4220000D03*
X3800000Y3280000D03*
Y3500000D03*
Y3720000D03*
Y3970000D03*
X3810000Y4220000D03*
X3790000Y4760000D03*
X3980000D03*
X3990000Y3280000D03*
Y3500000D03*
Y3720000D03*
Y3970000D03*
G54D15*
X870000Y5090000D03*
X2570000D03*
X4270000D03*
G54D16*
X1100000Y5850000D03*
X2800000D03*
X4500000D03*
G54D17*
X1330000Y5080000D03*
X3030000D03*
X4730000D03*
G54D18*
X1600000Y200000D03*
X2100000D03*
X2954000D03*
X3208000D03*
X3462000D03*
G54D19*
X2370000Y3525000D03*
Y3575000D03*
Y3675000D03*
Y3625000D03*
Y3725000D03*
Y3775000D03*
Y3875000D03*
Y3825000D03*
Y3925000D03*
Y3975000D03*
Y4075000D03*
Y4025000D03*
X3230000Y3525000D03*
Y3575000D03*
Y3625000D03*
Y3675000D03*
Y3725000D03*
Y3775000D03*
Y3825000D03*
Y3875000D03*
Y3925000D03*
Y3975000D03*
Y4025000D03*
Y4075000D03*
M02*
