G04 ================== begin FILE IDENTIFICATION RECORD ==================*
G04 Layout Name:  G:/Geek/Projects/remote_car/PCB/PCB_DRV8301/ti_foc_motor_8301.brd*
G04 Film Name:    BOTTOM*
G04 File Format:  Gerber RS274X*
G04 File Origin:  Cadence Allegro 17.2-P019*
G04 Origin Date:  Sat Mar 03 21:35:29 2018*
G04 *
G04 Layer:  ETCH/BOTTOM*
G04 Layer:  PIN/BOTTOM*
G04 Layer:  VIA CLASS/BOTTOM*
G04 *
G04 Offset:    (0.0000 0.0000)*
G04 Mirror:    No*
G04 Mode:      Positive*
G04 Rotation:  0*
G04 FullContactRelief:  No*
G04 UndefLineWidth:     0.2000*
G04 ================== end FILE IDENTIFICATION RECORD ====================*
%FSLAX25Y25*MOMM*%
%IR0*IPPOS*OFA0.00000B0.00000*MIA0B0*SFA1.00000B1.00000*%
%ADD24R,.25X1.2*%
%ADD23R,1.2X.25*%
%ADD27R,2.1X.8*%
%ADD26R,.8X1.4*%
%ADD25R,1.4X.8*%
%ADD18R,.9X1.5*%
%ADD16R,1.5X.8*%
%ADD17R,1.5X.9*%
%ADD11C,.6*%
%ADD19R,1.X1.7*%
%ADD15R,1.5X2.2*%
%ADD14R,7.X7.*%
%ADD12C,1.*%
%ADD13R,1.6X3.6*%
%ADD20R,.7X.5*%
%ADD22C,1.8*%
%ADD10C,3.6*%
%ADD21R,1.8X1.8*%
%ADD28C,.2*%
%ADD29C,.3*%
%ADD30C,.5*%
%ADD31C,.25*%
%ADD32C,2.5*%
%ADD33C,1.0004*%
%ADD34C,1.4004*%
G75*
%LPD*%
G75*
G36*
G01X381040Y50010D02*
G02X367310Y84550I-2J19998D01*
G03X84550Y367310I-137310J145450D01*
G02X50010Y381040I-14542J13728D01*
G01Y3562890D01*
G02X75720Y3582060I19999J4D01*
G03X116770Y3587750I14274J47939D01*
G02X147480Y3570860I10709J-16892D01*
G01Y3528010D01*
G03X171210Y3440760I32519J-38008D01*
G02X181840Y3406930I-3513J-19689D01*
G01X164980Y3390070D01*
Y3020000D01*
G03X209980Y2914990I145023J0D01*
G01Y2840000D01*
G03X230000Y2819980I20020J0D01*
G01X390000D01*
G03X410020Y2840000I0J20020D01*
G01Y2914990D01*
G03X450100Y2982560I-100025J105003D01*
G01X452090Y2989980D01*
X517570D01*
X630310Y2877240D01*
X630060Y2872780D01*
G03X677220Y2919940I49940J-2780D01*
G01X672760Y2919690D01*
X542430Y3050020D01*
X455020D01*
Y3262100D01*
X458350Y3265080D01*
G03X464790Y3276960I-13349J14922D01*
G01X465290Y3280200D01*
X472540Y3287460D01*
G03X465020Y3499560I-102541J102548D01*
G03X445000Y3520020I-20020J435D01*
G01X434270D01*
X432230Y3520990D01*
G03X307770I-62230J-130990D01*
G01X305730Y3520020D01*
X295000D01*
G03X274980Y3499560I0J-20025D01*
G03X267460Y3492540I95137J-109451D01*
G01X263070Y3488160D01*
G02X229240Y3498790I-14141J14143D01*
G03X212520Y3528010I-49243J-8784D01*
G01Y3716530D01*
X275970Y3779980D01*
X950000D01*
G03X970020Y3800000I0J20020D01*
G01Y4116720D01*
G02X998580Y4134800I20000J4D01*
G03X1041420I21420J45200D01*
G02X1069980Y4116720I8560J-18076D01*
G01Y4067580D01*
X1537590Y3599970D01*
X3297580D01*
X3404290Y3493250D01*
X3392740Y3481700D01*
X3386770Y3483840D01*
G03X3380000Y3485020I-6770J-18831D01*
G01X3280000D01*
G03X3259980Y3465000I0J-20020D01*
G01Y3317430D01*
X2999980Y3057430D01*
Y2950010D01*
G03X3060020I30020J-40010D01*
G01Y3032570D01*
X3302430Y3274980D01*
X3380000D01*
G03X3400020Y3295000I0J20020D01*
G01Y3465000D01*
G03X3398840Y3471770I-20011J0D01*
G01X3396700Y3477740D01*
X3408250Y3489290D01*
X3549980Y3347570D01*
Y2727430D01*
X3199490Y2376950D01*
G02X3170180Y2378050I-14145J14138D01*
G03X3155000Y2385020I-15180J-13045D01*
G01X3005000D01*
G03X2984980Y2365000I0J-20020D01*
G01Y2350020D01*
X2922430D01*
X2872430Y2400020D01*
X2272570D01*
X1794980Y1922430D01*
Y1900010D01*
X1705020D01*
Y1922430D01*
X1497430Y2130020D01*
X1455020D01*
Y2175000D01*
G03X1450630Y2187510I-20020J0D01*
G02Y2212490I15620J12490D01*
G03X1455020Y2225000I-15630J12510D01*
G01Y2375000D01*
G03X1435000Y2395020I-20020J0D01*
G01X1345000D01*
G03X1324980Y2375000I0J-20020D01*
G01Y2225000D01*
G03X1329370Y2212490I20020J0D01*
G02Y2187510I-15620J-12490D01*
G03X1324980Y2175000I15630J-12510D01*
G01Y2025000D01*
G03X1345000Y2004980I20020J0D01*
G01X1435000D01*
G03X1455020Y2025000I0J20020D01*
G01Y2069980D01*
X1472570D01*
X1608390Y1934150D01*
G02X1594250Y1900010I-14140J-14142D01*
G01X1542490D01*
Y1739990D01*
X1594980D01*
Y1717570D01*
X1632570Y1679980D01*
X1936720D01*
G02X1954800Y1651420I4J-20000D01*
G03X1952440Y1645510I45181J-21468D01*
G02X1940780Y1638840I-9508J3095D01*
G03X1879980Y1590010I-10781J-48843D01*
G02X1859980Y1570020I-20000J10D01*
G01X1739290D01*
G02X1719500Y1592870I5J19999D01*
G03X1670000Y1650010I-49500J7129D01*
G01X1580000D01*
G03Y1549990I0J-50010D01*
G01X1583390D01*
G02X1590460Y1532920I1J-9999D01*
G01X1549980Y1492430D01*
Y1490260D01*
X1546650Y1487280D01*
G03X1559600Y1404330I33350J-37279D01*
G02X1564600Y1391000I-4075J-9131D01*
G03X1592260Y1323230I45399J-21000D01*
G01X1594270Y1322470D01*
X1602860Y1313880D01*
X1584000Y1295020D01*
X1500010D01*
Y1697510D01*
X1339990D01*
Y1695020D01*
X1162430D01*
X1087430Y1770020D01*
X1065020D01*
Y1815000D01*
G03X1045000Y1835020I-20020J0D01*
G01X955000D01*
G03X934980Y1815000I0J-20020D01*
G01Y1665000D01*
G03X939370Y1652490I20020J0D01*
G02Y1627510I-15620J-12490D01*
G03X934980Y1615000I15630J-12510D01*
G01Y1465000D01*
G03X939370Y1452490I20020J0D01*
G02Y1427510I-15620J-12490D01*
G03X934980Y1415000I15630J-12510D01*
G01Y1265000D01*
G03X939370Y1252490I20020J0D01*
G02Y1227510I-15620J-12490D01*
G03X934980Y1215000I15630J-12510D01*
G01Y1065000D01*
G03X955000Y1044980I20020J0D01*
G01X1045000D01*
G03X1065020Y1065000I0J20020D01*
G01Y1088370D01*
G02X1082090Y1095440I9999J1D01*
G01X1147560Y1029980D01*
X1542490D01*
Y879990D01*
X1544980D01*
Y812570D01*
X1463930Y731530D01*
G02X1429860Y744050I-14139J14141D01*
G03X1331140Y729300I-49856J-4055D01*
G02X1311600Y705020I-19537J-4280D01*
G01X1275000D01*
G03X1262490Y700630I0J-20020D01*
G02X1237510I-12490J15620D01*
G03X1234250Y702750I-12492J-15643D01*
G02X1225360Y728920I9246J17736D01*
G03X1133270Y732150I-45362J21079D01*
G02X1114590Y705020I-18684J-7131D01*
G01X1075000D01*
G03X1062490Y700630I0J-20020D01*
G02X1037510I-12490J15620D01*
G03X1025000Y705020I-12510J-15630D01*
G01X1019840D01*
G02X999890Y726440I0J20001D01*
G03X900110I-49890J3560D01*
G02X880160Y705020I-19950J-1419D01*
G01X875000D01*
G03X870010Y704390I-7J-20021D01*
G02X845020Y723760I-4991J19366D01*
G01Y735000D01*
G03X825000Y755020I-20020J0D01*
G01X819840D01*
G02X799890Y776440I0J20001D01*
G03X700110I-49890J3560D01*
G02X680160Y755020I-19950J-1419D01*
G01X675000D01*
G03X654980Y735000I0J-20020D01*
G01Y645000D01*
G03X675000Y624980I20020J0D01*
G01X825000D01*
G03X829990Y625610I7J20021D01*
G02X854980Y606240I4991J-19366D01*
G01Y595000D01*
G03X875000Y574980I20020J0D01*
G01X1025000D01*
G03X1037510Y579370I0J20020D01*
G02X1062490I12490J-15620D01*
G03X1075000Y574980I12510J15630D01*
G01X1225000D01*
G03X1237510Y579370I0J20020D01*
G02X1262490I12490J-15620D01*
G03X1275000Y574980I12510J15630D01*
G01X1429980D01*
Y515020D01*
X1275000D01*
G03X1262490Y510630I0J-20020D01*
G02X1237510I-12490J15620D01*
G03X1225000Y515020I-12510J-15630D01*
G01X1075000D01*
G03X1062490Y510630I0J-20020D01*
G02X1037510I-12490J15620D01*
G03X1025000Y515020I-12510J-15630D01*
G01X875000D01*
G03X870010Y514390I-7J-20021D01*
G02X845020Y533760I-4991J19366D01*
G01Y545000D01*
G03X825000Y565020I-20020J0D01*
G01X675000D01*
G03X654980Y545000I0J-20020D01*
G01Y455000D01*
G03X675000Y434980I20020J0D01*
G01X714980D01*
Y365020D01*
X675000D01*
G03X654980Y345000I0J-20020D01*
G01Y255000D01*
G03X675000Y234980I20020J0D01*
G01X825000D01*
G03X845020Y255000I0J20020D01*
G01Y345000D01*
G03X825000Y365020I-20020J0D01*
G01X785020D01*
Y434980D01*
X825000D01*
G03X829990Y435610I7J20021D01*
G02X854980Y416240I4991J-19366D01*
G01Y405000D01*
G03X875000Y384980I20020J0D01*
G01X1025000D01*
G03X1037510Y389370I0J20020D01*
G02X1062490I12490J-15620D01*
G03X1075000Y384980I12510J15630D01*
G01X1144280D01*
X1149980Y379280D01*
Y310020D01*
X1110000D01*
G03X1089980Y290000I0J-20020D01*
G01Y110000D01*
G03X1110000Y89980I20020J0D01*
G01X1290000D01*
G03X1310020Y110000I0J20020D01*
G01Y290000D01*
G03X1290000Y310020I-20020J0D01*
G01X1250020D01*
Y365290D01*
G02X1272510Y385140I20001J4D01*
G03X1275000Y384980I2526J19858D01*
G01X1425000D01*
G03X1431310Y386000I0J20028D01*
G01X1437170Y387950D01*
X1481660Y343460D01*
G02X1465440Y309420I-14141J-14146D01*
G03X1555540Y242350I-11440J-109422D01*
G01X1552960Y248540D01*
X1564770Y260350D01*
X1570280Y254840D01*
X1582740D01*
G02X1602000Y229480I-7J-19999D01*
G03X1660600Y299280I105994J-29488D01*
G01X1654220Y296240D01*
X1635570Y314880D01*
X1595140D01*
X1559190Y350840D01*
G02X1573330Y384980I14140J14142D01*
G01X1655000D01*
G03X1672450Y395190I0J20017D01*
G02X1699940Y402690I17439J-9791D01*
G03X1710000Y399980I10060J17317D01*
G01X1734980D01*
Y391350D01*
X1811350Y314980D01*
X1838100D01*
X1840010Y314150D01*
G03X1909890Y363560I19988J45851D01*
G02X1929840Y384980I19950J1419D01*
G01X2065000D01*
G03X2068320Y385260I-17J20019D01*
G01X2069140Y385400D01*
X2079980D01*
Y360430D01*
X2015620Y296070D01*
G03X2061280Y247400I-53627J-96064D01*
G01X2058240Y253780D01*
X2127910Y323450D01*
G02X2144980Y316380I7071J-7069D01*
G01Y305000D01*
G03X2165000Y284980I20020J0D01*
G01X2315000D01*
G03X2335020Y305000I0J20020D01*
G01Y395000D01*
G03X2334880Y397400I-20022J36D01*
G01X2334290Y402230D01*
X2344800Y412740D01*
X2384980Y372570D01*
Y305000D01*
G03X2405000Y284980I20020J0D01*
G01X2555000D01*
G03X2575020Y305000I0J20020D01*
G01Y395000D01*
G03X2555000Y415020I-20020J0D01*
G01X2427430D01*
X2390020Y452430D01*
Y475400D01*
X2400860D01*
X2401680Y475260D01*
G03X2405000Y474980I3337J19739D01*
G01X2555000D01*
G03X2575020Y495000I0J20020D01*
G01Y554240D01*
G02X2609160Y568380I19998J0D01*
G01X2629980Y547570D01*
Y517570D01*
X2694980Y452570D01*
Y385000D01*
G03X2715000Y364980I20020J0D01*
G01X2865000D01*
G03X2885020Y385000I0J20020D01*
G01Y475000D01*
G03X2865000Y495020I-20020J0D01*
G01X2737430D01*
X2690020Y542430D01*
Y558980D01*
X2702690D01*
X2705010Y557650D01*
G03X2715000Y554980I9990J17354D01*
G01X2865000D01*
G03X2885020Y575000I0J20020D01*
G01Y589980D01*
X2934980D01*
Y575000D01*
G03X2955000Y554980I20020J0D01*
G01X3105000D01*
G03X3125020Y575000I0J20020D01*
G01Y665000D01*
G03X3105000Y685020I-20020J0D01*
G01X3060020D01*
Y712430D01*
X2972430Y800020D01*
X2772430D01*
X2754550Y817910D01*
G02X2761620Y834980I7069J7071D01*
G01X2825000D01*
G03X2845020Y855000I0J20020D01*
G01Y905000D01*
G03X2825000Y925020I-20020J0D01*
G01X2755000D01*
G03X2734980Y905000I0J-20020D01*
G01Y885760D01*
G02X2700840Y871620I-19998J0D01*
G01X2690020Y882430D01*
Y1039990D01*
G03X2706490Y1061550I-30023J40006D01*
G02X2739230Y1068320I18594J-7371D01*
G01X2807570Y999980D01*
X2952890D01*
G02X2972060Y974270I2J-20000D01*
G03X2976760Y934850I47940J-14274D01*
G02X2973740Y921550I-8643J-5030D01*
G03X2964980Y905000I11254J-16550D01*
G01Y855000D01*
G03X2985000Y834980I20020J0D01*
G01X3055000D01*
G03X3072330Y844980I0J20016D01*
G01X3075220Y849980D01*
X3174980D01*
Y835000D01*
G03X3195000Y814980I20020J0D01*
G01X3345000D01*
G03X3365020Y835000I0J20020D01*
G01Y849980D01*
X3722430D01*
X3915850Y1043390D01*
G02X3949990Y1029250I14142J-14140D01*
G01Y381040D01*
G02X3915450Y367310I-19998J-2D01*
G03X3632690Y84550I-145450J-137310D01*
G02X3618960Y50010I-13728J-14542D01*
G01X3252500D01*
G02X3236740Y82310I6J19998D01*
G03X3063260I-86740J67690D01*
G02X3047500Y50010I-15766J-12302D01*
G01X2752500D01*
G02X2736740Y82310I6J19998D01*
G03X2563260I-86740J67690D01*
G02X2547500Y50010I-15766J-12302D01*
G01X844600D01*
Y60850D01*
X844740Y61670D01*
G03X845020Y65000I-19739J3337D01*
G01Y155000D01*
G03X825000Y175020I-20020J0D01*
G01X675000D01*
G03X654980Y155000I0J-20020D01*
G01Y65000D01*
G03X655260Y61670I20019J7D01*
G01X655400Y60850D01*
Y50010D01*
X381040D01*
G37*
G36*
G01X1130020Y4576150D02*
Y4674780D01*
X1135020Y4677670D01*
G03X1145020Y4695000I-10016J17330D01*
G01Y4845000D01*
G03X1125000Y4865020I-20020J0D01*
G01X1035000D01*
G03X1014980Y4845000I0J-20020D01*
G01Y4800020D01*
X935020D01*
Y4845000D01*
G03X915000Y4865020I-20020J0D01*
G01X825000D01*
G03X804980Y4845000I0J-20020D01*
G01Y4695000D01*
G03X825000Y4674980I20020J0D01*
G01X915000D01*
G03X935020Y4695000I0J20020D01*
G01Y4739980D01*
X1014980D01*
Y4695000D01*
G03X1035000Y4674980I20020J0D01*
G01X1069980D01*
Y4576150D01*
X1061650Y4574740D01*
G03X1044980Y4555000I3353J-19740D01*
G01Y4505000D01*
G03X1061650Y4485260I20023J0D01*
G01X1069980Y4483850D01*
Y4243280D01*
G02X1041420Y4225200I-20000J-4D01*
G03X998580I-21420J-45200D01*
G02X970020Y4243280I-8560J18076D01*
G01Y4500000D01*
G03X950000Y4520020I-20020J0D01*
G01X570020D01*
Y4739980D01*
X614980D01*
Y4695000D01*
G03X635000Y4674980I20020J0D01*
G01X725000D01*
G03X745020Y4695000I0J20020D01*
G01Y4845000D01*
G03X725000Y4865020I-20020J0D01*
G01X635000D01*
G03X614980Y4845000I0J-20020D01*
G01Y4800020D01*
X567930D01*
X566360Y4808110D01*
G03X507310Y4915450I-196359J-38109D01*
G02X521040Y4949990I13728J14542D01*
G01X1468960D01*
G02X1482690Y4915450I2J-19998D01*
G03X1419980Y4770000I137324J-145450D01*
G01Y4297150D01*
X1479980Y4237150D01*
Y3800000D01*
G03X1500000Y3779980I20020J0D01*
G01X2200000D01*
G03X2220020Y3800000I0J20020D01*
G01Y4029340D01*
G02X2250010Y4046670I20000J4D01*
G03X2309700Y4053970I24992J43330D01*
G01X2316770Y4060780D01*
X2683390Y3694150D01*
G02X2669250Y3660010I-14140J-14142D01*
G01X1562450D01*
X1130020Y4092440D01*
Y4483850D01*
X1138350Y4485260D01*
G03X1155020Y4505000I-3353J19740D01*
G01Y4555000D01*
G03X1138350Y4574740I-20023J0D01*
G01X1130020Y4576150D01*
G37*
G36*
G01X1172420Y1090020D02*
X1092420Y1170020D01*
X1065020D01*
Y1192570D01*
X1157430Y1284980D01*
X1339990D01*
Y1090020D01*
X1172420D01*
G37*
G36*
G01X1065020Y1396620D02*
Y1415000D01*
G03X1060630Y1427510I-20020J0D01*
G02Y1452490I15620J12490D01*
G03X1065020Y1465000I-15630J12510D01*
G01Y1481880D01*
X1076290D01*
X1077520Y1481560D01*
G03X1086440Y1579890I12481J48437D01*
G02X1065020Y1599840I-1419J19950D01*
G01Y1615000D01*
G03X1060630Y1627510I-20020J0D01*
G02Y1652490I15620J12490D01*
G03X1065020Y1665000I-15630J12510D01*
G01Y1683380D01*
G02X1082090Y1690450I9999J1D01*
G01X1137570Y1634980D01*
X1339990D01*
Y1445020D01*
X1137570D01*
X1082090Y1389550D01*
G02X1065020Y1396620I-7071J7069D01*
G37*
G36*
G01X1894980Y404570D02*
X1882800D01*
X1880820Y405480D01*
G03X1876530Y407210I-20832J-45475D01*
G02X1869890Y417760I3300J9441D01*
G03X1870020Y420000I-19888J2278D01*
G01Y500000D01*
G03X1850000Y520020I-20020J0D01*
G01X1710000D01*
G03X1694930Y513180I0J-20021D01*
G02X1667450Y510680I-15052J13168D01*
G03X1655000Y515020I-12450J-15687D01*
G01X1505000D01*
G03X1501680Y514740I17J-20019D01*
G01X1500860Y514600D01*
X1490020D01*
Y575400D01*
X1500860D01*
X1501680Y575260D01*
G03X1505000Y574980I3337J19739D01*
G01X1655000D01*
G03X1673870Y588320I0J20016D01*
G01X1676230Y594980D01*
X1689780D01*
X1692670Y589980D01*
G03X1710000Y579980I17330J10016D01*
G01X1850000D01*
G03X1870020Y600000I0J20020D01*
G01Y680000D01*
G03X1850000Y700020I-20020J0D01*
G01X1710000D01*
G03X1692670Y690020I0J-20016D01*
G01X1689780Y685020D01*
X1676230D01*
X1673870Y691680D01*
G03X1655000Y705020I-18870J-6676D01*
G01X1640150D01*
G02X1633080Y722090I2J10000D01*
G01X1657520Y746530D01*
Y879990D01*
X1744980D01*
Y852570D01*
X1898910Y698630D01*
X1896440Y692500D01*
G03X1894980Y685000I18559J-7505D01*
G01Y595000D01*
G03X1915000Y574980I20020J0D01*
G01X2065000D01*
G03X2068320Y575260I-17J20019D01*
G01X2069140Y575400D01*
X2079980D01*
Y514600D01*
X2069140D01*
X2068320Y514740D01*
G03X2065000Y515020I-3337J-19739D01*
G01X1915000D01*
G03X1894980Y495000I0J-20020D01*
G01Y404570D01*
G37*
G36*
G01X1716610Y1074150D02*
X1742430Y1099980D01*
X1760000D01*
G03X1850010Y1130000I39999J30020D01*
G01Y1140830D01*
X1860850D01*
X1861670Y1140690D01*
G03X1891420Y1144810I8331J49311D01*
G02X1919980Y1126730I8560J-18075D01*
G01Y1087500D01*
X1933320Y1074150D01*
G02X1919180Y1040010I-14140J-14142D01*
G01X1730750D01*
G02X1716610Y1074150I0J19998D01*
G37*
G36*
G01X3949990Y1660750D02*
G02X3915850Y1646610I-19998J0D01*
G01X3582430Y1980020D01*
X3087570D01*
X2937570Y1830020D01*
X2217580D01*
X2191650Y1804100D01*
G02X2157510Y1818240I-14142J14140D01*
G01Y1900090D01*
G02X2145140Y1934150I1774J19921D01*
G01X2158470Y1947480D01*
X2364980D01*
Y1905000D01*
G03X2385000Y1884980I20020J0D01*
G01X2475000D01*
G03X2495020Y1905000I0J20020D01*
G01Y2055000D01*
G03X2490160Y2068080I-20031J0D01*
G02X2487660Y2090570I15140J13067D01*
G03X2490020Y2100000I-17660J9430D01*
G01Y2240000D01*
G03X2488880Y2246660I-20024J0D01*
G01X2488310Y2248270D01*
Y2259980D01*
X2551690D01*
Y2248270D01*
X2551120Y2246660D01*
G03X2549980Y2240000I18884J-6660D01*
G01Y2100000D01*
G03X2554840Y2086920I20031J0D01*
G02X2557340Y2064430I-15140J-13067D01*
G03X2554980Y2055000I17660J-9430D01*
G01Y1905000D01*
G03X2575000Y1884980I20020J0D01*
G01X2665000D01*
G03X2685020Y1905000I0J20020D01*
G01Y2055000D01*
G03X2663240Y2074940I-20018J0D01*
G02X2697220Y2091610I19838J2530D01*
G01X2741940Y2046890D01*
Y2014390D01*
X2792680Y1963650D01*
X2793440Y1961710D01*
G03X2858290Y2026560I46560J18290D01*
G01X2856350Y2027320D01*
X2831980Y2051690D01*
Y2084190D01*
X2701150Y2215020D01*
X2670020D01*
Y2240000D01*
G03X2668880Y2246660I-20024J0D01*
G01X2668310Y2248270D01*
Y2259980D01*
X2787570D01*
X2872570Y2174980D01*
X2984980D01*
Y2085000D01*
G03X3005000Y2064980I20020J0D01*
G01X3155000D01*
G03X3175020Y2085000I0J20020D01*
G01Y2174980D01*
X3284980D01*
Y2085000D01*
G03X3305000Y2064980I20020J0D01*
G01X3455000D01*
G03X3475020Y2085000I0J20020D01*
G01Y2174980D01*
X3547430D01*
X3627430Y2254980D01*
X3755000D01*
G03X3775020Y2275000I0J20020D01*
G01Y2365000D01*
G03X3755000Y2385020I-20020J0D01*
G01X3710020D01*
Y4472430D01*
X3655020Y4527430D01*
Y4555000D01*
G03X3638350Y4574740I-20023J0D01*
G01X3630020Y4576150D01*
Y4674780D01*
X3635020Y4677670D01*
G03X3645020Y4695000I-10016J17330D01*
G01Y4845000D01*
G03X3625000Y4865020I-20020J0D01*
G01X3535000D01*
G03X3514980Y4845000I0J-20020D01*
G01Y4800020D01*
X3435020D01*
Y4845000D01*
G03X3415000Y4865020I-20020J0D01*
G01X3325000D01*
G03X3304980Y4845000I0J-20020D01*
G01Y4695000D01*
G03X3325000Y4674980I20020J0D01*
G01X3415000D01*
G03X3435020Y4695000I0J20020D01*
G01Y4739980D01*
X3514980D01*
Y4695000D01*
G03X3535000Y4674980I20020J0D01*
G01X3569980D01*
Y4576150D01*
X3561650Y4574740D01*
G03X3544980Y4555000I3353J-19740D01*
G01Y4505000D01*
G03X3565000Y4484980I20020J0D01*
G01X3612570D01*
X3649980Y4447570D01*
Y3470760D01*
G02X3615840Y3456620I-19998J0D01*
G01X3352430Y3720020D01*
X2742430D01*
X2380020Y4082430D01*
Y4483850D01*
X2388350Y4485260D01*
G03X2405020Y4505000I-3353J19740D01*
G01Y4555000D01*
G03X2388350Y4574740I-20023J0D01*
G01X2380020Y4576150D01*
Y4674780D01*
X2385020Y4677670D01*
G03X2395020Y4695000I-10016J17330D01*
G01Y4845000D01*
G03X2375000Y4865020I-20020J0D01*
G01X2285000D01*
G03X2264980Y4845000I0J-20020D01*
G01Y4800020D01*
X2185020D01*
Y4845000D01*
G03X2165000Y4865020I-20020J0D01*
G01X2075000D01*
G03X2054980Y4845000I0J-20020D01*
G01Y4695000D01*
G03X2075000Y4674980I20020J0D01*
G01X2165000D01*
G03X2185020Y4695000I0J20020D01*
G01Y4739980D01*
X2264980D01*
Y4695000D01*
G03X2285000Y4674980I20020J0D01*
G01X2319980D01*
Y4576150D01*
X2311650Y4574740D01*
G03X2294980Y4555000I3353J-19740D01*
G01Y4505000D01*
G03X2311650Y4485260I20023J0D01*
G01X2319980Y4483850D01*
Y4377110D01*
G02X2294270Y4357940I-20000J-2D01*
G03X2242720Y4343350I-14271J-47941D01*
G01X2239740Y4340020D01*
X2220020D01*
Y4500000D01*
G03X2200000Y4520020I-20020J0D01*
G01X1820020D01*
Y4739980D01*
X1864980D01*
Y4695000D01*
G03X1885000Y4674980I20020J0D01*
G01X1975000D01*
G03X1995020Y4695000I0J20020D01*
G01Y4845000D01*
G03X1975000Y4865020I-20020J0D01*
G01X1885000D01*
G03X1864980Y4845000I0J-20020D01*
G01Y4800020D01*
X1817930D01*
X1816360Y4808110D01*
G03X1757310Y4915450I-196359J-38109D01*
G02X1771040Y4949990I13728J14542D01*
G01X2718960D01*
G02X2732690Y4915450I2J-19998D01*
G03X2669980Y4770000I137324J-145450D01*
G01Y4297150D01*
X2729980Y4237150D01*
Y4160020D01*
X2640010D01*
G03Y4099980I-40010J-30020D01*
G01X2729980D01*
Y3800000D01*
G03X2750000Y3779980I20020J0D01*
G01X3450000D01*
G03X3470020Y3800000I0J20020D01*
G01Y4111720D01*
G02X3498580Y4129800I20000J4D01*
G03Y4220200I21420J45200D01*
G02X3470020Y4238280I-8560J18076D01*
G01Y4500000D01*
G03X3450000Y4520020I-20020J0D01*
G01X3070020D01*
Y4739980D01*
X3114980D01*
Y4695000D01*
G03X3135000Y4674980I20020J0D01*
G01X3225000D01*
G03X3245020Y4695000I0J20020D01*
G01Y4845000D01*
G03X3225000Y4865020I-20020J0D01*
G01X3135000D01*
G03X3114980Y4845000I0J-20020D01*
G01Y4800020D01*
X3067930D01*
X3066360Y4808110D01*
G03X3007310Y4915450I-196359J-38109D01*
G02X3021040Y4949990I13728J14542D01*
G01X3949990D01*
Y1660750D01*
G37*
G36*
G01X2140020Y434710D02*
Y455290D01*
G02X2162510Y475140I20001J4D01*
G03X2165000Y474980I2526J19858D01*
G01X2292570D01*
X2329980Y437570D01*
Y414600D01*
X2319140D01*
X2318320Y414740D01*
G03X2315000Y415020I-3337J-19739D01*
G01X2165000D01*
G03X2162510Y414860I36J-20018D01*
G02X2140020Y434710I-2489J19846D01*
G37*
G36*
G01X2375200Y477260D02*
X2335020Y517430D01*
Y585000D01*
G03X2315000Y605020I-20020J0D01*
G01X2270020D01*
Y1012430D01*
X2234110Y1048350D01*
G02X2248250Y1082490I14140J14142D01*
G01X2360010D01*
Y1134980D01*
X2599340D01*
G02X2616670Y1104990I4J-20000D01*
G03X2629980Y1039990I43330J-24990D01*
G01Y857570D01*
X2747570Y739980D01*
X2947570D01*
X2985450Y702090D01*
G02X2978380Y685020I-7069J-7071D01*
G01X2955000D01*
G03X2934980Y665000I0J-20020D01*
G01Y650020D01*
X2885020D01*
Y665000D01*
G03X2865000Y685020I-20020J0D01*
G01X2715000D01*
G03X2694980Y665000I0J-20020D01*
G01Y615760D01*
G02X2660840Y601620I-19998J0D01*
G01X2449690Y812760D01*
X2449940Y817220D01*
G03X2361770Y787750I-49940J2783D01*
G02X2358910Y759180I-15288J-12898D01*
G03X2392780Y670060I31093J-39179D01*
G01X2397240Y670310D01*
X2428380Y639160D01*
G02X2414240Y605020I-14140J-14142D01*
G01X2405000D01*
G03X2384980Y585000I0J-20020D01*
G01Y495000D01*
G03X2385120Y492600I20022J-36D01*
G01X2385710Y487770D01*
X2375200Y477260D01*
G37*
G36*
G01X2832430Y1060020D02*
X2797260Y1095200D01*
X2807770Y1105710D01*
X2812600Y1105120D01*
G03X2815000Y1104980I2364J19882D01*
G01X2905000D01*
G03X2925020Y1125000I0J20020D01*
G01Y1252570D01*
X3190850Y1518390D01*
G02X3224990Y1504250I14142J-14140D01*
G01Y1230650D01*
G02X3195000Y1213330I-19998J3D01*
G03X3170090Y1220020I-24991J-43332D01*
G01X3165960Y1220030D01*
X3153470Y1232520D01*
X3115020D01*
Y1275000D01*
G03X3095000Y1295020I-20020J0D01*
G01X3005000D01*
G03X2984980Y1275000I0J-20020D01*
G01Y1125000D01*
G03X3005000Y1104980I20020J0D01*
G01X3095000D01*
G03X3115020Y1125000I0J20020D01*
G01Y1140260D01*
X3129530D01*
X3132510Y1136880D01*
G03X3169910Y1119980I37485J33121D01*
G01X3174040Y1119970D01*
X3207530Y1086480D01*
X3224990D01*
Y1060020D01*
X2832430D01*
G37*
G36*
G01X3194600Y1690020D02*
Y1700860D01*
X3194740Y1701680D01*
G03X3195020Y1705000I-19739J3337D01*
G01Y1832570D01*
X3242430Y1879980D01*
X3258980D01*
Y1867310D01*
X3257650Y1864990D01*
G03X3254980Y1855000I17354J-9990D01*
G01Y1705000D01*
G03X3255260Y1701680I20019J17D01*
G01X3255400Y1700860D01*
Y1690020D01*
X3194600D01*
G37*
G36*
G01X3647440Y1560010D02*
X3517430Y1690020D01*
X3384600D01*
Y1700860D01*
X3384740Y1701680D01*
G03X3385020Y1705000I-19739J3337D01*
G01Y1855000D01*
G03X3384860Y1857490I-20018J-36D01*
G02X3404710Y1879980I19846J2489D01*
G01X3527560D01*
X3813380Y1594150D01*
G02X3799240Y1560010I-14140J-14142D01*
G01X3647440D01*
G37*
%LPC*%
G75*
G36*
G01X3289980Y2840000D02*
Y3200000D01*
G02X3310000Y3220020I20020J0D01*
G01X3470000D01*
G02X3490020Y3200000I0J-20020D01*
G01Y2840000D01*
G02X3470000Y2819980I-20020J0D01*
G01X3310000D01*
G02X3289980Y2840000I0J20020D01*
G37*
G36*
G01X2079980D02*
Y3200000D01*
G02X2100000Y3220020I20020J0D01*
G01X2260000D01*
G02X2280020Y3200000I0J-20020D01*
G01Y2840000D01*
G02X2260000Y2819980I-20020J0D01*
G01X2100000D01*
G02X2079980Y2840000I0J20020D01*
G37*
G36*
G01X849980D02*
Y3200000D01*
G02X870000Y3220020I20020J0D01*
G01X1030000D01*
G02X1050020Y3200000I0J-20020D01*
G01Y2840000D01*
G02X1030000Y2819980I-20020J0D01*
G01X870000D01*
G02X849980Y2840000I0J20020D01*
G37*
G36*
G01X3174980Y645000D02*
Y735000D01*
G02X3195000Y755020I20020J0D01*
G01X3345000D01*
G02X3365020Y735000I0J-20020D01*
G01Y645000D01*
G02X3345000Y624980I-20020J0D01*
G01X3195000D01*
G02X3174980Y645000I0J20020D01*
G37*
G36*
G01X2934980Y385000D02*
Y475000D01*
G02X2955000Y495020I20020J0D01*
G01X3105000D01*
G02X3125020Y475000I0J-20020D01*
G01Y385000D01*
G02X3105000Y364980I-20020J0D01*
G01X2955000D01*
G02X2934980Y385000I0J20020D01*
G37*
G36*
G01X2150020Y3295000D02*
G02X2130000Y3274980I-20020J0D01*
G01X2030000D01*
G02X2009980Y3295000I0J20020D01*
G01Y3465000D01*
G02X2030000Y3485020I20020J0D01*
G01X2130000D01*
G02X2150020Y3465000I0J-20020D01*
G01Y3410020D01*
X2299990D01*
G02Y3349980I40010J-30020D01*
G01X2150020D01*
Y3295000D01*
G37*
G36*
G01X900020D02*
G02X880000Y3274980I-20020J0D01*
G01X780000D01*
G02X759980Y3295000I0J20020D01*
G01Y3465000D01*
G02X780000Y3485020I20020J0D01*
G01X880000D01*
G02X900020Y3465000I0J-20020D01*
G01Y3410020D01*
X1249990D01*
G02Y3349980I40010J-30020D01*
G01X900020D01*
Y3295000D01*
G37*
G36*
G01X2604980Y3330070D02*
X2767460Y3492540D01*
G02X2774980Y3499560I102657J-102431D01*
G02X2795000Y3520020I20020J435D01*
G01X2805730D01*
X2807770Y3520990D01*
G02X2932230I62230J-130990D01*
G01X2934270Y3520020D01*
X2945000D01*
G02X2965020Y3499560I0J-20025D01*
G02X2972540Y3287460I-95021J-109552D01*
G01X2965290Y3280200D01*
X2964790Y3276960D01*
G02X2948040Y3260210I-19790J3040D01*
G01X2944800Y3259710D01*
X2895020Y3209930D01*
Y3020000D01*
G02X2850020Y2914990I-145023J0D01*
G01Y2840000D01*
G02X2830000Y2819980I-20020J0D01*
G01X2670000D01*
G02X2649980Y2840000I0J20020D01*
G01Y2856720D01*
G03X2621420Y2874800I-20000J4D01*
G02X2591370Y2969270I-21422J45200D01*
G03X2607570Y2992730I-3444J19702D01*
G02X2604980Y3020000I142429J27285D01*
G01Y3330070D01*
G37*
G36*
G01X1394980Y3370070D02*
X1517460Y3492540D01*
G02X1524980Y3499560I102657J-102431D01*
G02X1545000Y3520020I20020J435D01*
G01X1555730D01*
X1557770Y3520990D01*
G02X1682230I62230J-130990D01*
G01X1684270Y3520020D01*
X1695000D01*
G02X1715020Y3499560I0J-20025D01*
G02X1722540Y3287460I-95021J-109552D01*
G01X1715290Y3280200D01*
X1714790Y3276960D01*
G02X1698040Y3260210I-19790J3040D01*
G01X1694800Y3259710D01*
X1685020Y3249930D01*
Y3020000D01*
G02X1640020Y2914990I-145023J0D01*
G01Y2840000D01*
G02X1620000Y2819980I-20020J0D01*
G01X1460000D01*
G02X1439980Y2840000I0J20020D01*
G01Y2914990D01*
G02X1394980Y3020000I100023J105010D01*
G01Y3370070D01*
G37*
G36*
G01X2446360Y2894350D02*
G03X2472070Y2891490I14542J13733D01*
G02X2463640Y2815650I27931J-41493D01*
G03X2437930Y2818510I-14542J-13733D01*
G02X2446360Y2894350I-27931J41493D01*
G37*
G36*
G01X637110Y1259980D02*
G03X617940Y1234270I-2J-20000D01*
G02X522060I-47940J-14270D01*
G03X502890Y1259980I-19168J5710D01*
G01X495000D01*
G02X474980Y1280000I0J20020D01*
G01Y1360000D01*
G02X495000Y1380020I20020J0D01*
G01X645000D01*
G02X665020Y1360000I0J-20020D01*
G01Y1280000D01*
G02X645000Y1259980I-20020J0D01*
G01X637110D01*
G37*
G36*
G01X1958720Y2998340D02*
G02X1881280I-38720J-58340D01*
G03Y3031660I-11065J16660D01*
G02X1958720I38720J58340D01*
G03Y2998340I11065J-16660D01*
G37*
G36*
G01X855000Y1044980D02*
X765000D01*
G02X744980Y1065000I0J20020D01*
G01Y1215000D01*
G02X749370Y1227510I20020J0D01*
G03Y1252490I-15620J12490D01*
G02X744980Y1265000I15630J12510D01*
G01Y1415000D01*
G02X749370Y1427510I20020J0D01*
G03Y1452490I-15620J12490D01*
G02X744980Y1465000I15630J12510D01*
G01Y1509980D01*
X665030D01*
X665020Y1499990D01*
G02X645000Y1479980I-20020J10D01*
G01X495000D01*
G02X474980Y1500000I0J20020D01*
G01Y1580000D01*
G02X495000Y1600020I20020J0D01*
G01X645000D01*
G02X665020Y1580010I0J-20020D01*
G01X665030Y1570020D01*
X744980D01*
Y1615000D01*
G02X749370Y1627510I20020J0D01*
G03Y1652490I-15620J12490D01*
G02X744980Y1665000I15630J12510D01*
G01Y1707480D01*
X603470D01*
X580030Y1684040D01*
X580020Y1679910D01*
G02X497480Y1718010I-50021J92D01*
G01Y1983470D01*
X646530Y2132520D01*
X1134980D01*
Y2175000D01*
G02X1139370Y2187510I20020J0D01*
G03Y2212490I-15620J12490D01*
G02X1134980Y2225000I15630J12510D01*
G01Y2375000D01*
G02X1155000Y2395020I20020J0D01*
G01X1245000D01*
G02X1265020Y2375000I0J-20020D01*
G01Y2225000D01*
G02X1260630Y2212490I-20020J0D01*
G03Y2187510I15620J-12490D01*
G02X1265020Y2175000I-15630J-12510D01*
G01Y2025000D01*
G02X1245000Y2004980I-20020J0D01*
G01X1155000D01*
G02X1134980Y2025000I0J20020D01*
G01Y2067480D01*
X673470D01*
X562520Y1956530D01*
Y1772520D01*
X744980D01*
Y1815000D01*
G02X765000Y1835020I20020J0D01*
G01X855000D01*
G02X875020Y1815000I0J-20020D01*
G01Y1665000D01*
G02X870630Y1652490I-20020J0D01*
G03Y1627510I15620J-12490D01*
G02X875020Y1615000I-15630J-12510D01*
G01Y1465000D01*
G02X870630Y1452490I-20020J0D01*
G03Y1427510I15620J-12490D01*
G02X875020Y1415000I-15630J-12510D01*
G01Y1265000D01*
G02X870630Y1252490I-20020J0D01*
G03Y1227510I15620J-12490D01*
G02X875020Y1215000I-15630J-12510D01*
G01Y1065000D01*
G02X855000Y1044980I-20020J0D01*
G37*
G36*
G01X1204980Y4695000D02*
Y4845000D01*
G02X1225000Y4865020I20020J0D01*
G01X1315000D01*
G02X1335020Y4845000I0J-20020D01*
G01Y4695000D01*
G02X1315000Y4674980I-20020J0D01*
G01X1225000D01*
G02X1204980Y4695000I0J20020D01*
G37*
G36*
G01X1274980Y4505000D02*
Y4555000D01*
G02X1295000Y4575020I20020J0D01*
G01X1365000D01*
G02X1385020Y4555000I0J-20020D01*
G01Y4505000D01*
G02X1365000Y4484980I-20020J0D01*
G01X1295000D01*
G02X1274980Y4505000I0J20020D01*
G37*
G36*
G01X3584980Y2085000D02*
Y2175000D01*
G02X3605000Y2195020I20020J0D01*
G01X3755000D01*
G02X3775020Y2175000I0J-20020D01*
G01Y2085000D01*
G02X3755000Y2064980I-20020J0D01*
G01X3605000D01*
G02X3584980Y2085000I0J20020D01*
G37*
G36*
G01X3704980Y4695000D02*
Y4845000D01*
G02X3725000Y4865020I20020J0D01*
G01X3815000D01*
G02X3835020Y4845000I0J-20020D01*
G01Y4695000D01*
G02X3815000Y4674980I-20020J0D01*
G01X3725000D01*
G02X3704980Y4695000I0J20020D01*
G37*
G36*
G01X2454980D02*
Y4845000D01*
G02X2475000Y4865020I20020J0D01*
G01X2565000D01*
G02X2585020Y4845000I0J-20020D01*
G01Y4695000D01*
G02X2565000Y4674980I-20020J0D01*
G01X2475000D01*
G02X2454980Y4695000I0J20020D01*
G37*
G36*
G01X3774980Y4505000D02*
Y4555000D01*
G02X3795000Y4575020I20020J0D01*
G01X3865000D01*
G02X3885020Y4555000I0J-20020D01*
G01Y4505000D01*
G02X3865000Y4484980I-20020J0D01*
G01X3795000D01*
G02X3774980Y4505000I0J20020D01*
G37*
G36*
G01X2524980D02*
Y4555000D01*
G02X2545000Y4575020I20020J0D01*
G01X2615000D01*
G02X2635020Y4555000I0J-20020D01*
G01Y4505000D01*
G02X2615000Y4484980I-20020J0D01*
G01X2545000D01*
G02X2524980Y4505000I0J20020D01*
G37*
G54D33*
X1580000Y2210000D03*
G54D34*
X600000Y3210000D03*
X740000Y1940000D03*
%LPD*%
G75*
G54D10*
G01X950000Y2620000D02*
X630000D01*
X230000Y2220000D01*
G01D02*
Y230000D01*
G01X600000Y4150000D02*
X370000Y4380000D01*
Y4770000D01*
G01X2180000Y2620000D02*
X950000D01*
G01X1850000Y4150000D02*
X1620000Y4380000D01*
Y4770000D01*
G01X3090000Y2620000D02*
X2180000D01*
G01X3100000Y4150000D02*
X2870000Y4380000D01*
Y4770000D01*
X230000Y230000D03*
X370000Y4770000D03*
X1620000D03*
X2870000D03*
X3770000Y230000D03*
G54D20*
X1100000Y4530000D03*
X1330000D03*
X2350000D03*
X2580000D03*
X2790000Y880000D03*
X3020000D03*
X3600000Y4530000D03*
X3830000D03*
G54D11*
G01X1200000Y200000D02*
Y400000D01*
X1150000Y450000D01*
X90000Y3630000D03*
X160000Y2680000D03*
X180000Y3490000D03*
X490000Y370000D03*
Y2850000D03*
X550000Y1020000D03*
X530000Y1680000D03*
X570000Y1220000D03*
X680000Y2870000D03*
X750000Y780000D03*
X710000Y2270000D03*
X790000Y4600000D03*
X840000Y900000D03*
X950000Y730000D03*
X1020000Y4180000D03*
X1090000Y1530000D03*
X1180000Y750000D03*
X1220000Y1200000D03*
X1260000Y1550000D03*
X1290000Y3380000D03*
X1270000Y4280000D03*
X1380000Y740000D03*
X1370000Y2880000D03*
X1470000Y2590000D03*
X1550000Y2340000D03*
X1610000Y1370000D03*
X1580000Y1450000D03*
Y1600000D03*
Y2210000D03*
X1600000Y3190000D03*
X1660000Y1470000D03*
X1670000Y1600000D03*
X1740000Y800000D03*
Y2600000D03*
X1800000Y1130000D03*
Y1250000D03*
Y1370000D03*
X1860000Y360000D03*
X1870000Y1190000D03*
Y1310000D03*
X1930000Y1590000D03*
X2010000Y790000D03*
X2000000Y1630000D03*
X2010000Y2860000D03*
X2080000Y1580000D03*
X2040000Y4600000D03*
X2130000Y810000D03*
X2150000Y1400000D03*
Y1630000D03*
X2270000Y170000D03*
X2275000Y4090000D03*
X2280000Y4310000D03*
X2310000Y2060000D03*
X2340000Y3380000D03*
X2390000Y720000D03*
X2400000Y820000D03*
X2410000Y2860000D03*
X2490000Y1450000D03*
X2480000Y1630000D03*
X2500000Y2850000D03*
X2530000Y4340000D03*
X2600000Y2920000D03*
X2570000Y3080000D03*
X2600000Y4130000D03*
X2650000Y760000D03*
X2660000Y1080000D03*
X2750000Y980000D03*
Y1890000D03*
X2790000Y1670000D03*
X2810000Y2180000D03*
X2840000Y1980000D03*
X2850000Y2700000D03*
X2900000Y190000D03*
X3020000Y960000D03*
X2980000Y2010000D03*
X2970000Y3150000D03*
X3030000Y2910000D03*
X3100000Y780000D03*
X3140000Y1350000D03*
X3170000Y1170000D03*
Y3000000D03*
X3230000Y2040000D03*
X3290000Y4600000D03*
X3340000Y2620000D03*
X3410000Y240000D03*
X3480000Y1830000D03*
X3520000Y2030000D03*
Y4175000D03*
X3550000Y4350000D03*
X3820000Y4290000D03*
X3830000Y3580000D03*
G54D30*
G01X1780000Y640000D02*
X1580000D01*
G01X1780000Y460000D02*
Y410000D01*
X1830000Y360000D01*
X1860000D01*
G01X2430000Y1980000D02*
Y2170000D01*
G01X2840000Y1980000D02*
X2786960Y2033040D01*
Y2065540D01*
X2682500Y2170000D01*
X2610000D01*
G01X3390000Y2920000D02*
X3490000Y2820000D01*
G54D21*
X1200000Y200000D03*
G54D12*
G01X230000Y230000D02*
X440020D01*
X120000Y3870000D03*
X600000Y3210000D03*
X740000Y1940000D03*
X1920000Y2940000D03*
Y3090000D03*
G54D31*
G01X180000Y3490000D02*
Y3730000D01*
X600000Y4150000D01*
G01X810000Y1740000D02*
X590000D01*
X530000Y1680000D01*
G01D02*
Y1970000D01*
X660000Y2100000D01*
X1200000D01*
G01X570000Y1320000D02*
Y1220000D01*
G01X1200000Y2100000D02*
Y2300000D01*
G01X1320000Y1460000D02*
X1325000Y1465000D01*
G01D02*
X1420000D01*
G01X1505000D02*
X1420000D01*
G01X1510000Y1460000D02*
X1505000Y1465000D01*
G01X1625000Y960000D02*
Y760000D01*
X1580000Y715000D01*
Y640000D01*
G01X1675000Y855000D02*
Y960000D01*
G01X1725000Y855000D02*
Y960000D01*
G01Y1045000D02*
Y960000D01*
G01X1735000Y1055000D02*
X1725000Y1045000D01*
G01X1875000Y960000D02*
Y1050000D01*
G01X2430000Y1980000D02*
X2145000D01*
X2075000Y1910000D01*
Y1820000D01*
G01X2150000Y1920000D02*
X2125000Y1895000D01*
Y1820000D01*
G01D02*
X2180000D01*
G01X2650000Y1670000D02*
X2790000D01*
G01X3050000Y1200000D02*
X3140000D01*
X3170000Y1170000D01*
G01X3350000Y1119000D02*
X3221000D01*
X3170000Y1170000D01*
G54D22*
X1454000Y200000D03*
X1708000D03*
X1962000D03*
X2650000Y150000D03*
X3150000D03*
G54D13*
X310000Y3020000D03*
X950000D03*
X1540000D03*
X2180000D03*
X2750000D03*
X3390000D03*
G54D32*
G01X310000D02*
Y3330000D01*
X370000Y3390000D01*
G01X950000Y2620000D02*
Y3020000D01*
G01X1540000D02*
Y3310000D01*
X1620000Y3390000D01*
G01X2180000Y2620000D02*
Y3020000D01*
G01X2750000D02*
Y3270000D01*
X2870000Y3390000D01*
G01X3390000Y2920000D02*
X3090000Y2620000D01*
G01X3390000Y3020000D02*
Y2920000D01*
G54D14*
X600000Y4150000D03*
X1850000D03*
X3100000D03*
G54D23*
X1420000Y1115000D03*
Y1165000D03*
Y1265000D03*
Y1215000D03*
Y1315000D03*
Y1365000D03*
Y1465000D03*
Y1415000D03*
Y1515000D03*
Y1565000D03*
Y1665000D03*
Y1615000D03*
X2280000Y1115000D03*
Y1165000D03*
Y1215000D03*
Y1265000D03*
Y1315000D03*
Y1365000D03*
Y1415000D03*
Y1465000D03*
Y1515000D03*
Y1565000D03*
Y1615000D03*
Y1665000D03*
G54D15*
X370000Y3390000D03*
X1620000D03*
X2870000D03*
G54D24*
X1575000Y960000D03*
Y1820000D03*
X1625000Y960000D03*
X1675000D03*
Y1820000D03*
X1625000D03*
X1725000Y960000D03*
Y1820000D03*
X1775000Y960000D03*
Y1820000D03*
X1825000Y960000D03*
X1875000D03*
Y1820000D03*
X1825000D03*
X1925000Y960000D03*
Y1820000D03*
X1975000Y960000D03*
Y1820000D03*
X2025000Y960000D03*
X2075000D03*
Y1820000D03*
X2025000D03*
X2125000Y960000D03*
Y1820000D03*
G54D16*
X570000Y1320000D03*
Y1540000D03*
G54D25*
X1780000Y460000D03*
Y640000D03*
G54D17*
X750000Y110000D03*
Y300000D03*
Y500000D03*
Y690000D03*
X950000Y450000D03*
Y640000D03*
X1150000Y450000D03*
Y640000D03*
X1350000Y450000D03*
Y640000D03*
X1580000Y450000D03*
Y640000D03*
X1990000Y450000D03*
Y640000D03*
X2240000Y350000D03*
Y540000D03*
X2480000Y350000D03*
Y540000D03*
X2650000Y1480000D03*
Y1670000D03*
X2790000Y430000D03*
Y620000D03*
X3030000Y430000D03*
Y620000D03*
X3080000Y2130000D03*
Y2320000D03*
X3270000Y690000D03*
Y880000D03*
X3380000Y2130000D03*
Y2320000D03*
X3680000Y2130000D03*
Y2320000D03*
G54D26*
X2430000Y2170000D03*
X2610000D03*
G54D18*
X680000Y4770000D03*
X810000Y1140000D03*
Y1340000D03*
Y1540000D03*
Y1740000D03*
X870000Y4770000D03*
X1000000Y1140000D03*
Y1340000D03*
Y1540000D03*
Y1740000D03*
X1080000Y4770000D03*
X1200000Y2100000D03*
Y2300000D03*
X1270000Y4770000D03*
X1390000Y2100000D03*
Y2300000D03*
X1930000Y4770000D03*
X2120000D03*
X2330000D03*
X2430000Y1980000D03*
X2520000Y4770000D03*
X2620000Y1980000D03*
X2860000Y1200000D03*
X3050000D03*
X3130000Y1780000D03*
X3180000Y4770000D03*
X3320000Y1780000D03*
X3370000Y4770000D03*
X3580000D03*
X3770000D03*
G54D27*
X3350000Y1119000D03*
Y1246000D03*
Y1373000D03*
Y1500000D03*
X3730000Y1119000D03*
Y1246000D03*
Y1373000D03*
Y1500000D03*
G54D28*
G01X310000Y3020000D02*
X530000D01*
X680000Y2870000D01*
G01Y4770000D02*
X370000D01*
G01X570000Y1540000D02*
X810000D01*
G01X750000Y690000D02*
Y780000D01*
G01X839980Y3020000D02*
X950000D01*
G01X1290000Y3380000D02*
X830000D01*
G01X870000Y4770000D02*
X1080000D01*
G01X950000Y730000D02*
Y640000D01*
G01X1420000Y1315000D02*
X1145000D01*
X1000000Y1170000D01*
Y1140000D01*
G01X1800000Y1130000D02*
X1730000D01*
X1660000Y1060000D01*
X1159990D01*
X1079990Y1140000D01*
X1000000D01*
G01X1420000Y1415000D02*
X1150000D01*
X1075000Y1340000D01*
X1000000D01*
G01X1090000Y1530000D02*
X1010000D01*
X1000000Y1540000D01*
G01D02*
Y1740000D01*
G01X1420000Y1665000D02*
X1150000D01*
X1075000Y1740000D01*
X1000000D01*
G01X950000Y3020000D02*
X1060020D01*
G01X1080000Y4770000D02*
X1100000Y4750000D01*
Y4530000D01*
G01X3080000Y2320000D02*
X3185000D01*
X3580000Y2715000D01*
Y3360000D01*
X3310010Y3629990D01*
X1550020D01*
X1100000Y4080010D01*
Y4530000D01*
G01X1180000Y750000D02*
Y670000D01*
X1150000Y640000D01*
G01X1380000Y740000D02*
Y665000D01*
X1355000Y640000D01*
X1350000D01*
G01X1675000Y1820000D02*
Y1910000D01*
X1485000Y2100000D01*
X1390000D01*
G01X1708000Y200000D02*
X1623140Y284860D01*
X1582710D01*
X1460000Y407570D01*
Y685140D01*
X1575000Y800140D01*
Y960000D01*
G01X1870000Y1190000D02*
X1720000D01*
X1645000Y1115000D01*
X1420000D01*
G01X1800000Y1250000D02*
X1708330D01*
X1623330Y1165000D01*
X1420000D01*
G01X1870000Y1310000D02*
X1710000D01*
X1615000Y1215000D01*
X1420000D01*
G01Y1265000D02*
X1596430D01*
X1701430Y1370000D01*
X1800000D01*
G01X1610000D02*
X1640000Y1400000D01*
X1674860D01*
X1704860Y1430000D01*
X1860000D01*
X1950000Y1340000D01*
Y1099930D01*
X2025000Y1024930D01*
Y960000D01*
G01X1580000Y1450000D02*
Y1480000D01*
X1640000Y1540000D01*
X1870000D01*
X2030000Y1380000D01*
Y1150000D01*
X2125000Y1055000D01*
Y960000D01*
G01X1660000Y1470000D02*
X1880000D01*
X1990000Y1360000D01*
Y1130000D01*
X2075000Y1045000D01*
Y960000D01*
G01X1625000Y1820000D02*
Y1730000D01*
X1645000Y1710000D01*
X1990000D01*
X2010000Y1690000D01*
X2180000D01*
X2250000Y1760000D01*
X3110000D01*
X3130000Y1780000D01*
G01X1620000Y4770000D02*
X1930000D01*
G01X1990000Y640000D02*
X1960000D01*
X1930000Y670000D01*
Y710000D01*
X1775000Y865000D01*
Y960000D01*
G01X1825000D02*
Y875010D01*
X1980010Y720000D01*
X2072430D01*
X2110000Y682430D01*
Y348000D01*
X1962000Y200000D01*
G01X3080000Y2320000D02*
X2910000D01*
X2860000Y2370000D01*
X2285000D01*
X1825000Y1910000D01*
Y1820000D01*
G01X1875000D02*
Y1901570D01*
X2303430Y2330000D01*
X2830010D01*
X2915010Y2245000D01*
X3275000D01*
X3350000Y2320000D01*
X3380000D01*
G01X2280000Y4310000D02*
X2010000D01*
X1850000Y4150000D01*
G01X2010000Y790000D02*
X1925000Y875000D01*
Y960000D01*
G01X3680000Y2320000D02*
X3650000D01*
X3535000Y2205000D01*
X2885000D01*
X2800000Y2290000D01*
X2320000D01*
X1925000Y1895000D01*
Y1820000D01*
G01X2130000Y810000D02*
X2087570Y852430D01*
X2017640D01*
X1975000Y895070D01*
Y960000D01*
G01X2025000Y1820000D02*
Y1750010D01*
X2045010Y1730000D01*
X2160010D01*
X2230010Y1800000D01*
X2950000D01*
X3100000Y1950000D01*
X3570000D01*
X3940000Y1580000D01*
Y1110000D01*
X3710000Y880000D01*
X3270000D01*
G01X2069980Y3020000D02*
X2180000D01*
G01X2240000Y540000D02*
Y1000000D01*
X2090000Y1150000D01*
Y1465000D01*
X2190000Y1565000D01*
X2280000D01*
G01X2080000Y3380000D02*
X2340000D01*
G01X2120000Y4770000D02*
X2330000D01*
G01X2150000Y1400000D02*
Y1155000D01*
X2190000Y1115000D01*
X2280000D01*
G01X2180000Y3020000D02*
X2290020D01*
G01X2240000Y540000D02*
X2270000D01*
X2360000Y450000D01*
Y440000D01*
X2450000Y350000D01*
X2480000D01*
G01X3350000Y1373000D02*
X3415000D01*
X3500000Y1288000D01*
Y1060000D01*
X3470000Y1030000D01*
X2820000D01*
X2685000Y1165000D01*
X2280000D01*
G01Y1215000D02*
X2845000D01*
X2860000Y1200000D01*
G01X3730000Y1373000D02*
X3665000D01*
X3580000Y1458000D01*
Y1526560D01*
X3486560Y1620000D01*
X3050010D01*
X2695010Y1265000D01*
X2280000D01*
G01Y1315000D02*
X2675010D01*
X3020010Y1660000D01*
X3505000D01*
X3665000Y1500000D01*
X3730000D01*
G01X2280000Y1365000D02*
X2505000D01*
X2620000Y1480000D01*
X2650000D01*
G01X2490000Y1450000D02*
X2410000Y1530000D01*
Y1625000D01*
X2370000Y1665000D01*
X2280000D01*
G01X2330000Y4770000D02*
X2350000Y4750000D01*
Y4530000D01*
G01X2480000Y540000D02*
Y630000D01*
X2390000Y720000D01*
G01X2790000Y430000D02*
X2760000D01*
X2660000Y530000D01*
Y560000D01*
X2400000Y820000D01*
G01X3380000Y2320000D02*
X3410000D01*
X3630000Y2540000D01*
Y3400000D01*
X3340000Y3690000D01*
X2730000D01*
X2350000Y4070000D01*
Y4530000D01*
G01X2750000Y3020000D02*
Y2940000D01*
X2730000Y2920000D01*
X2600000D01*
G01X3100000Y4150000D02*
X3080000Y4130000D01*
X2600000D01*
G01X2660000Y1080000D02*
Y870000D01*
X2760000Y770000D01*
X2960000D01*
X3030000Y700000D01*
Y620000D01*
G01X2790000D02*
X3030000D01*
G01X3730000Y1246000D02*
X3665000D01*
X3520000Y1391000D01*
Y1529990D01*
X3469990Y1580000D01*
X3210000D01*
X2860000Y1230000D01*
Y1200000D01*
G01X2870000Y4770000D02*
X3180000D01*
G01X3270000Y880000D02*
X3020000D01*
G01D02*
Y960000D01*
G01X3330000Y3380000D02*
Y3345000D01*
X3030000Y3045000D01*
Y2910000D01*
G01X3130000Y1780000D02*
Y1810000D01*
X3230000Y1910000D01*
X3539990D01*
X3890000Y1559990D01*
Y1214000D01*
X3795000Y1119000D01*
X3730000D01*
G01X3279980Y3020000D02*
X3390000D01*
G01X3350000Y1500000D02*
Y1373000D01*
G01X3390000Y3020000D02*
X3500020D01*
G01X3370000Y4770000D02*
X3580000D01*
G01D02*
X3600000Y4750000D01*
Y4530000D01*
G01X3680000Y2320000D02*
Y4460000D01*
X3610000Y4530000D01*
X3600000D01*
G54D19*
X830000Y3380000D03*
X2080000D03*
X3330000D03*
G54D29*
G01X750000Y110000D02*
X644980D01*
G01X810000Y1140000D02*
X734980D01*
G01X810000Y1340000D02*
X734980D01*
G01X750000Y110000D02*
X855020D01*
G01X750000D02*
Y185020D01*
G01Y500000D02*
Y300000D01*
G01X810000Y1140000D02*
Y1034980D01*
G01Y1140000D02*
X885020D01*
G01X810000Y1340000D02*
X885020D01*
G01X950000Y450000D02*
Y374980D01*
G01Y450000D02*
Y525020D01*
G01Y3020000D02*
Y3230020D01*
G01X1270000Y4770000D02*
X1194980D01*
G01X1330000Y4530000D02*
X1264980D01*
G01X1270000Y4770000D02*
Y4664980D01*
G01Y4770000D02*
Y4875020D01*
G01Y4770000D02*
X1345020D01*
G01X1454000Y200000D02*
X1333980D01*
G01X1390000Y2300000D02*
X1314980D01*
G01X1330000Y4530000D02*
Y4474980D01*
G01Y4530000D02*
X1395020D01*
G01X1330000D02*
Y4585020D01*
G01X1350000Y450000D02*
Y374980D01*
G01Y450000D02*
Y525020D01*
G01X1390000Y2300000D02*
X1465020D01*
G01X1390000D02*
Y2405020D01*
G01X1454000Y200000D02*
Y79980D01*
G01Y200000D02*
Y320020D01*
G01Y200000D02*
X1574020D01*
G01X1580000Y450000D02*
Y374980D01*
G01Y450000D02*
Y525020D01*
G01X1990000Y450000D02*
Y374980D01*
G01Y450000D02*
Y525020D01*
G01X2180000Y3020000D02*
Y3230020D01*
G01X2240000Y350000D02*
Y274980D01*
G01Y350000D02*
X2345020D01*
G01X2240000D02*
Y425020D01*
G01X2520000Y4770000D02*
X2444980D01*
G01X2650000Y150000D02*
X2529980D01*
G01X2620000Y1980000D02*
X2544980D01*
G01X2580000Y4530000D02*
X2514980D01*
G01X2520000Y4770000D02*
Y4664980D01*
G01Y4770000D02*
X2595020D01*
G01X2520000D02*
Y4875020D01*
G01X2580000Y4530000D02*
Y4474980D01*
G01Y4530000D02*
X2645020D01*
G01X2580000D02*
Y4585020D01*
G01X2650000Y150000D02*
Y270020D01*
G01Y150000D02*
X2770020D01*
G01X2620000Y1980000D02*
Y1874980D01*
G01Y1980000D02*
X2695020D01*
G01X2790000Y880000D02*
X2724980D01*
G01X2790000D02*
Y824980D01*
G01Y880000D02*
Y935020D01*
G01Y880000D02*
X2855020D01*
G01X3030000Y430000D02*
X2924980D01*
G01X3080000Y2130000D02*
X2974980D01*
G01X3030000Y430000D02*
Y354980D01*
G01Y430000D02*
X3135020D01*
G01X3030000D02*
Y505020D01*
G01X3080000Y2130000D02*
Y2054980D01*
G01X3380000Y2130000D02*
X3080000D01*
G01X3270000Y690000D02*
X3164980D01*
G01X3190000Y1260000D02*
X3204000Y1246000D01*
G01D02*
X3350000D01*
G01X3270000Y690000D02*
Y614980D01*
G01Y690000D02*
Y765020D01*
G01Y690000D02*
X3375020D01*
G01X3320000Y1780000D02*
X3244980D01*
G01X3320000D02*
X3395020D01*
G01X3380000Y2130000D02*
Y2054980D01*
G01X3680000Y2130000D02*
X3380000D01*
G01X3390000Y3020000D02*
Y3230020D01*
G01X3680000Y2130000D02*
Y2054980D01*
G01Y2130000D02*
Y2205020D01*
G01X3800000Y2130000D02*
X3680000D01*
G01X3770000Y4770000D02*
X3694980D01*
G01X3830000Y4530000D02*
X3764980D01*
G01X3770000Y4770000D02*
Y4664980D01*
G01Y4770000D02*
Y4875020D01*
G01Y4770000D02*
X3845020D01*
G01X3830000Y4530000D02*
Y4474980D01*
G01Y4530000D02*
X3895020D01*
G01X3830000D02*
Y4585020D01*
M02*
