G04 ================== begin FILE IDENTIFICATION RECORD ==================*
G04 Layout Name:  G:/Geek/Projects/remote_car/PCB/PCB_DRV8301/ti_foc_motor_8301.brd*
G04 Film Name:    DRILL*
G04 File Format:  Gerber RS274X*
G04 File Origin:  Cadence Allegro 17.2-P019*
G04 Origin Date:  Sat Mar 03 21:35:29 2018*
G04 *
G04 Layer:  MANUFACTURING/NCDRILL_LEGEND*
G04 Layer:  MANUFACTURING/NCDRILL_FIGURE*
G04 Layer:  MANUFACTURING/NCLEGEND-1-4*
G04 Layer:  BOARD GEOMETRY/OUTLINE*
G04 *
G04 Offset:    (0.0000 0.0000)*
G04 Mirror:    No*
G04 Mode:      Positive*
G04 Rotation:  0*
G04 FullContactRelief:  No*
G04 UndefLineWidth:     0.2000*
G04 ================== end FILE IDENTIFICATION RECORD ====================*
%FSLAX25Y25*MOMM*%
%IR0*IPPOS*OFA0.00000B0.00000*MIA0B0*SFA1.00000B1.00000*%
%AMMACRO10*
1,1,.2,.5,.5*
20,1,.2,.5,.5,.5,-.5,0.0*
1,1,.2,.5,-.5*
20,1,.2,.5,-.5,-.5,-.5,0.0*
1,1,.2,-.5,-.5*
20,1,.2,-.5,-.5,-.5,.5,0.0*
1,1,.2,-.5,.5*
20,1,.2,-.5,.5,.5,.5,0.0*
1,1,.2,.5,.5*
1,1,.2,-.1583,-.25*
20,1,.2,-.1583,-.25,-.1583,.25,0.0*
1,1,.2,-.1583,.25*
20,1,.2,-.1583,.25,.1583,.25,0.0*
1,1,.2,.1583,.25*
1,1,.2,.0417,.0083*
20,1,.2,.0417,.0083,-.1583,.0083,0.0*
1,1,.2,-.1583,.0083*
%
%ADD10MACRO10*%
%AMMACRO11*
1,1,.2,.5,0.0*
20,1,.2,.5,0.0,-.5,0.0,0.0*
1,1,.2,-.5,0.0*
1,1,.2,0.0,.5*
20,1,.2,0.0,.5,0.0,-.5,0.0*
1,1,.2,0.0,-.5*
1,1,.2,.0417,.5*
20,1,.2,.0417,.5,.25,0.0,0.0*
1,1,.2,.25,0.0*
20,1,.2,.25,0.0,.4583,.5,0.0*
1,1,.2,.4583,.5*
%
%ADD11MACRO11*%
%AMMACRO12*
1,1,.2,.5,0.0*
20,1,.2,.5,0.0,.25,.433013,0.0*
1,1,.2,.25,.433013*
20,1,.2,.25,.433013,-.25,.433013,0.0*
1,1,.2,-.25,.433013*
20,1,.2,-.25,.433013,-.5,0.0,0.0*
1,1,.2,-.5,0.0*
20,1,.2,-.5,0.0,-.25,-.433013,0.0*
1,1,.2,-.25,-.433013*
20,1,.2,-.25,-.433013,.25,-.433013,0.0*
1,1,.2,.25,-.433013*
20,1,.2,.25,-.433013,.5,0.0,0.0*
1,1,.2,.5,0.0*
1,1,.2,-.1833,-.25*
20,1,.2,-.1833,-.25,-.1833,.25,0.0*
1,1,.2,-.1833,.25*
20,1,.2,-.1833,.25,-.0167,.25,0.0*
1,1,.2,-.0167,.25*
20,1,.2,-.0167,.25,.05,.225,0.0*
1,1,.2,.05,.225*
20,1,.2,.05,.225,.1,.1917,0.0*
1,1,.2,.1,.1917*
20,1,.2,.1,.1917,.1417,.1417,0.0*
1,1,.2,.1417,.1417*
20,1,.2,.1417,.1417,.175,.0833,0.0*
1,1,.2,.175,.0833*
20,1,.2,.175,.0833,.1833,0.0,0.0*
1,1,.2,.1833,0.0*
20,1,.2,.1833,0.0,.175,-.0833,0.0*
1,1,.2,.175,-.0833*
20,1,.2,.175,-.0833,.1417,-.1417,0.0*
1,1,.2,.1417,-.1417*
20,1,.2,.1417,-.1417,.1,-.1917,0.0*
1,1,.2,.1,-.1917*
20,1,.2,.1,-.1917,.05,-.225,0.0*
1,1,.2,.05,-.225*
20,1,.2,.05,-.225,-.0167,-.25,0.0*
1,1,.2,-.0167,-.25*
20,1,.2,-.0167,-.25,-.1833,-.25,0.0*
1,1,.2,-.1833,-.25*
%
%ADD12MACRO12*%
%ADD13C,.2*%
G75*
%LPD*%
G75*
G54D10*
X230000Y230000D03*
X370000Y4770000D03*
X1351730Y5857500D03*
X1620000Y4770000D03*
X2870000D03*
X3770000Y230000D03*
G54D11*
X90000Y3630000D03*
X160000Y2680000D03*
X120000Y3870000D03*
X180000Y3490000D03*
X490000Y370000D03*
Y2850000D03*
X550000Y1020000D03*
X530000Y1680000D03*
X570000Y1220000D03*
X600000Y3210000D03*
X680000Y2870000D03*
X750000Y780000D03*
X740000Y1940000D03*
X710000Y2270000D03*
X790000Y4600000D03*
X840000Y900000D03*
X950000Y730000D03*
X1020000Y4180000D03*
X1090000Y1530000D03*
X1180000Y750000D03*
X1220000Y1200000D03*
X1260000Y1550000D03*
X1290000Y3380000D03*
X1270000Y4280000D03*
X1351730Y7127500D03*
Y7762500D03*
X1380000Y740000D03*
X1370000Y2880000D03*
X1470000Y2590000D03*
X1550000Y2340000D03*
X1610000Y1370000D03*
X1580000Y1450000D03*
Y1600000D03*
Y2210000D03*
X1600000Y3190000D03*
X1660000Y1470000D03*
X1670000Y1600000D03*
X1740000Y800000D03*
Y2600000D03*
X1800000Y1130000D03*
Y1250000D03*
Y1370000D03*
X1860000Y360000D03*
X1870000Y1190000D03*
Y1310000D03*
X1930000Y1590000D03*
X1920000Y2940000D03*
Y3090000D03*
X2010000Y790000D03*
X2000000Y1630000D03*
X2010000Y2860000D03*
X2080000Y1580000D03*
X2040000Y4600000D03*
X2130000Y810000D03*
X2150000Y1400000D03*
Y1630000D03*
X2270000Y170000D03*
X2275000Y4090000D03*
X2280000Y4310000D03*
X2310000Y2060000D03*
X2340000Y3380000D03*
X2390000Y720000D03*
X2400000Y820000D03*
X2410000Y2860000D03*
X2490000Y1450000D03*
X2480000Y1630000D03*
X2500000Y2850000D03*
X2530000Y4340000D03*
X2600000Y2920000D03*
X2570000Y3080000D03*
X2600000Y4130000D03*
X2650000Y760000D03*
X2660000Y1080000D03*
X2750000Y980000D03*
Y1890000D03*
X2790000Y1670000D03*
X2810000Y2180000D03*
X2840000Y1980000D03*
X2850000Y2700000D03*
X2900000Y190000D03*
X3020000Y960000D03*
X2980000Y2010000D03*
X2970000Y3150000D03*
X3030000Y2910000D03*
X3100000Y780000D03*
X3140000Y1350000D03*
X3170000Y1170000D03*
Y3000000D03*
X3230000Y2040000D03*
X3290000Y4600000D03*
X3340000Y2620000D03*
X3410000Y240000D03*
X3480000Y1830000D03*
X3520000Y2030000D03*
Y4175000D03*
X3550000Y4350000D03*
X3820000Y4290000D03*
X3830000Y3580000D03*
G54D12*
X1200000Y200000D03*
X1351730Y6492500D03*
X1454000Y200000D03*
X1708000D03*
X1962000D03*
X2650000Y150000D03*
X3150000D03*
G54D13*
G01X50000Y0D02*
X3950000D01*
G03X4000000Y50000I0J50000D01*
G01Y4950000D01*
G03X3950000Y5000000I-50000J0D01*
G01X50000D01*
G03X0Y4950000I0J-50000D01*
G01Y50000D01*
G03X50000Y0I50000J0D01*
G01X210000Y5540000D02*
Y10000000D01*
X12808400D01*
Y5540000D01*
X210000D01*
G01Y6175000D02*
X12808400D01*
G01X210000Y6810000D02*
X12808400D01*
G01X210000Y7445000D02*
X12808400D01*
G01X210000Y8080000D02*
X12808400D01*
G01X210000Y8715000D02*
X12808400D01*
G01X210000Y9350000D02*
X12808400D01*
G01X489520Y8238750D02*
Y8556250D01*
X639140D01*
G01X584010Y8402800D02*
X489520D01*
G01X832050Y8556250D02*
X926530D01*
G01X879290D02*
Y8238750D01*
G01X832050D02*
X926530D01*
G01X1217870Y8397500D02*
X1296620D01*
Y8302250D01*
X1272990Y8270490D01*
X1245430Y8249330D01*
X1206060Y8238750D01*
X1166690Y8249330D01*
X1139130Y8270490D01*
X1115510Y8302250D01*
X1099760Y8339290D01*
X1091880Y8381620D01*
Y8418670D01*
X1099760Y8450410D01*
X1115510Y8487460D01*
X1139130Y8519210D01*
X1162750Y8540370D01*
X1194250Y8556250D01*
X1221810D01*
X1253300Y8545670D01*
X1276930Y8524500D01*
G01X1422600Y8556250D02*
Y8328710D01*
X1438340Y8281070D01*
X1469840Y8249330D01*
X1509210Y8238750D01*
X1548580Y8249330D01*
X1580080Y8281070D01*
X1595820Y8328710D01*
Y8556250D01*
G01X1745430Y8238750D02*
Y8556250D01*
X1843850D01*
X1875350Y8540370D01*
X1895040Y8519210D01*
X1902910Y8476870D01*
X1895040Y8434540D01*
X1871410Y8408090D01*
X1843850Y8392200D01*
X1745430D01*
G01X1843850D02*
X1902910Y8238750D01*
G01X2217870D02*
X2060390D01*
Y8556250D01*
X2217870D01*
G01X2154880Y8402800D02*
X2060390D01*
G01X2158810Y8873750D02*
X2257240Y9191250D01*
X2355670Y8873750D01*
G01X2320230Y8984870D02*
X2194240D01*
G01X2493460Y9191250D02*
Y8873750D01*
X2650940D01*
G01X2808420Y9191250D02*
Y8873750D01*
X2965900D01*
G01X3430470Y9191250D02*
Y8963710D01*
X3446210Y8916070D01*
X3477710Y8884330D01*
X3517080Y8873750D01*
X3556450Y8884330D01*
X3587950Y8916070D01*
X3603690Y8963710D01*
Y9191250D01*
G01X3741490Y8873750D02*
Y9191250D01*
X3922590Y8873750D01*
Y9191250D01*
G01X4099760D02*
X4194240D01*
G01X4147000D02*
Y8873750D01*
G01X4099760D02*
X4194240D01*
G01X4461960Y9191250D02*
Y8873750D01*
G01X4371410Y9191250D02*
X4552510D01*
G01X4694240Y8916070D02*
X4725740Y8889620D01*
X4761170Y8873750D01*
X4792670D01*
X4824160Y8889620D01*
X4847790Y8916070D01*
X4859600Y8953130D01*
X4851730Y8990160D01*
X4832040Y9021910D01*
X4796600Y9043090D01*
X4749360Y9053670D01*
X4721800Y9074830D01*
X4709990Y9111870D01*
X4717870Y9148920D01*
X4737550Y9175370D01*
X4765110Y9191250D01*
X4792670D01*
X4820230Y9180670D01*
X4843850Y9154210D01*
G01X5308410Y8873750D02*
X5406840Y9191250D01*
X5505270Y8873750D01*
G01X5469830Y8984870D02*
X5343840D01*
G01X5643060Y8873750D02*
Y9191250D01*
X5741480D01*
X5772980Y9175370D01*
X5792670Y9154210D01*
X5800540Y9111870D01*
X5792670Y9069540D01*
X5769040Y9043090D01*
X5741480Y9027200D01*
X5643060D01*
G01X5741480D02*
X5800540Y8873750D01*
G01X6115500D02*
X5958020D01*
Y9191250D01*
X6115500D01*
G01X6052510Y9037800D02*
X5958020D01*
G01X6619440Y9191250D02*
X6713920D01*
G01X6666680D02*
Y8873750D01*
G01X6619440D02*
X6713920D01*
G01X6891090D02*
Y9191250D01*
X7072190Y8873750D01*
Y9191250D01*
G01X7509190Y8873750D02*
Y9191250D01*
X7611560Y8926670D01*
X7713930Y9191250D01*
Y8873750D01*
G01X7879280Y9191250D02*
X7973760D01*
G01X7926520D02*
Y8873750D01*
G01X7879280D02*
X7973760D01*
G01X8162740Y9191250D02*
Y8873750D01*
X8320220D01*
G01X8477700Y9191250D02*
Y8873750D01*
X8635180D01*
G01X8824160Y9191250D02*
X8918640D01*
G01X8871400D02*
Y8873750D01*
G01X8824160D02*
X8918640D01*
G01X9083990D02*
Y9191250D01*
X9186360Y8926670D01*
X9288730Y9191250D01*
Y8873750D01*
G01X9580060D02*
X9422580D01*
Y9191250D01*
X9580060D01*
G01X9517070Y9037800D02*
X9422580D01*
G01X9816280Y9191250D02*
Y8873750D01*
G01X9725730Y9191250D02*
X9906830D01*
G01X10209980Y8873750D02*
X10052500D01*
Y9191250D01*
X10209980D01*
G01X10146990Y9037800D02*
X10052500D01*
G01X10367460Y8873750D02*
Y9191250D01*
X10465880D01*
X10497380Y9175370D01*
X10517070Y9154210D01*
X10524940Y9111870D01*
X10517070Y9069540D01*
X10493440Y9043090D01*
X10465880Y9027200D01*
X10367460D01*
G01X10465880D02*
X10524940Y8873750D01*
G01X10678480Y8916070D02*
X10709980Y8889620D01*
X10745410Y8873750D01*
X10776910D01*
X10808400Y8889620D01*
X10832030Y8916070D01*
X10843840Y8953130D01*
X10835970Y8990160D01*
X10816280Y9021910D01*
X10780840Y9043090D01*
X10733600Y9053670D01*
X10706040Y9074830D01*
X10694230Y9111870D01*
X10702110Y9148920D01*
X10721790Y9175370D01*
X10749350Y9191250D01*
X10776910D01*
X10804470Y9180670D01*
X10828090Y9154210D01*
G01X2485590Y9523750D02*
Y9841250D01*
X2564320D01*
X2595820Y9825370D01*
X2619440Y9804210D01*
X2639130Y9772460D01*
X2654880Y9735410D01*
X2658810Y9682500D01*
X2654880Y9629580D01*
X2639130Y9592540D01*
X2619440Y9560780D01*
X2595820Y9539620D01*
X2564320Y9523750D01*
X2485590D01*
G01X2808420D02*
Y9841250D01*
X2906840D01*
X2938340Y9825370D01*
X2958030Y9804210D01*
X2965900Y9761870D01*
X2958030Y9719540D01*
X2934400Y9693090D01*
X2906840Y9677200D01*
X2808420D01*
G01X2906840D02*
X2965900Y9523750D01*
G01X3154880Y9841250D02*
X3249360D01*
G01X3202120D02*
Y9523750D01*
G01X3154880D02*
X3249360D01*
G01X3438340Y9841250D02*
Y9523750D01*
X3595820D01*
G01X3753300Y9841250D02*
Y9523750D01*
X3910780D01*
G01X4548570Y9814790D02*
X4524950Y9830670D01*
X4497400Y9841250D01*
X4465900D01*
X4430460Y9825370D01*
X4402910Y9798920D01*
X4383220Y9767160D01*
X4367470Y9714250D01*
X4363530Y9666620D01*
X4371410Y9619000D01*
X4383220Y9587250D01*
X4406840Y9555490D01*
X4434400Y9534330D01*
X4461960Y9523750D01*
X4489520D01*
X4517080Y9534330D01*
X4540700Y9550200D01*
X4560390Y9571360D01*
G01X4694240Y9523750D02*
Y9841250D01*
G01X4859600D02*
Y9523750D01*
G01Y9682500D02*
X4694240D01*
G01X4993450Y9523750D02*
X5091880Y9841250D01*
X5190310Y9523750D01*
G01X5154870Y9634870D02*
X5028880D01*
G01X5328100Y9523750D02*
Y9841250D01*
X5426520D01*
X5458020Y9825370D01*
X5477710Y9804210D01*
X5485580Y9761870D01*
X5477710Y9719540D01*
X5454080Y9693090D01*
X5426520Y9677200D01*
X5328100D01*
G01X5426520D02*
X5485580Y9523750D01*
G01X5721800Y9841250D02*
Y9523750D01*
G01X5631250Y9841250D02*
X5812350D01*
G01X6036760Y9513170D02*
X6028880Y9518460D01*
Y9529040D01*
X6036760Y9534330D01*
X6044640Y9529040D01*
Y9518460D01*
X6036760Y9513170D01*
G01Y9656030D02*
X6028880Y9661330D01*
Y9671910D01*
X6036760Y9677200D01*
X6044640Y9671910D01*
Y9661330D01*
X6036760Y9656030D01*
G01X6666680Y9841250D02*
Y9523750D01*
G01X6576130Y9841250D02*
X6757230D01*
G01X6981640Y9523750D02*
X6950140Y9529040D01*
X6922590Y9550200D01*
X6898960Y9581960D01*
X6883210Y9619000D01*
X6875340Y9661330D01*
Y9703670D01*
X6883210Y9746000D01*
X6898960Y9783040D01*
X6922590Y9814790D01*
X6950140Y9835960D01*
X6981640Y9841250D01*
X7013130Y9835960D01*
X7040690Y9814790D01*
X7064320Y9783040D01*
X7080070Y9746000D01*
X7087940Y9703670D01*
Y9661330D01*
X7080070Y9619000D01*
X7064320Y9581960D01*
X7040690Y9550200D01*
X7013130Y9529040D01*
X6981640Y9523750D01*
G01X7217860D02*
Y9841250D01*
X7312350D01*
X7343840Y9825370D01*
X7367470Y9788330D01*
X7375340Y9746000D01*
X7367470Y9703670D01*
X7347780Y9671910D01*
X7312350Y9656030D01*
X7217860D01*
G01X7926520Y9841250D02*
Y9523750D01*
G01X7871400Y9735410D02*
X7981640D01*
G01X8241480Y9523750D02*
X8217860Y9529040D01*
X8194240Y9550200D01*
X8178480Y9587250D01*
X8170610Y9629580D01*
X8178480Y9671910D01*
X8194240Y9708960D01*
X8217860Y9730120D01*
X8241480Y9735410D01*
X8265100Y9730120D01*
X8288720Y9708960D01*
X8304470Y9671910D01*
X8308410Y9629580D01*
X8304470Y9587250D01*
X8288720Y9550200D01*
X8265100Y9529040D01*
X8241480Y9523750D01*
G01X8902890Y9693090D02*
X8918640Y9708960D01*
X8930450Y9735410D01*
X8938330Y9772460D01*
X8930450Y9804210D01*
X8914710Y9825370D01*
X8887150Y9841250D01*
X8780850D01*
Y9523750D01*
X8910770D01*
X8938330Y9544910D01*
X8954080Y9576670D01*
X8961950Y9613710D01*
X8954080Y9650740D01*
X8930450Y9682500D01*
X8902890Y9693090D01*
X8780850D01*
G01X9186360Y9523750D02*
X9154860Y9529040D01*
X9127310Y9550200D01*
X9103680Y9581960D01*
X9087930Y9619000D01*
X9080060Y9661330D01*
Y9703670D01*
X9087930Y9746000D01*
X9103680Y9783040D01*
X9127310Y9814790D01*
X9154860Y9835960D01*
X9186360Y9841250D01*
X9217850Y9835960D01*
X9245410Y9814790D01*
X9269040Y9783040D01*
X9284790Y9746000D01*
X9292660Y9703670D01*
Y9661330D01*
X9284790Y9619000D01*
X9269040Y9581960D01*
X9245410Y9550200D01*
X9217850Y9529040D01*
X9186360Y9523750D01*
G01X9501320Y9841250D02*
Y9523750D01*
G01X9410770Y9841250D02*
X9591870D01*
G01X9816280D02*
Y9523750D01*
G01X9725730Y9841250D02*
X9906830D01*
G01X10131240Y9523750D02*
X10099740Y9529040D01*
X10072190Y9550200D01*
X10048560Y9581960D01*
X10032810Y9619000D01*
X10024940Y9661330D01*
Y9703670D01*
X10032810Y9746000D01*
X10048560Y9783040D01*
X10072190Y9814790D01*
X10099740Y9835960D01*
X10131240Y9841250D01*
X10162730Y9835960D01*
X10190290Y9814790D01*
X10213920Y9783040D01*
X10229670Y9746000D01*
X10237540Y9703670D01*
Y9661330D01*
X10229670Y9619000D01*
X10213920Y9581960D01*
X10190290Y9550200D01*
X10162730Y9529040D01*
X10131240Y9523750D01*
G01X10343830D02*
Y9841250D01*
X10446200Y9576670D01*
X10548570Y9841250D01*
Y9523750D01*
G01X2493460Y8715000D02*
Y5540000D01*
G01X3087940Y8238750D02*
Y8556250D01*
X3237560D01*
G01X3182430Y8402800D02*
X3087940D01*
G01X3430470Y8556250D02*
X3524950D01*
G01X3477710D02*
Y8238750D01*
G01X3430470D02*
X3524950D01*
G01X3702120D02*
Y8556250D01*
X3883220Y8238750D01*
Y8556250D01*
G01X4060390D02*
X4154870D01*
G01X4107630D02*
Y8238750D01*
G01X4060390D02*
X4154870D01*
G01X4339910Y8281070D02*
X4371410Y8254620D01*
X4406840Y8238750D01*
X4438340D01*
X4469830Y8254620D01*
X4493460Y8281070D01*
X4505270Y8318130D01*
X4497400Y8355160D01*
X4477710Y8386910D01*
X4442270Y8408090D01*
X4395030Y8418670D01*
X4367470Y8439830D01*
X4355660Y8476870D01*
X4363540Y8513920D01*
X4383220Y8540370D01*
X4410780Y8556250D01*
X4438340D01*
X4465900Y8545670D01*
X4489520Y8519210D01*
G01X4654870Y8238750D02*
Y8556250D01*
G01X4820230D02*
Y8238750D01*
G01Y8397500D02*
X4654870D01*
G01X5131250Y8238750D02*
X4973770D01*
Y8556250D01*
X5131250D01*
G01X5068260Y8402800D02*
X4973770D01*
G01X5280860Y8238750D02*
Y8556250D01*
X5359590D01*
X5391090Y8540370D01*
X5414710Y8519210D01*
X5434400Y8487460D01*
X5450150Y8450410D01*
X5454080Y8397500D01*
X5450150Y8344580D01*
X5434400Y8307540D01*
X5414710Y8275780D01*
X5391090Y8254620D01*
X5359590Y8238750D01*
X5280860D01*
G01X5564320Y8132920D02*
X5800540D01*
G01X5914710Y8281070D02*
X5946210Y8254620D01*
X5981640Y8238750D01*
X6013140D01*
X6044630Y8254620D01*
X6068260Y8281070D01*
X6080070Y8318130D01*
X6072200Y8355160D01*
X6052510Y8386910D01*
X6017070Y8408090D01*
X5969830Y8418670D01*
X5942270Y8439830D01*
X5930460Y8476870D01*
X5938340Y8513920D01*
X5958020Y8540370D01*
X5985580Y8556250D01*
X6013140D01*
X6040700Y8545670D01*
X6064320Y8519210D01*
G01X6265110Y8556250D02*
X6359590D01*
G01X6312350D02*
Y8238750D01*
G01X6265110D02*
X6359590D01*
G01X6552500Y8556250D02*
X6702120D01*
X6552500Y8238750D01*
X6702120D01*
G01X7021010D02*
X6863530D01*
Y8556250D01*
X7021010D01*
G01X6958020Y8402800D02*
X6863530D01*
G01X4662740Y5963330D02*
X4686370Y5995080D01*
X4713930Y6010960D01*
X4745430Y6016250D01*
X4784790Y6005670D01*
X4812360Y5979210D01*
X4820230Y5947460D01*
X4816290Y5915700D01*
X4800540Y5889250D01*
X4721800Y5836330D01*
X4686370Y5799290D01*
X4662740Y5746360D01*
X4654870Y5698750D01*
X4820230D01*
G01X5052510Y5688170D02*
X5044630Y5693460D01*
Y5704040D01*
X5052510Y5709330D01*
X5060390Y5704040D01*
Y5693460D01*
X5052510Y5688170D01*
G01X5280860Y5746360D02*
X5304470Y5719910D01*
X5332030Y5704040D01*
X5367470Y5698750D01*
X5402910Y5709330D01*
X5430460Y5730490D01*
X5450150Y5767540D01*
X5454080Y5809870D01*
X5446210Y5852200D01*
X5426520Y5878670D01*
X5398960Y5899830D01*
X5371410Y5905120D01*
X5343850Y5899830D01*
X5308420Y5878670D01*
X5320230Y6016250D01*
X5426520D01*
G01X4737550Y6333750D02*
Y6651250D01*
X4690310Y6587750D01*
G01Y6333750D02*
X4784790D01*
G01X5052510Y6323170D02*
X5044630Y6328460D01*
Y6339040D01*
X5052510Y6344330D01*
X5060390Y6339040D01*
Y6328460D01*
X5052510Y6323170D01*
G01X5367470Y6651250D02*
X5335970Y6640670D01*
X5312350Y6614210D01*
X5296600Y6582460D01*
X5284790Y6540120D01*
X5280860Y6492500D01*
X5284790Y6444870D01*
X5296600Y6402540D01*
X5312350Y6370780D01*
X5335970Y6344330D01*
X5367470Y6333750D01*
X5398960Y6344330D01*
X5422590Y6370780D01*
X5438340Y6402540D01*
X5450150Y6444870D01*
X5454080Y6492500D01*
X5450150Y6540120D01*
X5438340Y6582460D01*
X5422590Y6614210D01*
X5398960Y6640670D01*
X5367470Y6651250D01*
G01X4737550Y7286250D02*
X4706050Y7275670D01*
X4682430Y7249210D01*
X4666680Y7217460D01*
X4654870Y7175120D01*
X4650940Y7127500D01*
X4654870Y7079870D01*
X4666680Y7037540D01*
X4682430Y7005780D01*
X4706050Y6979330D01*
X4737550Y6968750D01*
X4769040Y6979330D01*
X4792670Y7005780D01*
X4808420Y7037540D01*
X4820230Y7079870D01*
X4824160Y7127500D01*
X4820230Y7175120D01*
X4808420Y7217460D01*
X4792670Y7249210D01*
X4769040Y7275670D01*
X4737550Y7286250D01*
G01X5052510Y6958170D02*
X5044630Y6963460D01*
Y6974040D01*
X5052510Y6979330D01*
X5060390Y6974040D01*
Y6963460D01*
X5052510Y6958170D01*
G01X5280860Y7016360D02*
X5304470Y6989910D01*
X5332030Y6974040D01*
X5367470Y6968750D01*
X5402910Y6979330D01*
X5430460Y7000490D01*
X5450150Y7037540D01*
X5454080Y7079870D01*
X5446210Y7122200D01*
X5426520Y7148670D01*
X5398960Y7169830D01*
X5371410Y7175120D01*
X5343850Y7169830D01*
X5308420Y7148670D01*
X5320230Y7286250D01*
X5426520D01*
G01X4737550Y7921250D02*
X4706050Y7910670D01*
X4682430Y7884210D01*
X4666680Y7852460D01*
X4654870Y7810120D01*
X4650940Y7762500D01*
X4654870Y7714870D01*
X4666680Y7672540D01*
X4682430Y7640780D01*
X4706050Y7614330D01*
X4737550Y7603750D01*
X4769040Y7614330D01*
X4792670Y7640780D01*
X4808420Y7672540D01*
X4820230Y7714870D01*
X4824160Y7762500D01*
X4820230Y7810120D01*
X4808420Y7852460D01*
X4792670Y7884210D01*
X4769040Y7910670D01*
X4737550Y7921250D01*
G01X5052510Y7593170D02*
X5044630Y7598460D01*
Y7609040D01*
X5052510Y7614330D01*
X5060390Y7609040D01*
Y7598460D01*
X5052510Y7593170D01*
G01X5280860Y7667250D02*
X5304470Y7630200D01*
X5335970Y7609040D01*
X5371410Y7603750D01*
X5402910Y7609040D01*
X5434400Y7635490D01*
X5454080Y7667250D01*
X5458020Y7699000D01*
X5450150Y7736030D01*
X5422590Y7762500D01*
X5395030Y7773090D01*
X5359590D01*
G01X5395030D02*
X5418650Y7788960D01*
X5438340Y7815410D01*
X5446210Y7847160D01*
X5438340Y7878920D01*
X5418650Y7905370D01*
X5383220Y7921250D01*
X5347790Y7915960D01*
X5312350Y7894790D01*
G01X7611560Y8715000D02*
Y5540000D01*
G01X8359590Y5698750D02*
Y6016250D01*
X8454080D01*
X8485570Y6000370D01*
X8509200Y5963330D01*
X8517070Y5921000D01*
X8509200Y5878670D01*
X8489510Y5846910D01*
X8454080Y5831030D01*
X8359590D01*
G01X8674550Y6016250D02*
Y5698750D01*
X8832030D01*
G01X8969820D02*
X9068250Y6016250D01*
X9166680Y5698750D01*
G01X9131240Y5809870D02*
X9005250D01*
G01X9383210Y6016250D02*
Y5698750D01*
G01X9292660Y6016250D02*
X9473760D01*
G01X9776910Y5698750D02*
X9619430D01*
Y6016250D01*
X9776910D01*
G01X9713920Y5862800D02*
X9619430D01*
G01X9926520Y5698750D02*
Y6016250D01*
X10005250D01*
X10036750Y6000370D01*
X10060370Y5979210D01*
X10080060Y5947460D01*
X10095810Y5910410D01*
X10099740Y5857500D01*
X10095810Y5804580D01*
X10080060Y5767540D01*
X10060370Y5735780D01*
X10036750Y5714620D01*
X10005250Y5698750D01*
X9926520D01*
G01X8359590Y6333750D02*
Y6651250D01*
X8454080D01*
X8485570Y6635370D01*
X8509200Y6598330D01*
X8517070Y6556000D01*
X8509200Y6513670D01*
X8489510Y6481910D01*
X8454080Y6466030D01*
X8359590D01*
G01X8674550Y6651250D02*
Y6333750D01*
X8832030D01*
G01X8969820D02*
X9068250Y6651250D01*
X9166680Y6333750D01*
G01X9131240Y6444870D02*
X9005250D01*
G01X9383210Y6651250D02*
Y6333750D01*
G01X9292660Y6651250D02*
X9473760D01*
G01X9776910Y6333750D02*
X9619430D01*
Y6651250D01*
X9776910D01*
G01X9713920Y6497800D02*
X9619430D01*
G01X9926520Y6333750D02*
Y6651250D01*
X10005250D01*
X10036750Y6635370D01*
X10060370Y6614210D01*
X10080060Y6582460D01*
X10095810Y6545410D01*
X10099740Y6492500D01*
X10095810Y6439580D01*
X10080060Y6402540D01*
X10060370Y6370780D01*
X10036750Y6349620D01*
X10005250Y6333750D01*
X9926520D01*
G01X8359590Y6968750D02*
Y7286250D01*
X8454080D01*
X8485570Y7270370D01*
X8509200Y7233330D01*
X8517070Y7191000D01*
X8509200Y7148670D01*
X8489510Y7116910D01*
X8454080Y7101030D01*
X8359590D01*
G01X8674550Y7286250D02*
Y6968750D01*
X8832030D01*
G01X8969820D02*
X9068250Y7286250D01*
X9166680Y6968750D01*
G01X9131240Y7079870D02*
X9005250D01*
G01X9383210Y7286250D02*
Y6968750D01*
G01X9292660Y7286250D02*
X9473760D01*
G01X9776910Y6968750D02*
X9619430D01*
Y7286250D01*
X9776910D01*
G01X9713920Y7132800D02*
X9619430D01*
G01X9926520Y6968750D02*
Y7286250D01*
X10005250D01*
X10036750Y7270370D01*
X10060370Y7249210D01*
X10080060Y7217460D01*
X10095810Y7180410D01*
X10099740Y7127500D01*
X10095810Y7074580D01*
X10080060Y7037540D01*
X10060370Y7005780D01*
X10036750Y6984620D01*
X10005250Y6968750D01*
X9926520D01*
G01X8359590Y7603750D02*
Y7921250D01*
X8454080D01*
X8485570Y7905370D01*
X8509200Y7868330D01*
X8517070Y7826000D01*
X8509200Y7783670D01*
X8489510Y7751910D01*
X8454080Y7736030D01*
X8359590D01*
G01X8674550Y7921250D02*
Y7603750D01*
X8832030D01*
G01X8969820D02*
X9068250Y7921250D01*
X9166680Y7603750D01*
G01X9131240Y7714870D02*
X9005250D01*
G01X9383210Y7921250D02*
Y7603750D01*
G01X9292660Y7921250D02*
X9473760D01*
G01X9776910Y7603750D02*
X9619430D01*
Y7921250D01*
X9776910D01*
G01X9713920Y7767800D02*
X9619430D01*
G01X9926520Y7603750D02*
Y7921250D01*
X10005250D01*
X10036750Y7905370D01*
X10060370Y7884210D01*
X10080060Y7852460D01*
X10095810Y7815410D01*
X10099740Y7762500D01*
X10095810Y7709580D01*
X10080060Y7672540D01*
X10060370Y7640780D01*
X10036750Y7619620D01*
X10005250Y7603750D01*
X9926520D01*
G01X8359590Y8238750D02*
Y8556250D01*
X8454080D01*
X8485570Y8540370D01*
X8509200Y8503330D01*
X8517070Y8461000D01*
X8509200Y8418670D01*
X8489510Y8386910D01*
X8454080Y8371030D01*
X8359590D01*
G01X8674550Y8556250D02*
Y8238750D01*
X8832030D01*
G01X8969820D02*
X9068250Y8556250D01*
X9166680Y8238750D01*
G01X9131240Y8349870D02*
X9005250D01*
G01X9383210Y8556250D02*
Y8238750D01*
G01X9292660Y8556250D02*
X9473760D01*
G01X9776910Y8238750D02*
X9619430D01*
Y8556250D01*
X9776910D01*
G01X9713920Y8402800D02*
X9619430D01*
G01X9926520Y8238750D02*
Y8556250D01*
X10005250D01*
X10036750Y8540370D01*
X10060370Y8519210D01*
X10080060Y8487460D01*
X10095810Y8450410D01*
X10099740Y8397500D01*
X10095810Y8344580D01*
X10080060Y8307540D01*
X10060370Y8275780D01*
X10036750Y8254620D01*
X10005250Y8238750D01*
X9926520D01*
G01X10839900Y8715000D02*
Y5540000D01*
G01X11509190Y8238750D02*
X11477690Y8244040D01*
X11450140Y8265200D01*
X11426510Y8296960D01*
X11410760Y8334000D01*
X11402890Y8376330D01*
Y8418670D01*
X11410760Y8461000D01*
X11426510Y8498040D01*
X11450140Y8529790D01*
X11477690Y8550960D01*
X11509190Y8556250D01*
X11540680Y8550960D01*
X11568240Y8529790D01*
X11591870Y8498040D01*
X11607620Y8461000D01*
X11615490Y8418670D01*
Y8376330D01*
X11607620Y8334000D01*
X11591870Y8296960D01*
X11568240Y8265200D01*
X11540680Y8244040D01*
X11509190Y8238750D01*
G01X11540680Y8323420D02*
X11587930Y8238750D01*
G01X11824150Y8556250D02*
Y8238750D01*
G01X11733600Y8556250D02*
X11914700D01*
G01X12139110Y8238750D02*
Y8381620D01*
X12060370Y8556250D01*
G01X12217850D02*
X12139110Y8381620D01*
G01X11599740Y7640780D02*
X11627300Y7614330D01*
X11658790Y7603750D01*
X11690290Y7614330D01*
X11717850Y7646070D01*
X11737540Y7693710D01*
X11745410Y7741330D01*
Y7799540D01*
X11737540Y7847160D01*
X11717850Y7889500D01*
X11694230Y7910670D01*
X11666670Y7921250D01*
X11635170Y7910670D01*
X11611550Y7889500D01*
X11595800Y7857750D01*
X11587930Y7815410D01*
X11595800Y7778380D01*
X11615490Y7741330D01*
X11639110Y7720160D01*
X11666670Y7714870D01*
X11698160Y7725450D01*
X11721790Y7751910D01*
X11745410Y7799540D01*
G01X11981630Y7603750D02*
Y7921250D01*
X11934390Y7857750D01*
G01Y7603750D02*
X12028870D01*
G01X11737540Y5746360D02*
X11761150Y5719910D01*
X11788710Y5704040D01*
X11824150Y5698750D01*
X11859590Y5709330D01*
X11887140Y5730490D01*
X11906830Y5767540D01*
X11910760Y5809870D01*
X11902890Y5852200D01*
X11883200Y5878670D01*
X11855640Y5899830D01*
X11828090Y5905120D01*
X11800530Y5899830D01*
X11765100Y5878670D01*
X11776910Y6016250D01*
X11883200D01*
G01X11749340Y6466030D02*
X11776910Y6503090D01*
X11800530Y6524250D01*
X11832030Y6534830D01*
X11859590Y6524250D01*
X11879270Y6503090D01*
X11895020Y6471330D01*
X11898960Y6434290D01*
X11895020Y6402540D01*
X11879270Y6370780D01*
X11855640Y6344330D01*
X11828090Y6333750D01*
X11796590Y6344330D01*
X11769030Y6376070D01*
X11753280Y6423710D01*
X11749340Y6476620D01*
X11757220Y6545410D01*
X11769030Y6582460D01*
X11788710Y6619500D01*
X11816270Y6645960D01*
X11843830Y6651250D01*
X11871390Y6640670D01*
X11891080Y6614210D01*
G01X11737540Y7016360D02*
X11761150Y6989910D01*
X11788710Y6974040D01*
X11824150Y6968750D01*
X11859590Y6979330D01*
X11887140Y7000490D01*
X11906830Y7037540D01*
X11910760Y7079870D01*
X11902890Y7122200D01*
X11883200Y7148670D01*
X11855640Y7169830D01*
X11828090Y7175120D01*
X11800530Y7169830D01*
X11765100Y7148670D01*
X11776910Y7286250D01*
X11883200D01*
M02*
