G04 ================== begin FILE IDENTIFICATION RECORD ==================*
G04 Layout Name:  G:/Geek/Projects/remote_car/PCB/PCB_DRV8301/ti_foc_motor_8301.brd*
G04 Film Name:    GND*
G04 File Format:  Gerber RS274X*
G04 File Origin:  Cadence Allegro 17.2-P019*
G04 Origin Date:  Sat Mar 03 21:34:14 2018*
G04 *
G04 Layer:  ETCH/GND*
G04 Layer:  PIN/GND*
G04 Layer:  VIA CLASS/GND*
G04 *
G04 Offset:    (0.0000 0.0000)*
G04 Mirror:    No*
G04 Mode:      Positive*
G04 Rotation:  0*
G04 FullContactRelief:  No*
G04 UndefLineWidth:     0.2000*
G04 ================== end FILE IDENTIFICATION RECORD ====================*
%FSLAX25Y25*MOMM*%
%IR0*IPPOS*OFA0.00000B0.00000*MIA0B0*SFA1.00000B1.00000*%
%ADD11C,.6*%
%ADD12C,1.*%
%ADD14C,1.8*%
%ADD10C,3.6*%
%ADD13R,1.8X1.8*%
%ADD15C,.3*%
%ADD16C,.5*%
%ADD17C,1.0004*%
%ADD19C,2.2004*%
%ADD18C,1.4004*%
G75*
%LPD*%
G75*
G36*
G01X381040Y50010D02*
G02X367310Y84550I-2J19998D01*
G03X84550Y367310I-137310J145450D01*
G02X50010Y381040I-14542J13728D01*
G01Y3562890D01*
G02X75720Y3582060I19999J4D01*
G03Y3677940I14280J47940D01*
G02X50010Y3697110I-5711J19166D01*
G01Y3795140D01*
G02X81120Y3811770I20001J-2D01*
G03Y3928230I38880J58230D01*
G02X50010Y3944860I-11109J16632D01*
G01Y4949990D01*
X218960D01*
G02X232690Y4915450I2J-19998D01*
G03X507310I137310J-145450D01*
G02X521040Y4949990I13728J14542D01*
G01X1468960D01*
G02X1482690Y4915450I2J-19998D01*
G03X1757310I137310J-145450D01*
G02X1771040Y4949990I13728J14542D01*
G01X2718960D01*
G02X2732690Y4915450I2J-19998D01*
G03X3007310I137310J-145450D01*
G02X3021040Y4949990I13728J14542D01*
G01X3949990D01*
Y381040D01*
G02X3915450Y367310I-19998J-2D01*
G03X3632690Y84550I-145450J-137310D01*
G02X3618960Y50010I-13728J-14542D01*
G01X3252500D01*
G02X3236740Y82310I6J19998D01*
G03X3063260I-86740J67690D01*
G02X3047500Y50010I-15766J-12302D01*
G01X2752500D01*
G02X2736740Y82310I6J19998D01*
G03X2563260I-86740J67690D01*
G02X2547500Y50010I-15766J-12302D01*
G01X381040D01*
G37*
%LPC*%
G75*
G36*
G01X1089980Y110000D02*
Y290000D01*
G02X1110000Y310020I20020J0D01*
G01X1290000D01*
G02X1310020Y290000I0J-20020D01*
G01Y110000D01*
G02X1290000Y89980I-20020J0D01*
G01X1110000D01*
G02X1089980Y110000I0J20020D01*
G37*
G36*
G01X1580000Y1549990D02*
G02Y1650010I0J50010D01*
G01X1670000D01*
G02Y1549990I0J-50010D01*
G01X1580000D01*
G37*
G36*
G01X2446360Y2894350D02*
G03X2472070Y2891490I14542J13733D01*
G02X2463640Y2815650I27931J-41493D01*
G03X2437930Y2818510I-14542J-13733D01*
G02X2446360Y2894350I-27931J41493D01*
G37*
G36*
G01X2147940Y1580020D02*
G03X2127940Y1565740I-830J-19983D01*
G02X2031830Y1566510I-47944J14261D01*
G03X2008980Y1580790I-19257J-5392D01*
G02X1989220Y1581160I-8962J49210D01*
G03X1977560Y1574490I-2152J-9765D01*
G02X1940780Y1638840I-47557J15504D01*
G03X1952440Y1645510I2152J9765D01*
G02X2048170Y1643490I47559J-15505D01*
G03X2071020Y1629210I19257J5392D01*
G02X2082060Y1629980I8979J-49209D01*
G03X2102060Y1644260I830J19983D01*
G02X2147940Y1580020I47943J-14263D01*
G37*
G36*
G01X1669080Y1420810D02*
G03X1654800Y1392250I3633J-19666D01*
G02X1564600Y1391000I-44800J-22249D01*
G03X1559600Y1404330I-9075J4199D01*
G02X1604520Y1493600I20404J45670D01*
G03X1617850Y1496930I4904J8715D01*
G02X1669080Y1420810I42151J-26931D01*
G37*
G36*
G01X1850010Y1140830D02*
Y1130000D01*
G02X1749990I-50010J0D01*
G01Y1370000D01*
G02X1850010I50010J0D01*
G01Y1359170D01*
X1860850D01*
X1861670Y1359310D01*
G02X1920010Y1310000I8331J-49310D01*
G01Y1190000D01*
G02X1861670Y1140690I-50009J0D01*
G01X1860850Y1140830D01*
X1850010D01*
G37*
G36*
G01X1958720Y2998340D02*
G02X1881280I-38720J-58340D01*
G03Y3031660I-11065J16660D01*
G02X1958720I38720J58340D01*
G03Y2998340I11065J-16660D01*
G37*
G36*
G01X2428230Y752250D02*
G02X2358910Y759180I-38231J-32252D01*
G03X2361770Y787750I-12428J15672D01*
G02X2431090Y780820I38231J32252D01*
G03X2428230Y752250I12428J-15672D01*
G37*
G54D17*
X180000Y3490000D03*
X530000Y1680000D03*
X570000Y1220000D03*
X680000Y2870000D03*
X750000Y780000D03*
X950000Y730000D03*
X1020000Y4180000D03*
X1090000Y1530000D03*
X1180000Y750000D03*
X1290000Y3380000D03*
X1380000Y740000D03*
X1580000Y2210000D03*
X1600000Y3190000D03*
X1860000Y360000D03*
X2010000Y790000D03*
X2130000Y810000D03*
X2150000Y1400000D03*
X2275000Y4090000D03*
X2280000Y4310000D03*
X2310000Y2060000D03*
X2340000Y3380000D03*
X2480000Y1630000D03*
X2490000Y1450000D03*
X2600000Y2920000D03*
Y4130000D03*
X2660000Y1080000D03*
X2790000Y1670000D03*
X2840000Y1980000D03*
X3020000Y960000D03*
X3030000Y2910000D03*
X3170000Y1170000D03*
X3520000Y4175000D03*
G54D19*
X1454000Y200000D03*
X1708000D03*
X1962000D03*
G54D18*
X600000Y3210000D03*
X740000Y1940000D03*
%LPD*%
G75*
G54D10*
X230000Y230000D03*
X370000Y4770000D03*
X1620000D03*
X2870000D03*
X3770000Y230000D03*
G54D11*
X90000Y3630000D03*
X160000Y2680000D03*
X180000Y3490000D03*
X490000Y370000D03*
Y2850000D03*
X550000Y1020000D03*
X530000Y1680000D03*
X570000Y1220000D03*
X680000Y2870000D03*
X750000Y780000D03*
X710000Y2270000D03*
X790000Y4600000D03*
X840000Y900000D03*
X950000Y730000D03*
X1020000Y4180000D03*
X1090000Y1530000D03*
X1180000Y750000D03*
X1220000Y1200000D03*
X1260000Y1550000D03*
X1290000Y3380000D03*
X1270000Y4280000D03*
X1380000Y740000D03*
X1370000Y2880000D03*
X1470000Y2590000D03*
X1550000Y2340000D03*
X1610000Y1370000D03*
X1580000Y1450000D03*
Y1600000D03*
Y2210000D03*
X1600000Y3190000D03*
X1660000Y1470000D03*
X1670000Y1600000D03*
X1740000Y800000D03*
Y2600000D03*
X1800000Y1130000D03*
Y1250000D03*
Y1370000D03*
X1860000Y360000D03*
X1870000Y1190000D03*
Y1310000D03*
X1930000Y1590000D03*
X2010000Y790000D03*
X2000000Y1630000D03*
X2010000Y2860000D03*
X2080000Y1580000D03*
X2040000Y4600000D03*
X2130000Y810000D03*
X2150000Y1400000D03*
Y1630000D03*
X2270000Y170000D03*
X2275000Y4090000D03*
X2280000Y4310000D03*
X2310000Y2060000D03*
X2340000Y3380000D03*
X2390000Y720000D03*
X2400000Y820000D03*
X2410000Y2860000D03*
X2490000Y1450000D03*
X2480000Y1630000D03*
X2500000Y2850000D03*
X2530000Y4340000D03*
X2600000Y2920000D03*
X2570000Y3080000D03*
X2600000Y4130000D03*
X2650000Y760000D03*
X2660000Y1080000D03*
X2750000Y980000D03*
Y1890000D03*
X2790000Y1670000D03*
X2810000Y2180000D03*
X2840000Y1980000D03*
X2850000Y2700000D03*
X2900000Y190000D03*
X3020000Y960000D03*
X2980000Y2010000D03*
X2970000Y3150000D03*
X3030000Y2910000D03*
X3100000Y780000D03*
X3140000Y1350000D03*
X3170000Y1170000D03*
Y3000000D03*
X3230000Y2040000D03*
X3290000Y4600000D03*
X3340000Y2620000D03*
X3410000Y240000D03*
X3480000Y1830000D03*
X3520000Y2030000D03*
Y4175000D03*
X3550000Y4350000D03*
X3820000Y4290000D03*
X3830000Y3580000D03*
G54D12*
G01X230000Y230000D02*
Y440020D01*
G01Y230000D02*
X440020D01*
X120000Y3870000D03*
X600000Y3210000D03*
X740000Y1940000D03*
X1920000Y2940000D03*
Y3090000D03*
G54D13*
X1200000Y200000D03*
G54D14*
X1454000D03*
X1708000D03*
X1962000D03*
X2650000Y150000D03*
X3150000D03*
G54D15*
G01X1454000Y200000D02*
X1333980D01*
G01X1454000D02*
X1574020D01*
G54D16*
G01X1454000D02*
Y79980D01*
G01Y200000D02*
Y320020D01*
G01X2510000Y150000D02*
X2650000D01*
G01D02*
X2770020D01*
G01X2650000D02*
Y270020D01*
M02*
