G04 ================== begin FILE IDENTIFICATION RECORD ==================*
G04 Layout Name:  G:/Geek/Projects/remote_car/PCB/PCB_DRV8301/ti_foc_motor_8301.brd*
G04 Film Name:    SILKSCREEN_TOP*
G04 File Format:  Gerber RS274X*
G04 File Origin:  Cadence Allegro 17.2-P019*
G04 Origin Date:  Sat Mar 03 21:35:29 2018*
G04 *
G04 Layer:  MANUFACTURING/AUTOSILK_TOP*
G04 Layer:  BOARD GEOMETRY/OUTLINE*
G04 Layer:  BOARD GEOMETRY/SILKSCREEN_TOP*
G04 *
G04 Offset:    (0.0000 0.0000)*
G04 Mirror:    No*
G04 Mode:      Positive*
G04 Rotation:  0*
G04 FullContactRelief:  No*
G04 UndefLineWidth:     0.2000*
G04 ================== end FILE IDENTIFICATION RECORD ====================*
%FSLAX25Y25*MOMM*%
%IR0*IPPOS*OFA0.00000B0.00000*MIA0B0*SFA1.00000B1.00000*%
%ADD10C,.2*%
%ADD11C,.3*%
G75*
%LPD*%
G75*
G54D10*
G01X20000Y230000D02*
G03X230000Y20000I210000J0D01*
G01Y440000D02*
G03X20000Y230000I0J-210000D01*
G01X160000Y4770000D02*
G03X370000Y4560000I210000J0D01*
G01Y4980000D02*
G03X160000Y4770000I0J-210000D01*
G01X230000Y20000D02*
G03X440000Y230000I0J210000D01*
G01D02*
G03X230000Y440000I-210000J0D01*
G01X670000Y3130000D02*
Y2910000D01*
X260000D01*
Y3130000D01*
X670000D01*
G01X910000Y4520000D02*
X750000D01*
Y4250000D01*
X480000D01*
Y4530000D01*
X260000D01*
Y4250000D01*
X220000Y4210000D01*
Y3250000D01*
X980000D01*
Y4230000D01*
X910000Y4300000D01*
Y4520000D01*
G01X280000Y1970000D02*
Y2590000D01*
X680000D01*
Y1970000D01*
X280000D01*
G01X360000Y2220000D02*
X600000D01*
X480000Y2340000D01*
X360000Y2220000D01*
G01Y2340000D02*
X600000D01*
G01X370000Y4560000D02*
G03X580000Y4770000I0J210000D01*
G01D02*
G03X370000Y4980000I-210000J0D01*
G01X450000Y760000D02*
X650000D01*
Y430000D01*
X450000D01*
Y760000D01*
G01X470000Y790000D02*
X630000D01*
G01X920000Y310000D02*
Y90000D01*
X510000D01*
Y310000D01*
X920000D01*
G01X590000Y1540000D02*
Y1740000D01*
X920000D01*
Y1540000D01*
X590000D01*
G01X560000Y1560000D02*
Y1720000D01*
G01X650000Y760000D02*
X850000D01*
Y430000D01*
X650000D01*
Y760000D01*
G01X670000Y790000D02*
X830000D01*
G01X960000Y2380000D02*
X740000D01*
Y3200000D01*
X960000D01*
G01X710000Y3120000D02*
Y2920000D01*
G01X1010000Y1870000D02*
X790000D01*
Y2280000D01*
X1010000D01*
Y1870000D01*
G01X1000000Y1830000D02*
X800000D01*
G01X1030000Y350000D02*
X870000D01*
G01X1050000Y380000D02*
X850000D01*
Y710000D01*
X1050000D01*
Y380000D01*
G01X930000Y200000D02*
X1040000D01*
G01X980000Y300000D02*
Y100000D01*
G01X1050000Y30000D02*
X2110000D01*
Y360000D01*
X1040000D01*
Y40000D01*
X1050000Y30000D01*
G01X1040000Y90000D02*
X1100000Y30000D01*
G01X1230000Y350000D02*
X1070000D01*
G01X1250000Y380000D02*
X1050000D01*
Y710000D01*
X1250000D01*
Y380000D01*
G01X1200000Y1920000D02*
X1040000D01*
G01X1220000Y1950000D02*
X1020000D01*
Y2280000D01*
X1220000D01*
Y1950000D01*
G01X1370000Y4040000D02*
Y3840000D01*
X1040000D01*
Y4040000D01*
X1370000D01*
G01X1120000Y900000D02*
Y1850000D01*
X2630000D01*
Y900000D01*
X1120000D01*
G01X1430000Y350000D02*
X1270000D01*
G01X1450000Y380000D02*
X1250000D01*
Y710000D01*
X1450000D01*
Y380000D01*
G01X1410000Y1920000D02*
X1250000D01*
G01X1430000Y1950000D02*
X1230000D01*
Y2280000D01*
X1430000D01*
Y1950000D01*
G01X1340000Y3200000D02*
X1560000D01*
Y2380000D01*
X1340000D01*
G01X1350000Y70000D02*
X1560000D01*
G01X1400000Y4020000D02*
Y3860000D01*
G01X2160000Y4520000D02*
X2000000D01*
Y4250000D01*
X1730000D01*
Y4530000D01*
X1510000D01*
Y4250000D01*
X1470000Y4210000D01*
Y3250000D01*
X2230000D01*
Y4230000D01*
X2160000Y4300000D01*
Y4520000D01*
G01X1410000Y4770000D02*
G03X1620000Y4560000I210000J0D01*
G01Y4980000D02*
G03X1410000Y4770000I0J-210000D01*
G01X1580000Y770000D02*
X1800000D01*
Y360000D01*
X1580000D01*
Y770000D01*
G01X1590000Y810000D02*
X1790000D01*
G01X1650000Y2470000D02*
X1850000D01*
Y2140000D01*
X1650000D01*
Y2470000D01*
G01X1670000Y2500000D02*
X1830000D01*
G01X1610000Y3160000D02*
X1810000D01*
Y2830000D01*
X1610000D01*
Y3160000D01*
G01X1630000Y3190000D02*
X1790000D01*
G01X1620000Y4560000D02*
G03X1830000Y4770000I0J210000D01*
G01D02*
G03X1620000Y4980000I-210000J0D01*
G01X2160000Y620000D02*
Y420000D01*
X1830000D01*
Y620000D01*
X2160000D01*
G01X1910000Y2620000D02*
X2110000D01*
Y2290000D01*
X1910000D01*
Y2620000D01*
G01X1930000Y2650000D02*
X2090000D01*
G01X2060000Y3160000D02*
X2260000D01*
Y2830000D01*
X2060000D01*
Y3160000D01*
G01X2080000Y3190000D02*
X2240000D01*
G01X2190000Y600000D02*
Y440000D01*
G01Y2620000D02*
X2390000D01*
Y2290000D01*
X2190000D01*
Y2620000D01*
G01X2400000Y330000D02*
X2240000D01*
G01X2420000Y360000D02*
X2220000D01*
Y690000D01*
X2420000D01*
Y360000D01*
G01X2210000Y2650000D02*
X2370000D01*
G01X2620000Y4040000D02*
Y3840000D01*
X2290000D01*
Y4040000D01*
X2620000D01*
G01X2630000Y330000D02*
X2470000D01*
G01X2650000Y360000D02*
X2450000D01*
Y690000D01*
X2650000D01*
Y360000D01*
G01X2470000Y2620000D02*
X2670000D01*
Y2290000D01*
X2470000D01*
Y2620000D01*
G01X2530000Y150000D02*
G03X2650000Y30000I120000J0D01*
G01Y270000D02*
G03X2530000Y150000I0J-120000D01*
G01X2490000Y2650000D02*
X2650000D01*
G01Y30000D02*
G03X2770000Y150000I0J120000D01*
G01D02*
G03X2650000Y270000I-120000J0D01*
G01Y4020000D02*
Y3860000D01*
G01X2660000Y4770000D02*
G03X2870000Y4560000I210000J0D01*
G01Y4980000D02*
G03X2660000Y4770000I0J-210000D01*
G01X3410000Y4520000D02*
X3250000D01*
Y4250000D01*
X2980000D01*
Y4530000D01*
X2760000D01*
Y4250000D01*
X2720000Y4210000D01*
Y3250000D01*
X3480000D01*
Y4230000D01*
X3410000Y4300000D01*
Y4520000D01*
G01X2790000Y90000D02*
X2890000D01*
G01X2930000Y2260000D02*
X2770000D01*
G01X2950000Y2290000D02*
X2750000D01*
Y2620000D01*
X2950000D01*
Y2290000D01*
G01X2870000Y4560000D02*
G03X3080000Y4770000I0J210000D01*
G01D02*
G03X2870000Y4980000I-210000J0D01*
G01X3080000Y1460000D02*
X2920000D01*
G01X3100000Y1490000D02*
X2900000D01*
Y1820000D01*
X3100000D01*
Y1490000D01*
G01X3030000Y150000D02*
G03X3150000Y30000I120000J0D01*
G01Y270000D02*
G03X3030000Y150000I0J-120000D01*
G01X3210000Y2260000D02*
X3050000D01*
G01X3230000Y2290000D02*
X3030000D01*
Y2620000D01*
X3230000D01*
Y2290000D01*
G01X3150000Y30000D02*
G03X3270000Y150000I0J120000D01*
G01D02*
G03X3150000Y270000I-120000J0D01*
G01X3170000Y450000D02*
Y610000D01*
G01X3200000Y430000D02*
Y630000D01*
X3530000D01*
Y430000D01*
X3200000D01*
G01Y660000D02*
Y860000D01*
X3530000D01*
Y660000D01*
X3200000D01*
G01X3170000Y680000D02*
Y840000D01*
G01Y910000D02*
Y1070000D01*
G01X3200000Y890000D02*
Y1090000D01*
X3530000D01*
Y890000D01*
X3200000D01*
G01Y1820000D02*
X3420000D01*
Y1410000D01*
X3200000D01*
Y1820000D01*
G01X3210000Y1860000D02*
X3410000D01*
G01X3310000Y120000D02*
X3530000D01*
G01X3410000Y240000D02*
Y30000D01*
G01X3560000Y230000D02*
G03X3770000Y20000I210000J0D01*
G01Y440000D02*
G03X3560000Y230000I0J-210000D01*
G01X3880000Y4060000D02*
Y3860000D01*
X3550000D01*
Y4060000D01*
X3880000D01*
G01X3770000Y20000D02*
G03X3980000Y230000I0J210000D01*
G01D02*
G03X3770000Y440000I-210000J0D01*
G01X3910000Y4040000D02*
Y3880000D01*
G01X50000Y0D02*
X3950000D01*
G03X4000000Y50000I0J50000D01*
G01Y4950000D01*
G03X3950000Y5000000I-50000J0D01*
G01X50000D01*
G03X0Y4950000I0J-50000D01*
G01Y50000D01*
G03X50000Y0I50000J0D01*
G01X190000Y1050710D02*
X111260D01*
Y1087710D01*
G01X149320Y1074080D02*
Y1050710D01*
G01X190000Y1147950D02*
X188690Y1140160D01*
X183440Y1133350D01*
X175570Y1127500D01*
X166380Y1123610D01*
X155880Y1121660D01*
X145380D01*
X134880Y1123610D01*
X125690Y1127500D01*
X117820Y1133350D01*
X112570Y1140160D01*
X111260Y1147950D01*
X112570Y1155740D01*
X117820Y1162550D01*
X125690Y1168400D01*
X134880Y1172290D01*
X145380Y1174240D01*
X155880D01*
X166380Y1172290D01*
X175570Y1168400D01*
X183440Y1162550D01*
X188690Y1155740D01*
X190000Y1147950D01*
G01X117820Y1248110D02*
X113880Y1242270D01*
X111260Y1235450D01*
Y1227660D01*
X115200Y1218900D01*
X121760Y1212090D01*
X129630Y1207220D01*
X142760Y1203320D01*
X154570Y1202350D01*
X166380Y1204300D01*
X174250Y1207220D01*
X182130Y1213060D01*
X187380Y1219870D01*
X190000Y1226690D01*
Y1233510D01*
X187380Y1240320D01*
X183440Y1246160D01*
X178190Y1251030D01*
G01X190000Y1362750D02*
X111260D01*
Y1382220D01*
X115200Y1390010D01*
X120450Y1395850D01*
X128320Y1400720D01*
X137510Y1404620D01*
X150630Y1405590D01*
X163750Y1404620D01*
X172940Y1400720D01*
X180820Y1395850D01*
X186060Y1390010D01*
X190000Y1382220D01*
Y1362750D01*
G01Y1443440D02*
X111260D01*
Y1467780D01*
X115200Y1475570D01*
X120450Y1480440D01*
X130950Y1482380D01*
X141440Y1480440D01*
X148000Y1474590D01*
X151940Y1467780D01*
Y1443440D01*
G01Y1467780D02*
X190000Y1482380D01*
G01X111260Y1517310D02*
X190000Y1541650D01*
X111260Y1565990D01*
G01X190000Y1620390D02*
X188690Y1627210D01*
X184750Y1634990D01*
X178190Y1639860D01*
X169000Y1641810D01*
X159820Y1639860D01*
X151940Y1634020D01*
X148000Y1625260D01*
Y1615520D01*
X145380Y1609680D01*
X138820Y1604810D01*
X129630Y1602860D01*
X120450Y1605790D01*
X113880Y1612600D01*
X111260Y1620390D01*
X113880Y1628180D01*
X120450Y1634990D01*
X129630Y1637920D01*
X138820Y1635970D01*
X145380Y1631100D01*
X148000Y1625260D01*
Y1615520D01*
X151940Y1606760D01*
X159820Y1600920D01*
X169000Y1598970D01*
X178190Y1600920D01*
X184750Y1605790D01*
X188690Y1613570D01*
X190000Y1620390D01*
G01X174250Y1677710D02*
X183440Y1683550D01*
X188690Y1691340D01*
X190000Y1700100D01*
X188690Y1707890D01*
X182130Y1715680D01*
X174250Y1720550D01*
X166380Y1721520D01*
X157190Y1719580D01*
X150630Y1712760D01*
X148000Y1705950D01*
Y1697180D01*
G01Y1705950D02*
X144070Y1711790D01*
X137510Y1716660D01*
X129630Y1718600D01*
X121760Y1716660D01*
X115200Y1711790D01*
X111260Y1703020D01*
X112570Y1694260D01*
X117820Y1685500D01*
G01X111260Y1777870D02*
X113880Y1770080D01*
X120450Y1764240D01*
X128320Y1760340D01*
X138820Y1757420D01*
X150630Y1756450D01*
X162440Y1757420D01*
X172940Y1760340D01*
X180820Y1764240D01*
X187380Y1770080D01*
X190000Y1777870D01*
X187380Y1785660D01*
X180820Y1791500D01*
X172940Y1795400D01*
X162440Y1798320D01*
X150630Y1799290D01*
X138820Y1798320D01*
X128320Y1795400D01*
X120450Y1791500D01*
X113880Y1785660D01*
X111260Y1777870D01*
G01X190000Y1856610D02*
X111260D01*
X127010Y1844930D01*
G01X190000D02*
Y1868290D01*
G01X107820Y2970630D02*
X103880Y2964790D01*
X101260Y2957970D01*
Y2950180D01*
X105200Y2941420D01*
X111760Y2934610D01*
X119630Y2929740D01*
X132760Y2925840D01*
X144570Y2924870D01*
X156380Y2926820D01*
X164250Y2929740D01*
X172130Y2935580D01*
X177380Y2942390D01*
X180000Y2949210D01*
Y2956030D01*
X177380Y2962840D01*
X173440Y2968680D01*
X168190Y2973550D01*
G01X164250Y3006530D02*
X173440Y3012370D01*
X178690Y3020160D01*
X180000Y3028920D01*
X178690Y3036710D01*
X172130Y3044500D01*
X164250Y3049370D01*
X156380Y3050340D01*
X147190Y3048400D01*
X140630Y3041580D01*
X138000Y3034770D01*
Y3026000D01*
G01Y3034770D02*
X134070Y3040610D01*
X127510Y3045480D01*
X119630Y3047420D01*
X111760Y3045480D01*
X105200Y3040610D01*
X101260Y3031840D01*
X102570Y3023080D01*
X107820Y3014320D01*
G01X114380Y3088190D02*
X106510Y3094030D01*
X102570Y3100850D01*
X101260Y3108640D01*
X103880Y3118370D01*
X110450Y3125190D01*
X118320Y3127140D01*
X126200Y3126160D01*
X132760Y3122270D01*
X145880Y3102800D01*
X155070Y3094030D01*
X168190Y3088190D01*
X180000Y3086240D01*
Y3127140D01*
G01X230630Y592180D02*
X224790Y596120D01*
X217970Y598740D01*
X210180D01*
X201420Y594800D01*
X194610Y588240D01*
X189740Y580370D01*
X185840Y567240D01*
X184870Y555430D01*
X186820Y543620D01*
X189740Y535750D01*
X195580Y527870D01*
X202390Y522620D01*
X209210Y520000D01*
X216030D01*
X222840Y522620D01*
X228680Y526560D01*
X233550Y531810D01*
G01X266530Y535750D02*
X272370Y526560D01*
X280160Y521310D01*
X288920Y520000D01*
X296710Y521310D01*
X304500Y527870D01*
X309370Y535750D01*
X310340Y543620D01*
X308400Y552810D01*
X301580Y559370D01*
X294770Y562000D01*
X286000D01*
G01X294770D02*
X300610Y565930D01*
X305480Y572490D01*
X307420Y580370D01*
X305480Y588240D01*
X300610Y594800D01*
X291840Y598740D01*
X283080Y597430D01*
X274320Y592180D01*
G01X364740Y520000D02*
X366690Y537060D01*
X369610Y551490D01*
X373510Y564620D01*
X378370Y579050D01*
X386160Y598740D01*
X347220D01*
G01X240000Y669740D02*
X161260D01*
Y694080D01*
X165200Y701870D01*
X170450Y706740D01*
X180950Y708680D01*
X191440Y706740D01*
X198000Y700890D01*
X201940Y694080D01*
Y669740D01*
G01Y694080D02*
X240000Y708680D01*
G01X207190Y749450D02*
X198000Y756270D01*
X192760Y762110D01*
X190130Y769900D01*
X192760Y776710D01*
X198000Y781580D01*
X205880Y785480D01*
X215070Y786450D01*
X222940Y785480D01*
X230820Y781580D01*
X237380Y775740D01*
X240000Y768920D01*
X237380Y761130D01*
X229500Y754320D01*
X217690Y750420D01*
X204570Y749450D01*
X187510Y751400D01*
X178320Y754320D01*
X169130Y759190D01*
X162570Y766000D01*
X161260Y772820D01*
X163880Y779630D01*
X170450Y784500D01*
G01X307820Y700630D02*
X303880Y694790D01*
X301260Y687970D01*
Y680180D01*
X305200Y671420D01*
X311760Y664610D01*
X319630Y659740D01*
X332760Y655840D01*
X344570Y654870D01*
X356380Y656820D01*
X364250Y659740D01*
X372130Y665580D01*
X377380Y672390D01*
X380000Y679210D01*
Y686030D01*
X377380Y692840D01*
X373440Y698680D01*
X368190Y703550D01*
G01X380000Y757950D02*
X301260D01*
X317010Y746270D01*
G01X380000D02*
Y769630D01*
G01X370820Y820140D02*
X377380Y826950D01*
X380000Y834740D01*
X377380Y842530D01*
X369500Y849350D01*
X357690Y854220D01*
X345880Y856160D01*
X331440D01*
X319630Y854220D01*
X309130Y849350D01*
X303880Y843510D01*
X301260Y836690D01*
X303880Y828900D01*
X309130Y823060D01*
X317010Y819160D01*
X327510Y817220D01*
X336690Y819160D01*
X345880Y824030D01*
X351130Y829870D01*
X352440Y836690D01*
X349820Y844480D01*
X343260Y850320D01*
X331440Y856160D01*
G01X294380Y1050710D02*
X286510Y1056550D01*
X282570Y1063370D01*
X281260Y1071160D01*
X283880Y1080890D01*
X290450Y1087710D01*
X298320Y1089660D01*
X306200Y1088680D01*
X312760Y1084790D01*
X325880Y1065320D01*
X335070Y1056550D01*
X348190Y1050710D01*
X360000Y1048760D01*
Y1089660D01*
G01X281260Y1147950D02*
X283880Y1140160D01*
X290450Y1134320D01*
X298320Y1130420D01*
X308820Y1127500D01*
X320630Y1126530D01*
X332440Y1127500D01*
X342940Y1130420D01*
X350820Y1134320D01*
X357380Y1140160D01*
X360000Y1147950D01*
X357380Y1155740D01*
X350820Y1161580D01*
X342940Y1165480D01*
X332440Y1168400D01*
X320630Y1169370D01*
X308820Y1168400D01*
X298320Y1165480D01*
X290450Y1161580D01*
X283880Y1155740D01*
X281260Y1147950D01*
G01X360000Y1226690D02*
X281260D01*
X297010Y1215010D01*
G01X360000D02*
Y1238370D01*
G01Y1305430D02*
X358690Y1312250D01*
X354750Y1320030D01*
X348190Y1324900D01*
X339000Y1326850D01*
X329820Y1324900D01*
X321940Y1319060D01*
X318000Y1310300D01*
Y1300560D01*
X315380Y1294720D01*
X308820Y1289850D01*
X299630Y1287900D01*
X290450Y1290830D01*
X283880Y1297640D01*
X281260Y1305430D01*
X283880Y1313220D01*
X290450Y1320030D01*
X299630Y1322960D01*
X308820Y1321010D01*
X315380Y1316140D01*
X318000Y1310300D01*
Y1300560D01*
X321940Y1291800D01*
X329820Y1285960D01*
X339000Y1284010D01*
X348190Y1285960D01*
X354750Y1290830D01*
X358690Y1298610D01*
X360000Y1305430D01*
G01X281260Y1384170D02*
X283880Y1376380D01*
X290450Y1370540D01*
X298320Y1366640D01*
X308820Y1363720D01*
X320630Y1362750D01*
X332440Y1363720D01*
X342940Y1366640D01*
X350820Y1370540D01*
X357380Y1376380D01*
X360000Y1384170D01*
X357380Y1391960D01*
X350820Y1397800D01*
X342940Y1401700D01*
X332440Y1404620D01*
X320630Y1405590D01*
X308820Y1404620D01*
X298320Y1401700D01*
X290450Y1397800D01*
X283880Y1391960D01*
X281260Y1384170D01*
G01X344250Y1441490D02*
X353440Y1447330D01*
X358690Y1455120D01*
X360000Y1463880D01*
X358690Y1471670D01*
X352130Y1479460D01*
X344250Y1484330D01*
X336380Y1485300D01*
X327190Y1483360D01*
X320630Y1476540D01*
X318000Y1469730D01*
Y1460960D01*
G01Y1469730D02*
X314070Y1475570D01*
X307510Y1480440D01*
X299630Y1482380D01*
X291760Y1480440D01*
X285200Y1475570D01*
X281260Y1466800D01*
X282570Y1458040D01*
X287820Y1449280D01*
G01X281260Y1541650D02*
X283880Y1533860D01*
X290450Y1528020D01*
X298320Y1524120D01*
X308820Y1521200D01*
X320630Y1520230D01*
X332440Y1521200D01*
X342940Y1524120D01*
X350820Y1528020D01*
X357380Y1533860D01*
X360000Y1541650D01*
X357380Y1549440D01*
X350820Y1555280D01*
X342940Y1559180D01*
X332440Y1562100D01*
X320630Y1563070D01*
X308820Y1562100D01*
X298320Y1559180D01*
X290450Y1555280D01*
X283880Y1549440D01*
X281260Y1541650D01*
G01X344250Y1598970D02*
X353440Y1604810D01*
X358690Y1612600D01*
X360000Y1621360D01*
X358690Y1629150D01*
X352130Y1636940D01*
X344250Y1641810D01*
X336380Y1642780D01*
X327190Y1640840D01*
X320630Y1634020D01*
X318000Y1627210D01*
Y1618440D01*
G01Y1627210D02*
X314070Y1633050D01*
X307510Y1637920D01*
X299630Y1639860D01*
X291760Y1637920D01*
X285200Y1633050D01*
X281260Y1624280D01*
X282570Y1615520D01*
X287820Y1606760D01*
G01X390630Y1832180D02*
X384790Y1836120D01*
X377970Y1838740D01*
X370180D01*
X361420Y1834800D01*
X354610Y1828240D01*
X349740Y1820370D01*
X345840Y1807240D01*
X344870Y1795430D01*
X346820Y1783620D01*
X349740Y1775750D01*
X355580Y1767870D01*
X362390Y1762620D01*
X369210Y1760000D01*
X376030D01*
X382840Y1762620D01*
X388680Y1766560D01*
X393550Y1771810D01*
G01X447950Y1760000D02*
Y1838740D01*
X436270Y1822990D01*
G01Y1760000D02*
X459630D01*
G01X508190Y1792810D02*
X515010Y1802000D01*
X520850Y1807240D01*
X528640Y1809870D01*
X535450Y1807240D01*
X540320Y1802000D01*
X544220Y1794120D01*
X545190Y1784930D01*
X544220Y1777060D01*
X540320Y1769180D01*
X534480Y1762620D01*
X527660Y1760000D01*
X519870Y1762620D01*
X513060Y1770500D01*
X509160Y1782310D01*
X508190Y1795430D01*
X510140Y1812490D01*
X513060Y1821680D01*
X517930Y1830870D01*
X524740Y1837430D01*
X531560Y1838740D01*
X538370Y1836120D01*
X543240Y1829550D01*
G01X387790Y2660000D02*
Y2738740D01*
X407260D01*
X415050Y2734800D01*
X420890Y2729550D01*
X425760Y2721680D01*
X429660Y2712490D01*
X430630Y2699370D01*
X429660Y2686250D01*
X425760Y2677060D01*
X420890Y2669180D01*
X415050Y2663940D01*
X407260Y2660000D01*
X387790D01*
G01X469450Y2725620D02*
X475290Y2733490D01*
X482110Y2737430D01*
X489900Y2738740D01*
X499630Y2736120D01*
X506450Y2729550D01*
X508400Y2721680D01*
X507420Y2713800D01*
X503530Y2707240D01*
X484060Y2694120D01*
X475290Y2684930D01*
X469450Y2671810D01*
X467500Y2660000D01*
X508400D01*
G01X623890Y4640000D02*
Y4718740D01*
X649210Y4653120D01*
X674530Y4718740D01*
Y4640000D01*
G01X727950D02*
X720160Y4641310D01*
X713350Y4646560D01*
X707500Y4654430D01*
X703610Y4663620D01*
X701660Y4674120D01*
Y4684620D01*
X703610Y4695120D01*
X707500Y4704310D01*
X713350Y4712180D01*
X720160Y4717430D01*
X727950Y4718740D01*
X735740Y4717430D01*
X742550Y4712180D01*
X748400Y4704310D01*
X752290Y4695120D01*
X754240Y4684620D01*
Y4674120D01*
X752290Y4663620D01*
X748400Y4654430D01*
X742550Y4646560D01*
X735740Y4641310D01*
X727950Y4640000D01*
G01X786240Y4650500D02*
X794030Y4643940D01*
X802800Y4640000D01*
X810580D01*
X818370Y4643940D01*
X824220Y4650500D01*
X827140Y4659690D01*
X825190Y4668870D01*
X820320Y4676740D01*
X811560Y4682000D01*
X799870Y4684620D01*
X793060Y4689870D01*
X790140Y4699050D01*
X792090Y4708240D01*
X796950Y4714800D01*
X803770Y4718740D01*
X810580D01*
X817400Y4716120D01*
X823240Y4709550D01*
G01X866930Y4640000D02*
Y4718740D01*
X903930D01*
G01X890300Y4680680D02*
X866930D01*
G01X983640Y4640000D02*
X944700D01*
Y4718740D01*
X983640D01*
G01X968060Y4680680D02*
X944700D01*
G01X1042910Y4718740D02*
Y4640000D01*
G01X1020520Y4718740D02*
X1065300D01*
G01X1121650Y4640000D02*
Y4718740D01*
X1109970Y4702990D01*
G01Y4640000D02*
X1133330D01*
G01X669740Y4835750D02*
X674610Y4827870D01*
X680450Y4822620D01*
X687260Y4820000D01*
X695050Y4822620D01*
X700890Y4827870D01*
X706740Y4835750D01*
X708680Y4846250D01*
Y4898740D01*
G01X749450Y4885620D02*
X755290Y4893490D01*
X762110Y4897430D01*
X769900Y4898740D01*
X779630Y4896120D01*
X786450Y4889550D01*
X788400Y4881680D01*
X787420Y4873800D01*
X783530Y4867240D01*
X764060Y4854120D01*
X755290Y4844930D01*
X749450Y4831810D01*
X747500Y4820000D01*
X788400D01*
G01X899740Y810000D02*
Y888740D01*
X924080D01*
X931870Y884800D01*
X936740Y879550D01*
X938680Y869050D01*
X936740Y858560D01*
X930890Y852000D01*
X924080Y848060D01*
X899740D01*
G01X924080D02*
X938680Y810000D01*
G01X981400Y819180D02*
X988210Y812620D01*
X996000Y810000D01*
X1003790Y812620D01*
X1010610Y820500D01*
X1015480Y832310D01*
X1017420Y844120D01*
Y858560D01*
X1015480Y870370D01*
X1010610Y880870D01*
X1004770Y886120D01*
X997950Y888740D01*
X990160Y886120D01*
X984320Y880870D01*
X980420Y872990D01*
X978480Y862490D01*
X980420Y853310D01*
X985290Y844120D01*
X991130Y838870D01*
X997950Y837560D01*
X1005740Y840180D01*
X1011580Y846740D01*
X1017420Y858560D01*
G01X907790Y1338740D02*
Y1282310D01*
X911680Y1270500D01*
X919470Y1262620D01*
X929210Y1260000D01*
X938950Y1262620D01*
X946740Y1270500D01*
X950630Y1282310D01*
Y1338740D01*
G01X1007950Y1260000D02*
Y1338740D01*
X996270Y1322990D01*
G01Y1260000D02*
X1019630D01*
G01X1099740Y780000D02*
Y858740D01*
X1124080D01*
X1131870Y854800D01*
X1136740Y849550D01*
X1138680Y839050D01*
X1136740Y828560D01*
X1130890Y822000D01*
X1124080Y818060D01*
X1099740D01*
G01X1124080D02*
X1138680Y780000D01*
G01X1196000D02*
X1197950Y797060D01*
X1200870Y811490D01*
X1204770Y824620D01*
X1209630Y839050D01*
X1217420Y858740D01*
X1178480D01*
G01X1079740Y3368740D02*
Y3290000D01*
X1118680D01*
G01X1156530Y3305750D02*
X1162370Y3296560D01*
X1170160Y3291310D01*
X1178920Y3290000D01*
X1186710Y3291310D01*
X1194500Y3297870D01*
X1199370Y3305750D01*
X1200340Y3313620D01*
X1198400Y3322810D01*
X1191580Y3329370D01*
X1184770Y3332000D01*
X1176000D01*
G01X1184770D02*
X1190610Y3335930D01*
X1195480Y3342490D01*
X1197420Y3350370D01*
X1195480Y3358240D01*
X1190610Y3364800D01*
X1181840Y3368740D01*
X1173080Y3367430D01*
X1164320Y3362180D01*
G01X1170630Y4152180D02*
X1164790Y4156120D01*
X1157970Y4158740D01*
X1150180D01*
X1141420Y4154800D01*
X1134610Y4148240D01*
X1129740Y4140370D01*
X1125840Y4127240D01*
X1124870Y4115430D01*
X1126820Y4103620D01*
X1129740Y4095750D01*
X1135580Y4087870D01*
X1142390Y4082620D01*
X1149210Y4080000D01*
X1156030D01*
X1162840Y4082620D01*
X1168680Y4086560D01*
X1173550Y4091810D01*
G01X1227950Y4080000D02*
Y4158740D01*
X1216270Y4142990D01*
G01Y4080000D02*
X1239630D01*
G01X1306690Y4158740D02*
X1298900Y4156120D01*
X1293060Y4149550D01*
X1289160Y4141680D01*
X1286240Y4131180D01*
X1285270Y4119370D01*
X1286240Y4107560D01*
X1289160Y4097060D01*
X1293060Y4089180D01*
X1298900Y4082620D01*
X1306690Y4080000D01*
X1314480Y4082620D01*
X1320320Y4089180D01*
X1324220Y4097060D01*
X1327140Y4107560D01*
X1328110Y4119370D01*
X1327140Y4131180D01*
X1324220Y4141680D01*
X1320320Y4149550D01*
X1314480Y4156120D01*
X1306690Y4158740D01*
G01X1279740Y780000D02*
Y858740D01*
X1304080D01*
X1311870Y854800D01*
X1316740Y849550D01*
X1318680Y839050D01*
X1316740Y828560D01*
X1310890Y822000D01*
X1304080Y818060D01*
X1279740D01*
G01X1304080D02*
X1318680Y780000D01*
G01X1359450Y845620D02*
X1365290Y853490D01*
X1372110Y857430D01*
X1379900Y858740D01*
X1389630Y856120D01*
X1396450Y849550D01*
X1398400Y841680D01*
X1397420Y833800D01*
X1393530Y827240D01*
X1374060Y814120D01*
X1365290Y804930D01*
X1359450Y791810D01*
X1357500Y780000D01*
X1398400D01*
G01X1435270Y795750D02*
X1441110Y786560D01*
X1448900Y781310D01*
X1457660Y780000D01*
X1465450Y781310D01*
X1473240Y787870D01*
X1478110Y795750D01*
X1479080Y803620D01*
X1477140Y812810D01*
X1470320Y819370D01*
X1463510Y822000D01*
X1454740D01*
G01X1463510D02*
X1469350Y825930D01*
X1474220Y832490D01*
X1476160Y840370D01*
X1474220Y848240D01*
X1469350Y854800D01*
X1460580Y858740D01*
X1451820Y857430D01*
X1443060Y852180D01*
G01X1507820Y1980630D02*
X1503880Y1974790D01*
X1501260Y1967970D01*
Y1960180D01*
X1505200Y1951420D01*
X1511760Y1944610D01*
X1519630Y1939740D01*
X1532760Y1935840D01*
X1544570Y1934870D01*
X1556380Y1936820D01*
X1564250Y1939740D01*
X1572130Y1945580D01*
X1577380Y1952390D01*
X1580000Y1959210D01*
Y1966030D01*
X1577380Y1972840D01*
X1573440Y1978680D01*
X1568190Y1983550D01*
G01X1570820Y2021400D02*
X1577380Y2028210D01*
X1580000Y2036000D01*
X1577380Y2043790D01*
X1569500Y2050610D01*
X1557690Y2055480D01*
X1545880Y2057420D01*
X1531440D01*
X1519630Y2055480D01*
X1509130Y2050610D01*
X1503880Y2044770D01*
X1501260Y2037950D01*
X1503880Y2030160D01*
X1509130Y2024320D01*
X1517010Y2020420D01*
X1527510Y2018480D01*
X1536690Y2020420D01*
X1545880Y2025290D01*
X1551130Y2031130D01*
X1552440Y2037950D01*
X1549820Y2045740D01*
X1543260Y2051580D01*
X1531440Y2057420D01*
G01X1637820Y1940630D02*
X1633880Y1934790D01*
X1631260Y1927970D01*
Y1920180D01*
X1635200Y1911420D01*
X1641760Y1904610D01*
X1649630Y1899740D01*
X1662760Y1895840D01*
X1674570Y1894870D01*
X1686380Y1896820D01*
X1694250Y1899740D01*
X1702130Y1905580D01*
X1707380Y1912390D01*
X1710000Y1919210D01*
Y1926030D01*
X1707380Y1932840D01*
X1703440Y1938680D01*
X1698190Y1943550D01*
G01X1710000Y1997950D02*
X1631260D01*
X1647010Y1986270D01*
G01X1710000D02*
Y2009630D01*
G01X1698190Y2055270D02*
X1704750Y2061110D01*
X1708690Y2067930D01*
X1710000Y2076690D01*
X1707380Y2085450D01*
X1702130Y2092270D01*
X1692940Y2097140D01*
X1682440Y2098110D01*
X1671940Y2096160D01*
X1665380Y2091290D01*
X1660130Y2084480D01*
X1658820Y2077660D01*
X1660130Y2070850D01*
X1665380Y2062090D01*
X1631260Y2065010D01*
Y2091290D01*
G01X1650630Y2772180D02*
X1644790Y2776120D01*
X1637970Y2778740D01*
X1630180D01*
X1621420Y2774800D01*
X1614610Y2768240D01*
X1609740Y2760370D01*
X1605840Y2747240D01*
X1604870Y2735430D01*
X1606820Y2723620D01*
X1609740Y2715750D01*
X1615580Y2707870D01*
X1622390Y2702620D01*
X1629210Y2700000D01*
X1636030D01*
X1642840Y2702620D01*
X1648680Y2706560D01*
X1653550Y2711810D01*
G01X1686530Y2715750D02*
X1692370Y2706560D01*
X1700160Y2701310D01*
X1708920Y2700000D01*
X1716710Y2701310D01*
X1724500Y2707870D01*
X1729370Y2715750D01*
X1730340Y2723620D01*
X1728400Y2732810D01*
X1721580Y2739370D01*
X1714770Y2742000D01*
X1706000D01*
G01X1714770D02*
X1720610Y2745930D01*
X1725480Y2752490D01*
X1727420Y2760370D01*
X1725480Y2768240D01*
X1720610Y2774800D01*
X1711840Y2778740D01*
X1703080Y2777430D01*
X1694320Y2772180D01*
G01X1765270Y2715750D02*
X1771110Y2706560D01*
X1778900Y2701310D01*
X1787660Y2700000D01*
X1795450Y2701310D01*
X1803240Y2707870D01*
X1808110Y2715750D01*
X1809080Y2723620D01*
X1807140Y2732810D01*
X1800320Y2739370D01*
X1793510Y2742000D01*
X1784740D01*
G01X1793510D02*
X1799350Y2745930D01*
X1804220Y2752490D01*
X1806160Y2760370D01*
X1804220Y2768240D01*
X1799350Y2774800D01*
X1790580Y2778740D01*
X1781820Y2777430D01*
X1773060Y2772180D01*
G01X1777820Y1940630D02*
X1773880Y1934790D01*
X1771260Y1927970D01*
Y1920180D01*
X1775200Y1911420D01*
X1781760Y1904610D01*
X1789630Y1899740D01*
X1802760Y1895840D01*
X1814570Y1894870D01*
X1826380Y1896820D01*
X1834250Y1899740D01*
X1842130Y1905580D01*
X1847380Y1912390D01*
X1850000Y1919210D01*
Y1926030D01*
X1847380Y1932840D01*
X1843440Y1938680D01*
X1838190Y1943550D01*
G01X1850000Y1997950D02*
X1771260D01*
X1787010Y1986270D01*
G01X1850000D02*
Y2009630D01*
G01Y2074740D02*
X1832940Y2076690D01*
X1818510Y2079610D01*
X1805380Y2083510D01*
X1790950Y2088370D01*
X1771260Y2096160D01*
Y2057220D01*
G01X1910630Y852180D02*
X1904790Y856120D01*
X1897970Y858740D01*
X1890180D01*
X1881420Y854800D01*
X1874610Y848240D01*
X1869740Y840370D01*
X1865840Y827240D01*
X1864870Y815430D01*
X1866820Y803620D01*
X1869740Y795750D01*
X1875580Y787870D01*
X1882390Y782620D01*
X1889210Y780000D01*
X1896030D01*
X1902840Y782620D01*
X1908680Y786560D01*
X1913550Y791810D01*
G01X1949450Y845620D02*
X1955290Y853490D01*
X1962110Y857430D01*
X1969900Y858740D01*
X1979630Y856120D01*
X1986450Y849550D01*
X1988400Y841680D01*
X1987420Y833800D01*
X1983530Y827240D01*
X1964060Y814120D01*
X1955290Y804930D01*
X1949450Y791810D01*
X1947500Y780000D01*
X1988400D01*
G01X2028190Y812810D02*
X2035010Y822000D01*
X2040850Y827240D01*
X2048640Y829870D01*
X2055450Y827240D01*
X2060320Y822000D01*
X2064220Y814120D01*
X2065190Y804930D01*
X2064220Y797060D01*
X2060320Y789180D01*
X2054480Y782620D01*
X2047660Y780000D01*
X2039870Y782620D01*
X2033060Y790500D01*
X2029160Y802310D01*
X2028190Y815430D01*
X2030140Y832490D01*
X2033060Y841680D01*
X2037930Y850870D01*
X2044740Y857430D01*
X2051560Y858740D01*
X2058370Y856120D01*
X2063240Y849550D01*
G01X1960630Y732180D02*
X1954790Y736120D01*
X1947970Y738740D01*
X1940180D01*
X1931420Y734800D01*
X1924610Y728240D01*
X1919740Y720370D01*
X1915840Y707240D01*
X1914870Y695430D01*
X1916820Y683620D01*
X1919740Y675750D01*
X1925580Y667870D01*
X1932390Y662620D01*
X1939210Y660000D01*
X1946030D01*
X1952840Y662620D01*
X1958680Y666560D01*
X1963550Y671810D01*
G01X1999450Y725620D02*
X2005290Y733490D01*
X2012110Y737430D01*
X2019900Y738740D01*
X2029630Y736120D01*
X2036450Y729550D01*
X2038400Y721680D01*
X2037420Y713800D01*
X2033530Y707240D01*
X2014060Y694120D01*
X2005290Y684930D01*
X1999450Y671810D01*
X1997500Y660000D01*
X2038400D01*
G01X2094740D02*
X2096690Y677060D01*
X2099610Y691490D01*
X2103510Y704620D01*
X2108370Y719050D01*
X2116160Y738740D01*
X2077220D01*
G01X1940630Y2212180D02*
X1934790Y2216120D01*
X1927970Y2218740D01*
X1920180D01*
X1911420Y2214800D01*
X1904610Y2208240D01*
X1899740Y2200370D01*
X1895840Y2187240D01*
X1894870Y2175430D01*
X1896820Y2163620D01*
X1899740Y2155750D01*
X1905580Y2147870D01*
X1912390Y2142620D01*
X1919210Y2140000D01*
X1926030D01*
X1932840Y2142620D01*
X1938680Y2146560D01*
X1943550Y2151810D01*
G01X1997950Y2140000D02*
X2004770Y2141310D01*
X2012550Y2145250D01*
X2017420Y2151810D01*
X2019370Y2161000D01*
X2017420Y2170180D01*
X2011580Y2178060D01*
X2002820Y2182000D01*
X1993080D01*
X1987240Y2184620D01*
X1982370Y2191180D01*
X1980420Y2200370D01*
X1983350Y2209550D01*
X1990160Y2216120D01*
X1997950Y2218740D01*
X2005740Y2216120D01*
X2012550Y2209550D01*
X2015480Y2200370D01*
X2013530Y2191180D01*
X2008660Y2184620D01*
X2002820Y2182000D01*
X1993080D01*
X1984320Y2178060D01*
X1978480Y2170180D01*
X1976530Y2161000D01*
X1978480Y2151810D01*
X1983350Y2145250D01*
X1991130Y2141310D01*
X1997950Y2140000D01*
G01X1950630Y2762180D02*
X1944790Y2766120D01*
X1937970Y2768740D01*
X1930180D01*
X1921420Y2764800D01*
X1914610Y2758240D01*
X1909740Y2750370D01*
X1905840Y2737240D01*
X1904870Y2725430D01*
X1906820Y2713620D01*
X1909740Y2705750D01*
X1915580Y2697870D01*
X1922390Y2692620D01*
X1929210Y2690000D01*
X1936030D01*
X1942840Y2692620D01*
X1948680Y2696560D01*
X1953550Y2701810D01*
G01X2007950Y2690000D02*
Y2768740D01*
X1996270Y2752990D01*
G01Y2690000D02*
X2019630D01*
G01X2065270Y2705750D02*
X2071110Y2696560D01*
X2078900Y2691310D01*
X2087660Y2690000D01*
X2095450Y2691310D01*
X2103240Y2697870D01*
X2108110Y2705750D01*
X2109080Y2713620D01*
X2107140Y2722810D01*
X2100320Y2729370D01*
X2093510Y2732000D01*
X2084740D01*
G01X2093510D02*
X2099350Y2735930D01*
X2104220Y2742490D01*
X2106160Y2750370D01*
X2104220Y2758240D01*
X2099350Y2764800D01*
X2090580Y2768740D01*
X2081820Y2767430D01*
X2073060Y2762180D01*
G01X1923890Y4650000D02*
Y4728740D01*
X1949210Y4663120D01*
X1974530Y4728740D01*
Y4650000D01*
G01X2027950D02*
X2020160Y4651310D01*
X2013350Y4656560D01*
X2007500Y4664430D01*
X2003610Y4673620D01*
X2001660Y4684120D01*
Y4694620D01*
X2003610Y4705120D01*
X2007500Y4714310D01*
X2013350Y4722180D01*
X2020160Y4727430D01*
X2027950Y4728740D01*
X2035740Y4727430D01*
X2042550Y4722180D01*
X2048400Y4714310D01*
X2052290Y4705120D01*
X2054240Y4694620D01*
Y4684120D01*
X2052290Y4673620D01*
X2048400Y4664430D01*
X2042550Y4656560D01*
X2035740Y4651310D01*
X2027950Y4650000D01*
G01X2086240Y4660500D02*
X2094030Y4653940D01*
X2102800Y4650000D01*
X2110580D01*
X2118370Y4653940D01*
X2124220Y4660500D01*
X2127140Y4669690D01*
X2125190Y4678870D01*
X2120320Y4686740D01*
X2111560Y4692000D01*
X2099870Y4694620D01*
X2093060Y4699870D01*
X2090140Y4709050D01*
X2092090Y4718240D01*
X2096950Y4724800D01*
X2103770Y4728740D01*
X2110580D01*
X2117400Y4726120D01*
X2123240Y4719550D01*
G01X2166930Y4650000D02*
Y4728740D01*
X2203930D01*
G01X2190300Y4690680D02*
X2166930D01*
G01X2283640Y4650000D02*
X2244700D01*
Y4728740D01*
X2283640D01*
G01X2268060Y4690680D02*
X2244700D01*
G01X2342910Y4728740D02*
Y4650000D01*
G01X2320520Y4728740D02*
X2365300D01*
G01X2403150Y4715620D02*
X2408990Y4723490D01*
X2415810Y4727430D01*
X2423600Y4728740D01*
X2433330Y4726120D01*
X2440150Y4719550D01*
X2442100Y4711680D01*
X2441120Y4703800D01*
X2437230Y4697240D01*
X2417760Y4684120D01*
X2408990Y4674930D01*
X2403150Y4661810D01*
X2401200Y4650000D01*
X2442100D01*
G01X1929740Y4825750D02*
X1934610Y4817870D01*
X1940450Y4812620D01*
X1947260Y4810000D01*
X1955050Y4812620D01*
X1960890Y4817870D01*
X1966740Y4825750D01*
X1968680Y4836250D01*
Y4888740D01*
G01X2006530Y4825750D02*
X2012370Y4816560D01*
X2020160Y4811310D01*
X2028920Y4810000D01*
X2036710Y4811310D01*
X2044500Y4817870D01*
X2049370Y4825750D01*
X2050340Y4833620D01*
X2048400Y4842810D01*
X2041580Y4849370D01*
X2034770Y4852000D01*
X2026000D01*
G01X2034770D02*
X2040610Y4855930D01*
X2045480Y4862490D01*
X2047420Y4870370D01*
X2045480Y4878240D01*
X2040610Y4884800D01*
X2031840Y4888740D01*
X2023080Y4887430D01*
X2014320Y4882180D01*
G01X2219500Y68760D02*
X2226060Y76550D01*
X2230000Y85320D01*
Y93100D01*
X2226060Y100890D01*
X2219500Y106740D01*
X2210310Y109660D01*
X2201130Y107710D01*
X2193260Y102840D01*
X2188000Y94080D01*
X2185380Y82390D01*
X2180130Y75580D01*
X2170950Y72660D01*
X2161760Y74610D01*
X2155200Y79470D01*
X2151260Y86290D01*
Y93100D01*
X2153880Y99920D01*
X2160450Y105760D01*
G01X2157820Y189370D02*
X2153880Y183530D01*
X2151260Y176710D01*
Y168920D01*
X2155200Y160160D01*
X2161760Y153350D01*
X2169630Y148480D01*
X2182760Y144580D01*
X2194570Y143610D01*
X2206380Y145560D01*
X2214250Y148480D01*
X2222130Y154320D01*
X2227380Y161130D01*
X2230000Y167950D01*
Y174770D01*
X2227380Y181580D01*
X2223440Y187420D01*
X2218190Y192290D01*
G01X2230000Y225270D02*
X2151260D01*
G01Y262270D02*
X2199820Y225270D01*
G01X2230000Y268110D02*
X2177510Y241820D01*
G01X2230630Y2762180D02*
X2224790Y2766120D01*
X2217970Y2768740D01*
X2210180D01*
X2201420Y2764800D01*
X2194610Y2758240D01*
X2189740Y2750370D01*
X2185840Y2737240D01*
X2184870Y2725430D01*
X2186820Y2713620D01*
X2189740Y2705750D01*
X2195580Y2697870D01*
X2202390Y2692620D01*
X2209210Y2690000D01*
X2216030D01*
X2222840Y2692620D01*
X2228680Y2696560D01*
X2233550Y2701810D01*
G01X2287950Y2690000D02*
Y2768740D01*
X2276270Y2752990D01*
G01Y2690000D02*
X2299630D01*
G01X2366690D02*
X2373510Y2691310D01*
X2381290Y2695250D01*
X2386160Y2701810D01*
X2388110Y2711000D01*
X2386160Y2720180D01*
X2380320Y2728060D01*
X2371560Y2732000D01*
X2361820D01*
X2355980Y2734620D01*
X2351110Y2741180D01*
X2349160Y2750370D01*
X2352090Y2759550D01*
X2358900Y2766120D01*
X2366690Y2768740D01*
X2374480Y2766120D01*
X2381290Y2759550D01*
X2384220Y2750370D01*
X2382270Y2741180D01*
X2377400Y2734620D01*
X2371560Y2732000D01*
X2361820D01*
X2353060Y2728060D01*
X2347220Y2720180D01*
X2345270Y2711000D01*
X2347220Y2701810D01*
X2352090Y2695250D01*
X2359870Y2691310D01*
X2366690Y2690000D01*
G01X2379500Y68760D02*
X2386060Y76550D01*
X2390000Y85320D01*
Y93100D01*
X2386060Y100890D01*
X2379500Y106740D01*
X2370310Y109660D01*
X2361130Y107710D01*
X2353260Y102840D01*
X2348000Y94080D01*
X2345380Y82390D01*
X2340130Y75580D01*
X2330950Y72660D01*
X2321760Y74610D01*
X2315200Y79470D01*
X2311260Y86290D01*
Y93100D01*
X2313880Y99920D01*
X2320450Y105760D01*
G01X2390000Y146530D02*
X2311260D01*
Y166000D01*
X2315200Y173790D01*
X2320450Y179630D01*
X2328320Y184500D01*
X2337510Y188400D01*
X2350630Y189370D01*
X2363750Y188400D01*
X2372940Y184500D01*
X2380820Y179630D01*
X2386060Y173790D01*
X2390000Y166000D01*
Y146530D01*
G01Y222350D02*
X2311260Y246690D01*
X2390000Y271030D01*
G01X2362440Y262270D02*
Y231110D01*
G01X2350630Y3052180D02*
X2344790Y3056120D01*
X2337970Y3058740D01*
X2330180D01*
X2321420Y3054800D01*
X2314610Y3048240D01*
X2309740Y3040370D01*
X2305840Y3027240D01*
X2304870Y3015430D01*
X2306820Y3003620D01*
X2309740Y2995750D01*
X2315580Y2987870D01*
X2322390Y2982620D01*
X2329210Y2980000D01*
X2336030D01*
X2342840Y2982620D01*
X2348680Y2986560D01*
X2353550Y2991810D01*
G01X2386530Y2995750D02*
X2392370Y2986560D01*
X2400160Y2981310D01*
X2408920Y2980000D01*
X2416710Y2981310D01*
X2424500Y2987870D01*
X2429370Y2995750D01*
X2430340Y3003620D01*
X2428400Y3012810D01*
X2421580Y3019370D01*
X2414770Y3022000D01*
X2406000D01*
G01X2414770D02*
X2420610Y3025930D01*
X2425480Y3032490D01*
X2427420Y3040370D01*
X2425480Y3048240D01*
X2420610Y3054800D01*
X2411840Y3058740D01*
X2403080Y3057430D01*
X2394320Y3052180D01*
G01X2498370Y2980000D02*
Y3058740D01*
X2462350Y3002310D01*
X2511030D01*
G01X2390630Y4152180D02*
X2384790Y4156120D01*
X2377970Y4158740D01*
X2370180D01*
X2361420Y4154800D01*
X2354610Y4148240D01*
X2349740Y4140370D01*
X2345840Y4127240D01*
X2344870Y4115430D01*
X2346820Y4103620D01*
X2349740Y4095750D01*
X2355580Y4087870D01*
X2362390Y4082620D01*
X2369210Y4080000D01*
X2376030D01*
X2382840Y4082620D01*
X2388680Y4086560D01*
X2393550Y4091810D01*
G01X2447950Y4080000D02*
Y4158740D01*
X2436270Y4142990D01*
G01Y4080000D02*
X2459630D01*
G01X2526690D02*
Y4158740D01*
X2515010Y4142990D01*
G01Y4080000D02*
X2538370D01*
G01X2520630Y2762180D02*
X2514790Y2766120D01*
X2507970Y2768740D01*
X2500180D01*
X2491420Y2764800D01*
X2484610Y2758240D01*
X2479740Y2750370D01*
X2475840Y2737240D01*
X2474870Y2725430D01*
X2476820Y2713620D01*
X2479740Y2705750D01*
X2485580Y2697870D01*
X2492390Y2692620D01*
X2499210Y2690000D01*
X2506030D01*
X2512840Y2692620D01*
X2518680Y2696560D01*
X2523550Y2701810D01*
G01X2559450Y2755620D02*
X2565290Y2763490D01*
X2572110Y2767430D01*
X2579900Y2768740D01*
X2589630Y2766120D01*
X2596450Y2759550D01*
X2598400Y2751680D01*
X2597420Y2743800D01*
X2593530Y2737240D01*
X2574060Y2724120D01*
X2565290Y2714930D01*
X2559450Y2701810D01*
X2557500Y2690000D01*
X2598400D01*
G01X2656690Y2768740D02*
X2648900Y2766120D01*
X2643060Y2759550D01*
X2639160Y2751680D01*
X2636240Y2741180D01*
X2635270Y2729370D01*
X2636240Y2717560D01*
X2639160Y2707060D01*
X2643060Y2699180D01*
X2648900Y2692620D01*
X2656690Y2690000D01*
X2664480Y2692620D01*
X2670320Y2699180D01*
X2674220Y2707060D01*
X2677140Y2717560D01*
X2678110Y2729370D01*
X2677140Y2741180D01*
X2674220Y2751680D01*
X2670320Y2759550D01*
X2664480Y2766120D01*
X2656690Y2768740D01*
G01X2792180Y589370D02*
X2796120Y595210D01*
X2798740Y602030D01*
Y609820D01*
X2794800Y618580D01*
X2788240Y625390D01*
X2780370Y630260D01*
X2767240Y634160D01*
X2755430Y635130D01*
X2743620Y633180D01*
X2735750Y630260D01*
X2727870Y624420D01*
X2722620Y617610D01*
X2720000Y610790D01*
Y603970D01*
X2722620Y597160D01*
X2726560Y591320D01*
X2731810Y586450D01*
G01X2735750Y553470D02*
X2726560Y547630D01*
X2721310Y539840D01*
X2720000Y531080D01*
X2721310Y523290D01*
X2727870Y515500D01*
X2735750Y510630D01*
X2743620Y509660D01*
X2752810Y511600D01*
X2759370Y518420D01*
X2762000Y525230D01*
Y534000D01*
G01Y525230D02*
X2765930Y519390D01*
X2772490Y514520D01*
X2780370Y512580D01*
X2788240Y514520D01*
X2794800Y519390D01*
X2798740Y528160D01*
X2797430Y536920D01*
X2792180Y545680D01*
G01X2798740Y453310D02*
X2796120Y461100D01*
X2789550Y466940D01*
X2781680Y470840D01*
X2771180Y473760D01*
X2759370Y474730D01*
X2747560Y473760D01*
X2737060Y470840D01*
X2729180Y466940D01*
X2722620Y461100D01*
X2720000Y453310D01*
X2722620Y445520D01*
X2729180Y439680D01*
X2737060Y435780D01*
X2747560Y432860D01*
X2759370Y431890D01*
X2771180Y432860D01*
X2781680Y435780D01*
X2789550Y439680D01*
X2796120Y445520D01*
X2798740Y453310D01*
G01X2789210Y358740D02*
Y280000D01*
G01X2766820Y358740D02*
X2811600D01*
G01X2848480Y280000D02*
Y358740D01*
X2871840D01*
X2879630Y354800D01*
X2885480Y345620D01*
X2887420Y335120D01*
X2885480Y324620D01*
X2880610Y316740D01*
X2871840Y312810D01*
X2848480D01*
G01X2928190Y345620D02*
X2934030Y353490D01*
X2940850Y357430D01*
X2948640Y358740D01*
X2958370Y356120D01*
X2965190Y349550D01*
X2967140Y341680D01*
X2966160Y333800D01*
X2962270Y327240D01*
X2942800Y314120D01*
X2934030Y304930D01*
X2928190Y291810D01*
X2926240Y280000D01*
X2967140D01*
G01X2810630Y2822180D02*
X2804790Y2826120D01*
X2797970Y2828740D01*
X2790180D01*
X2781420Y2824800D01*
X2774610Y2818240D01*
X2769740Y2810370D01*
X2765840Y2797240D01*
X2764870Y2785430D01*
X2766820Y2773620D01*
X2769740Y2765750D01*
X2775580Y2757870D01*
X2782390Y2752620D01*
X2789210Y2750000D01*
X2796030D01*
X2802840Y2752620D01*
X2808680Y2756560D01*
X2813550Y2761810D01*
G01X2849450Y2815620D02*
X2855290Y2823490D01*
X2862110Y2827430D01*
X2869900Y2828740D01*
X2879630Y2826120D01*
X2886450Y2819550D01*
X2888400Y2811680D01*
X2887420Y2803800D01*
X2883530Y2797240D01*
X2864060Y2784120D01*
X2855290Y2774930D01*
X2849450Y2761810D01*
X2847500Y2750000D01*
X2888400D01*
G01X2946690D02*
Y2828740D01*
X2935010Y2812990D01*
G01Y2750000D02*
X2958370D01*
G01X2932180Y589370D02*
X2936120Y595210D01*
X2938740Y602030D01*
Y609820D01*
X2934800Y618580D01*
X2928240Y625390D01*
X2920370Y630260D01*
X2907240Y634160D01*
X2895430Y635130D01*
X2883620Y633180D01*
X2875750Y630260D01*
X2867870Y624420D01*
X2862620Y617610D01*
X2860000Y610790D01*
Y603970D01*
X2862620Y597160D01*
X2866560Y591320D01*
X2871810Y586450D01*
G01X2875750Y553470D02*
X2866560Y547630D01*
X2861310Y539840D01*
X2860000Y531080D01*
X2861310Y523290D01*
X2867870Y515500D01*
X2875750Y510630D01*
X2883620Y509660D01*
X2892810Y511600D01*
X2899370Y518420D01*
X2902000Y525230D01*
Y534000D01*
G01Y525230D02*
X2905930Y519390D01*
X2912490Y514520D01*
X2920370Y512580D01*
X2928240Y514520D01*
X2934800Y519390D01*
X2938740Y528160D01*
X2937430Y536920D01*
X2932180Y545680D01*
G01X2860000Y453310D02*
X2938740D01*
X2922990Y464990D01*
G01X2860000D02*
Y441630D01*
G01X2950630Y1932180D02*
X2944790Y1936120D01*
X2937970Y1938740D01*
X2930180D01*
X2921420Y1934800D01*
X2914610Y1928240D01*
X2909740Y1920370D01*
X2905840Y1907240D01*
X2904870Y1895430D01*
X2906820Y1883620D01*
X2909740Y1875750D01*
X2915580Y1867870D01*
X2922390Y1862620D01*
X2929210Y1860000D01*
X2936030D01*
X2942840Y1862620D01*
X2948680Y1866560D01*
X2953550Y1871810D01*
G01X2989450Y1925620D02*
X2995290Y1933490D01*
X3002110Y1937430D01*
X3009900Y1938740D01*
X3019630Y1936120D01*
X3026450Y1929550D01*
X3028400Y1921680D01*
X3027420Y1913800D01*
X3023530Y1907240D01*
X3004060Y1894120D01*
X2995290Y1884930D01*
X2989450Y1871810D01*
X2987500Y1860000D01*
X3028400D01*
G01X3070140Y1869180D02*
X3076950Y1862620D01*
X3084740Y1860000D01*
X3092530Y1862620D01*
X3099350Y1870500D01*
X3104220Y1882310D01*
X3106160Y1894120D01*
Y1908560D01*
X3104220Y1920370D01*
X3099350Y1930870D01*
X3093510Y1936120D01*
X3086690Y1938740D01*
X3078900Y1936120D01*
X3073060Y1930870D01*
X3069160Y1922990D01*
X3067220Y1912490D01*
X3069160Y1903310D01*
X3074030Y1894120D01*
X3079870Y1888870D01*
X3086690Y1887560D01*
X3094480Y1890180D01*
X3100320Y1896740D01*
X3106160Y1908560D01*
G01X3040000Y689740D02*
X2961260D01*
Y714080D01*
X2965200Y721870D01*
X2970450Y726740D01*
X2980950Y728680D01*
X2991440Y726740D01*
X2998000Y720890D01*
X3001940Y714080D01*
Y689740D01*
G01Y714080D02*
X3040000Y728680D01*
G01X2974380Y769450D02*
X2966510Y775290D01*
X2962570Y782110D01*
X2961260Y789900D01*
X2963880Y799630D01*
X2970450Y806450D01*
X2978320Y808400D01*
X2986200Y807420D01*
X2992760Y803530D01*
X3005880Y784060D01*
X3015070Y775290D01*
X3028190Y769450D01*
X3040000Y767500D01*
Y808400D01*
G01Y864740D02*
X3022940Y866690D01*
X3008510Y869610D01*
X2995380Y873510D01*
X2980950Y878370D01*
X2961260Y886160D01*
Y847220D01*
G01X3027820Y470630D02*
X3023880Y464790D01*
X3021260Y457970D01*
Y450180D01*
X3025200Y441420D01*
X3031760Y434610D01*
X3039630Y429740D01*
X3052760Y425840D01*
X3064570Y424870D01*
X3076380Y426820D01*
X3084250Y429740D01*
X3092130Y435580D01*
X3097380Y442390D01*
X3100000Y449210D01*
Y456030D01*
X3097380Y462840D01*
X3093440Y468680D01*
X3088190Y473550D01*
G01X3084250Y506530D02*
X3093440Y512370D01*
X3098690Y520160D01*
X3100000Y528920D01*
X3098690Y536710D01*
X3092130Y544500D01*
X3084250Y549370D01*
X3076380Y550340D01*
X3067190Y548400D01*
X3060630Y541580D01*
X3058000Y534770D01*
Y526000D01*
G01Y534770D02*
X3054070Y540610D01*
X3047510Y545480D01*
X3039630Y547420D01*
X3031760Y545480D01*
X3025200Y540610D01*
X3021260Y531840D01*
X3022570Y523080D01*
X3027820Y514320D01*
G01X3088190Y585270D02*
X3094750Y591110D01*
X3098690Y597930D01*
X3100000Y606690D01*
X3097380Y615450D01*
X3092130Y622270D01*
X3082940Y627140D01*
X3072440Y628110D01*
X3061940Y626160D01*
X3055380Y621290D01*
X3050130Y614480D01*
X3048820Y607660D01*
X3050130Y600850D01*
X3055380Y592090D01*
X3021260Y595010D01*
Y621290D01*
G01X3120000Y1009740D02*
X3041260D01*
Y1034080D01*
X3045200Y1041870D01*
X3050450Y1046740D01*
X3060950Y1048680D01*
X3071440Y1046740D01*
X3078000Y1040890D01*
X3081940Y1034080D01*
Y1009740D01*
G01Y1034080D02*
X3120000Y1048680D01*
G01X3054380Y1089450D02*
X3046510Y1095290D01*
X3042570Y1102110D01*
X3041260Y1109900D01*
X3043880Y1119630D01*
X3050450Y1126450D01*
X3058320Y1128400D01*
X3066200Y1127420D01*
X3072760Y1123530D01*
X3085880Y1104060D01*
X3095070Y1095290D01*
X3108190Y1089450D01*
X3120000Y1087500D01*
Y1128400D01*
G01Y1186690D02*
X3118690Y1193510D01*
X3114750Y1201290D01*
X3108190Y1206160D01*
X3099000Y1208110D01*
X3089820Y1206160D01*
X3081940Y1200320D01*
X3078000Y1191560D01*
Y1181820D01*
X3075380Y1175980D01*
X3068820Y1171110D01*
X3059630Y1169160D01*
X3050450Y1172090D01*
X3043880Y1178900D01*
X3041260Y1186690D01*
X3043880Y1194480D01*
X3050450Y1201290D01*
X3059630Y1204220D01*
X3068820Y1202270D01*
X3075380Y1197400D01*
X3078000Y1191560D01*
Y1181820D01*
X3081940Y1173060D01*
X3089820Y1167220D01*
X3099000Y1165270D01*
X3108190Y1167220D01*
X3114750Y1172090D01*
X3118690Y1179870D01*
X3120000Y1186690D01*
G01X3070630Y2742180D02*
X3064790Y2746120D01*
X3057970Y2748740D01*
X3050180D01*
X3041420Y2744800D01*
X3034610Y2738240D01*
X3029740Y2730370D01*
X3025840Y2717240D01*
X3024870Y2705430D01*
X3026820Y2693620D01*
X3029740Y2685750D01*
X3035580Y2677870D01*
X3042390Y2672620D01*
X3049210Y2670000D01*
X3056030D01*
X3062840Y2672620D01*
X3068680Y2676560D01*
X3073550Y2681810D01*
G01X3109450Y2735620D02*
X3115290Y2743490D01*
X3122110Y2747430D01*
X3129900Y2748740D01*
X3139630Y2746120D01*
X3146450Y2739550D01*
X3148400Y2731680D01*
X3147420Y2723800D01*
X3143530Y2717240D01*
X3124060Y2704120D01*
X3115290Y2694930D01*
X3109450Y2681810D01*
X3107500Y2670000D01*
X3148400D01*
G01X3185270Y2681810D02*
X3191110Y2675250D01*
X3197930Y2671310D01*
X3206690Y2670000D01*
X3215450Y2672620D01*
X3222270Y2677870D01*
X3227140Y2687060D01*
X3228110Y2697560D01*
X3226160Y2708060D01*
X3221290Y2714620D01*
X3214480Y2719870D01*
X3207660Y2721180D01*
X3200850Y2719870D01*
X3192090Y2714620D01*
X3195010Y2748740D01*
X3221290D01*
G01X3133890Y4650000D02*
Y4728740D01*
X3159210Y4663120D01*
X3184530Y4728740D01*
Y4650000D01*
G01X3237950D02*
X3230160Y4651310D01*
X3223350Y4656560D01*
X3217500Y4664430D01*
X3213610Y4673620D01*
X3211660Y4684120D01*
Y4694620D01*
X3213610Y4705120D01*
X3217500Y4714310D01*
X3223350Y4722180D01*
X3230160Y4727430D01*
X3237950Y4728740D01*
X3245740Y4727430D01*
X3252550Y4722180D01*
X3258400Y4714310D01*
X3262290Y4705120D01*
X3264240Y4694620D01*
Y4684120D01*
X3262290Y4673620D01*
X3258400Y4664430D01*
X3252550Y4656560D01*
X3245740Y4651310D01*
X3237950Y4650000D01*
G01X3296240Y4660500D02*
X3304030Y4653940D01*
X3312800Y4650000D01*
X3320580D01*
X3328370Y4653940D01*
X3334220Y4660500D01*
X3337140Y4669690D01*
X3335190Y4678870D01*
X3330320Y4686740D01*
X3321560Y4692000D01*
X3309870Y4694620D01*
X3303060Y4699870D01*
X3300140Y4709050D01*
X3302090Y4718240D01*
X3306950Y4724800D01*
X3313770Y4728740D01*
X3320580D01*
X3327400Y4726120D01*
X3333240Y4719550D01*
G01X3376930Y4650000D02*
Y4728740D01*
X3413930D01*
G01X3400300Y4690680D02*
X3376930D01*
G01X3493640Y4650000D02*
X3454700D01*
Y4728740D01*
X3493640D01*
G01X3478060Y4690680D02*
X3454700D01*
G01X3552910Y4728740D02*
Y4650000D01*
G01X3530520Y4728740D02*
X3575300D01*
G01X3610230Y4665750D02*
X3616070Y4656560D01*
X3623860Y4651310D01*
X3632620Y4650000D01*
X3640410Y4651310D01*
X3648200Y4657870D01*
X3653070Y4665750D01*
X3654040Y4673620D01*
X3652100Y4682810D01*
X3645280Y4689370D01*
X3638470Y4692000D01*
X3629700D01*
G01X3638470D02*
X3644310Y4695930D01*
X3649180Y4702490D01*
X3651120Y4710370D01*
X3649180Y4718240D01*
X3644310Y4724800D01*
X3635540Y4728740D01*
X3626780Y4727430D01*
X3618020Y4722180D01*
G01X3149740Y4825750D02*
X3154610Y4817870D01*
X3160450Y4812620D01*
X3167260Y4810000D01*
X3175050Y4812620D01*
X3180890Y4817870D01*
X3186740Y4825750D01*
X3188680Y4836250D01*
Y4888740D01*
G01X3259630Y4810000D02*
Y4888740D01*
X3223610Y4832310D01*
X3272290D01*
G01X3249210Y368740D02*
Y290000D01*
G01X3226820Y368740D02*
X3271600D01*
G01X3308480Y290000D02*
Y368740D01*
X3331840D01*
X3339630Y364800D01*
X3345480Y355620D01*
X3347420Y345120D01*
X3345480Y334620D01*
X3340610Y326740D01*
X3331840Y322810D01*
X3308480D01*
G01X3406690Y290000D02*
Y368740D01*
X3395010Y352990D01*
G01Y290000D02*
X3418370D01*
G01X3290630Y1982180D02*
X3284790Y1986120D01*
X3277970Y1988740D01*
X3270180D01*
X3261420Y1984800D01*
X3254610Y1978240D01*
X3249740Y1970370D01*
X3245840Y1957240D01*
X3244870Y1945430D01*
X3246820Y1933620D01*
X3249740Y1925750D01*
X3255580Y1917870D01*
X3262390Y1912620D01*
X3269210Y1910000D01*
X3276030D01*
X3282840Y1912620D01*
X3288680Y1916560D01*
X3293550Y1921810D01*
G01X3329450Y1975620D02*
X3335290Y1983490D01*
X3342110Y1987430D01*
X3349900Y1988740D01*
X3359630Y1986120D01*
X3366450Y1979550D01*
X3368400Y1971680D01*
X3367420Y1963800D01*
X3363530Y1957240D01*
X3344060Y1944120D01*
X3335290Y1934930D01*
X3329450Y1921810D01*
X3327500Y1910000D01*
X3368400D01*
G01X3426690D02*
X3433510Y1911310D01*
X3441290Y1915250D01*
X3446160Y1921810D01*
X3448110Y1931000D01*
X3446160Y1940180D01*
X3440320Y1948060D01*
X3431560Y1952000D01*
X3421820D01*
X3415980Y1954620D01*
X3411110Y1961180D01*
X3409160Y1970370D01*
X3412090Y1979550D01*
X3418900Y1986120D01*
X3426690Y1988740D01*
X3434480Y1986120D01*
X3441290Y1979550D01*
X3444220Y1970370D01*
X3442270Y1961180D01*
X3437400Y1954620D01*
X3431560Y1952000D01*
X3421820D01*
X3413060Y1948060D01*
X3407220Y1940180D01*
X3405270Y1931000D01*
X3407220Y1921810D01*
X3412090Y1915250D01*
X3419870Y1911310D01*
X3426690Y1910000D01*
G01X3670630Y4192180D02*
X3664790Y4196120D01*
X3657970Y4198740D01*
X3650180D01*
X3641420Y4194800D01*
X3634610Y4188240D01*
X3629740Y4180370D01*
X3625840Y4167240D01*
X3624870Y4155430D01*
X3626820Y4143620D01*
X3629740Y4135750D01*
X3635580Y4127870D01*
X3642390Y4122620D01*
X3649210Y4120000D01*
X3656030D01*
X3662840Y4122620D01*
X3668680Y4126560D01*
X3673550Y4131810D01*
G01X3727950Y4120000D02*
Y4198740D01*
X3716270Y4182990D01*
G01Y4120000D02*
X3739630D01*
G01X3818370D02*
Y4198740D01*
X3782350Y4142310D01*
X3831030D01*
G54D11*
G01X1060990Y1020000D02*
G03I-50990J0D01*
M02*
