G04 ================== begin FILE IDENTIFICATION RECORD ==================*
G04 Layout Name:  G:/Geek/Projects/remote_car/PCB/PCB_DRV8301/ti_foc_motor_8301.brd*
G04 Film Name:    SOLDERMASK_BOTTOM*
G04 File Format:  Gerber RS274X*
G04 File Origin:  Cadence Allegro 17.2-P019*
G04 Origin Date:  Sat Mar 03 21:35:29 2018*
G04 *
G04 Layer:  VIA CLASS/SOLDERMASK_BOTTOM*
G04 Layer:  PIN/SOLDERMASK_BOTTOM*
G04 Layer:  PACKAGE GEOMETRY/SOLDERMASK_BOTTOM*
G04 Layer:  DRC ERROR CLASS/SOLDERMASK_BOTTOM*
G04 Layer:  BOARD GEOMETRY/SOLDERMASK_BOTTOM*
G04 *
G04 Offset:    (0.0000 0.0000)*
G04 Mirror:    No*
G04 Mode:      Positive*
G04 Rotation:  0*
G04 FullContactRelief:  No*
G04 UndefLineWidth:     0.2000*
G04 ================== end FILE IDENTIFICATION RECORD ====================*
%FSLAX25Y25*MOMM*%
%IR0*IPPOS*OFA0.00000B0.00000*MIA0B0*SFA1.00000B1.00000*%
%ADD21R,.3X1.4*%
%ADD20R,1.4X.3*%
%ADD24R,2.2X.9*%
%ADD23R,1.X1.6*%
%ADD22R,1.6X1.*%
%ADD15R,1.X1.7*%
%ADD14R,1.7X1.*%
%ADD16R,1.2X1.9*%
%ADD13R,1.7X2.4*%
%ADD12R,7.2X7.2*%
%ADD11R,1.8X3.8*%
%ADD17R,.9X.7*%
%ADD19C,1.9*%
%ADD10C,3.8*%
%ADD18R,1.9X1.9*%
G75*
%LPD*%
G75*
G36*
G01X60000Y230000D02*
X400000D01*
Y2150000D01*
X700000Y2450000D01*
X3120000D01*
X3260000Y2590000D01*
Y2630000D01*
X3500000Y2870000D01*
Y3060000D01*
X3440000Y3120000D01*
X3350000D01*
X3280000Y3050000D01*
Y2970000D01*
X3100000Y2790000D01*
X2300000D01*
X2280000Y2810000D01*
Y3040000D01*
X2220000Y3100000D01*
X2140000D01*
X2080000Y3040000D01*
Y2810000D01*
X2060000Y2790000D01*
X1080000D01*
X1050000Y2820000D01*
Y3050000D01*
X1000000Y3100000D01*
X900000D01*
X850000Y3050000D01*
Y2820000D01*
X820000Y2790000D01*
X560000D01*
X60000Y2290000D01*
Y230000D01*
G37*
G36*
G01X330000Y3500000D02*
Y3490000D01*
X200000Y3360000D01*
Y2980000D01*
X260000Y2920000D01*
X360000D01*
X420000Y2980000D01*
Y3290000D01*
X450000Y3320000D01*
Y3470000D01*
X420000Y3500000D01*
X330000D01*
G37*
G36*
G01X200000Y4770000D02*
Y4340000D01*
X260000Y4280000D01*
X380000D01*
X540000Y4440000D01*
Y4770000D01*
X200000D01*
G37*
G36*
G01X1570000Y3500000D02*
Y3490000D01*
X1430000Y3350000D01*
Y2980000D01*
X1480000Y2930000D01*
X1600000D01*
X1650000Y2980000D01*
Y3250000D01*
X1700000Y3300000D01*
Y3480000D01*
X1680000Y3500000D01*
X1570000D01*
G37*
G36*
G01X1450000Y4770000D02*
Y4340000D01*
X1510000Y4280000D01*
X1630000D01*
X1790000Y4440000D01*
Y4770000D01*
X1450000D01*
G37*
G36*
G01X2820000Y3500000D02*
X2650000Y3330000D01*
Y3290000D01*
X2640000Y3280000D01*
Y2980000D01*
X2700000Y2920000D01*
X2800000D01*
X2860000Y2980000D01*
Y3220000D01*
X2950000Y3310000D01*
Y3470000D01*
X2920000Y3500000D01*
X2820000D01*
G37*
G36*
G01X2700000Y4770000D02*
Y4340000D01*
X2760000Y4280000D01*
X2880000D01*
X3040000Y4440000D01*
Y4770000D01*
X2700000D01*
G37*
G54D10*
X230000Y230000D03*
X370000Y4770000D03*
X1620000D03*
X2870000D03*
X3770000Y230000D03*
G54D11*
X310000Y3020000D03*
X950000D03*
X1540000D03*
X2180000D03*
X2750000D03*
X3390000D03*
G54D20*
X1420000Y1115000D03*
Y1165000D03*
Y1265000D03*
Y1215000D03*
Y1315000D03*
Y1365000D03*
Y1465000D03*
Y1415000D03*
Y1515000D03*
Y1565000D03*
Y1665000D03*
Y1615000D03*
X2280000Y1115000D03*
Y1165000D03*
Y1215000D03*
Y1265000D03*
Y1315000D03*
Y1365000D03*
Y1415000D03*
Y1465000D03*
Y1515000D03*
Y1565000D03*
Y1615000D03*
Y1665000D03*
G54D12*
X600000Y4150000D03*
X1850000D03*
X3100000D03*
G54D21*
X1575000Y960000D03*
Y1820000D03*
X1625000Y960000D03*
X1675000D03*
Y1820000D03*
X1625000D03*
X1725000Y960000D03*
Y1820000D03*
X1775000Y960000D03*
Y1820000D03*
X1825000Y960000D03*
X1875000D03*
Y1820000D03*
X1825000D03*
X1925000Y960000D03*
Y1820000D03*
X1975000Y960000D03*
Y1820000D03*
X2025000Y960000D03*
X2075000D03*
Y1820000D03*
X2025000D03*
X2125000Y960000D03*
Y1820000D03*
G54D13*
X370000Y3390000D03*
X1620000D03*
X2870000D03*
G54D22*
X1780000Y460000D03*
Y640000D03*
G54D14*
X570000Y1320000D03*
Y1540000D03*
X750000Y110000D03*
Y300000D03*
Y500000D03*
Y690000D03*
X950000Y450000D03*
Y640000D03*
X1150000Y450000D03*
Y640000D03*
X1350000Y450000D03*
Y640000D03*
X1580000Y450000D03*
Y640000D03*
X1990000Y450000D03*
Y640000D03*
X2240000Y350000D03*
Y540000D03*
X2480000Y350000D03*
Y540000D03*
X2650000Y1480000D03*
Y1670000D03*
X2790000Y430000D03*
Y620000D03*
X3030000Y430000D03*
Y620000D03*
X3080000Y2130000D03*
Y2320000D03*
X3270000Y690000D03*
Y880000D03*
X3380000Y2130000D03*
Y2320000D03*
X3680000Y2130000D03*
Y2320000D03*
G54D23*
X2430000Y2170000D03*
X2610000D03*
G54D15*
X680000Y4770000D03*
X810000Y1140000D03*
Y1340000D03*
Y1540000D03*
Y1740000D03*
X870000Y4770000D03*
X1000000Y1140000D03*
Y1340000D03*
Y1540000D03*
Y1740000D03*
X1080000Y4770000D03*
X1200000Y2100000D03*
Y2300000D03*
X1270000Y4770000D03*
X1390000Y2100000D03*
Y2300000D03*
X1930000Y4770000D03*
X2120000D03*
X2330000D03*
X2430000Y1980000D03*
X2520000Y4770000D03*
X2620000Y1980000D03*
X2860000Y1200000D03*
X3050000D03*
X3130000Y1780000D03*
X3180000Y4770000D03*
X3320000Y1780000D03*
X3370000Y4770000D03*
X3580000D03*
X3770000D03*
G54D24*
X3350000Y1119000D03*
Y1246000D03*
Y1373000D03*
Y1500000D03*
X3730000Y1119000D03*
Y1246000D03*
Y1373000D03*
Y1500000D03*
G54D16*
X830000Y3380000D03*
X2080000D03*
X3330000D03*
G54D17*
X1100000Y4530000D03*
X1330000D03*
X2350000D03*
X2580000D03*
X2790000Y880000D03*
X3020000D03*
X3600000Y4530000D03*
X3830000D03*
G54D18*
X1200000Y200000D03*
G54D19*
X1454000D03*
X1708000D03*
X1962000D03*
X2650000Y150000D03*
X3150000D03*
M02*
